<svg id="圖層_1" data-name="圖層 1" xmlns="http://www.w3.org/2000/svg" xmlns:xlink="http://www.w3.org/1999/xlink" viewBox="0 0 2931.39165 1673.51613"><defs><style>.cls-1,.cls-15{fill:#8bc53f;}.cls-1,.cls-16,.cls-2,.cls-21,.cls-22,.cls-23,.cls-24,.cls-25,.cls-4,.cls-7,.cls-8,.cls-9{stroke:#231815;}.cls-1,.cls-13,.cls-16,.cls-17,.cls-2,.cls-20,.cls-21,.cls-22,.cls-23,.cls-24,.cls-25,.cls-26,.cls-27,.cls-4,.cls-7,.cls-8,.cls-9{stroke-miterlimit:10;}.cls-2{fill:#ffef00;}.cls-10,.cls-3{font-size:18.81875px;}.cls-20,.cls-3,.cls-6{fill:#231815;}.cls-10,.cls-20,.cls-3{font-family:AdobeMingStd-Light-B5pc-H, Adobe Ming Std;}.cls-13,.cls-26,.cls-4{fill:none;}.cls-5,.cls-7{fill:#fff;}.cls-8{fill:#3fa8f4;}.cls-9{fill:#fbed21;}.cls-11,.cls-16,.cls-19{fill:red;}.cls-12,.cls-18{letter-spacing:0.00003em;}.cls-12{fill:#000;}.cls-13,.cls-17,.cls-20,.cls-26,.cls-27{stroke:#000;}.cls-14{fill:#e63828;}.cls-17{fill:#c59b6d;}.cls-19{letter-spacing:-0.00003em;}.cls-20{font-size:31.36458px;stroke-width:1.2px;}.cls-22{fill:#009ee7;}.cls-23{fill:url(#蘭花_2);}.cls-24{fill:url(#天空_2);}.cls-25{fill:#c69c6d;}.cls-26{stroke-width:2px;}.cls-27{fill:#8cc63f;}</style><linearGradient id="蘭花_2" x1="704.00646" y1="1242.53733" x2="857.6929" y2="1242.53733" gradientUnits="userSpaceOnUse"><stop offset="0" stop-color="#ff7bac"/><stop offset="0.21596" stop-color="#ff7bac" stop-opacity="0.76266"/><stop offset="0.6041" stop-color="#ff7bac" stop-opacity="0.35634"/><stop offset="0.87374" stop-color="#ff7bac" stop-opacity="0.09981"/><stop offset="1" stop-color="#ff7bac" stop-opacity="0"/></linearGradient><linearGradient id="天空_2" x1="873.37519" y1="1240.96911" x2="1025.4934" y2="1240.96911" gradientUnits="userSpaceOnUse"><stop offset="0" stop-color="#cce0f4"/><stop offset="0.06405" stop-color="#c3dcf2"/><stop offset="0.17063" stop-color="#a9d2ee"/><stop offset="0.30655" stop-color="#80c2e7"/><stop offset="0.46487" stop-color="#47acde"/><stop offset="0.56742" stop-color="#1e9cd7"/><stop offset="0.86517" stop-color="#0075be"/><stop offset="0.99438" stop-color="#005b97"/></linearGradient></defs><rect class="cls-1" x="704.00646" y="1456.60059" width="321.48694" height="112.91248"/><rect class="cls-1" x="2019.75056" y="1594.60474" width="244.64372" height="39.20572"/><rect class="cls-2" x="2648.61034" y="685.05867" width="239.9391" height="51.81697"/><text class="cls-3" transform="translate(377.52935 38.85659)">Start</text><polygon class="cls-2" points="420.365 1027.991 102.826 1028.58 102.826 981.652 420.365 981.062 420.365 1027.991"/><text class="cls-3" transform="translate(168.07622 1009.55776)">Press button to Start</text><polygon class="cls-4" points="341.724 1128.898 140.457 1128.898 179.963 1063.233 381.23 1063.233 341.724 1128.898"/><line class="cls-5" x1="268.03881" y1="1028.58009" x2="268.03881" y2="1063.23293"/><line class="cls-4" x1="268.03881" y1="1028.5801" x2="268.03881" y2="1057.19777"/><path class="cls-6" d="M351.15448,1295.12439a30.22216,30.22216,0,0,0-4.75586-8.54736l4.75586,1.72021,4.75488-1.72021A30.19611,30.19611,0,0,0,351.15448,1295.12439Z" transform="translate(-83.11567 -231.89146)"/><text class="cls-3" transform="translate(198.69097 1103.02749)">Button Control</text><line class="cls-5" x1="1495.58417" y1="205.49675" x2="1495.96209" y2="265.53069"/><line class="cls-4" x1="1495.58416" y1="205.49675" x2="1495.92412" y2="259.49565"/><path class="cls-6" d="M1579.07776,497.42215a30.22227,30.22227,0,0,0-4.80957-8.51725l4.7666,1.69024,4.744-1.75011A30.19583,30.19583,0,0,0,1579.07776,497.42215Z" transform="translate(-83.11567 -231.89146)"/><path class="cls-5" d="M1615.68129,445.17766" transform="translate(-83.11567 -231.89146)"/><polygon class="cls-2" points="1657.891 203.837 1340.352 204.426 1340.352 140.856 1657.891 140.267 1657.891 203.837"/><text class="cls-3" transform="translate(1358.02495 169.48891)">%lower &lt;= x &lt;= %upper<tspan x="0" y="22.58252">%the number of chance you have</tspan></text><path class="cls-5" d="M1544.65686,379.76413" transform="translate(-83.11567 -231.89146)"/><path class="cls-5" d="M1572.88325,437.118" transform="translate(-83.11567 -231.89146)"/><path class="cls-5" d="M1709.82806,411.79" transform="translate(-83.11567 -231.89146)"/><path class="cls-5" d="M1572.88325,437.118" transform="translate(-83.11567 -231.89146)"/><path class="cls-5" d="M1586.16488,435.82" transform="translate(-83.11567 -231.89146)"/><path class="cls-5" d="M486.02218,299.04119" transform="translate(-83.11567 -231.89146)"/><polygon class="cls-2" points="559.596 388.666 242.057 389.256 242.057 342.327 559.596 341.738 559.596 388.666"/><text class="cls-3" transform="translate(346.82769 370.78921)">Select Mode:</text><polygon class="cls-4" points="505.579 580.553 256.881 579.201 296.387 513.535 545.085 514.887 505.579 580.553"/><line class="cls-5" x1="396.63359" y1="388.63667" x2="396.63359" y2="419.21713"/><line class="cls-4" x1="396.63359" y1="388.63666" x2="396.63359" y2="413.18197"/><path class="cls-6" d="M479.74927,651.10859a30.22189,30.22189,0,0,0-4.75586-8.54736l4.75586,1.72021,4.75487-1.72021A30.19533,30.19533,0,0,0,479.74927,651.10859Z" transform="translate(-83.11567 -231.89146)"/><text class="cls-3" transform="translate(319.13579 552.80385)">Button 9 or Button 8 </text><path class="cls-5" d="M588.82242,744.98552" transform="translate(-83.11567 -231.89146)"/><path class="cls-5" d="M560.24429,668.03769" transform="translate(-83.11567 -231.89146)"/><polygon class="cls-2" points="560.749 486.647 243.211 487.236 242.399 420.012 559.938 419.423 560.749 486.647"/><text class="cls-3" transform="translate(326.35357 445.48794)">9 ~ Normal Mode<tspan x="4.60107" y="22.58252">8 ~ Timer Mode</tspan></text><path class="cls-5" d="M588.01384,790.727" transform="translate(-83.11567 -231.89146)"/><line class="cls-5" x1="396.63359" y1="486.65098" x2="396.63359" y2="513.31087"/><line class="cls-4" x1="396.63359" y1="486.65098" x2="396.63359" y2="507.27572"/><path class="cls-6" d="M479.74927,745.20233a30.22189,30.22189,0,0,0-4.75586-8.54736l4.75586,1.72021,4.75487-1.72021A30.19533,30.19533,0,0,0,479.74927,745.20233Z" transform="translate(-83.11567 -231.89146)"/><line class="cls-5" x1="705.02387" y1="552.5784" x2="520.93405" y2="554.37232"/><line class="cls-4" x1="698.989" y1="552.63721" x2="520.93405" y2="554.37232"/><path class="cls-6" d="M788.13954,784.46986a30.22231,30.22231,0,0,1-8.59329-4.67234l1.76646,4.73886-1.67378,4.77142A30.19573,30.19573,0,0,1,788.13954,784.46986Z" transform="translate(-83.11567 -231.89146)"/><path class="cls-2" d="M788.13955,760.68916" transform="translate(-83.11567 -231.89146)"/><path class="cls-2" d="M1099.79307,760.59607" transform="translate(-83.11567 -231.89146)"/><path class="cls-5" d="M933.74728,772.122" transform="translate(-83.11567 -231.89146)"/><path class="cls-7" d="M900.12942,761.85668" transform="translate(-83.11567 -231.89146)"/><path class="cls-5" d="M886.31626,760.3352" transform="translate(-83.11567 -231.89146)"/><path class="cls-5" d="M900.12942,761.85668" transform="translate(-83.11567 -231.89146)"/><polygon class="cls-8" points="1016.327 589.813 704.673 589.906 706.21 517.997 1017.863 517.904 1016.327 589.813"/><text class="cls-3" transform="translate(782.29839 548.37417)">LEDs light reflects<tspan x="-16.71045" y="22.58252">which button you press</tspan></text><path class="cls-5" d="M934.93332,761.32133" transform="translate(-83.11567 -231.89146)"/><path class="cls-7" d="M901.31546,751.056" transform="translate(-83.11567 -231.89146)"/><path class="cls-5" d="M887.5023,749.53451" transform="translate(-83.11567 -231.89146)"/><path class="cls-5" d="M901.31546,751.056" transform="translate(-83.11567 -231.89146)"/><path class="cls-5" d="M895.9163,797.80382" transform="translate(-83.11567 -231.89146)"/><text class="cls-3" transform="translate(584.44732 541.30678)">Meanwhile</text><polygon class="cls-4" points="202.151 776.047 0.884 776.047 40.39 710.381 241.658 710.381 202.151 776.047"/><polyline class="cls-4" points="100.817 704.347 100.238 652.099 678.915 652.099 678.915 705.657"/><path class="cls-6" d="M183.99963,942.27289a30.22113,30.22113,0,0,1,4.66089-8.59952l-4.73651,1.77277-4.77365-1.66742A30.19622,30.19622,0,0,1,183.99963,942.27289Z" transform="translate(-83.11567 -231.89146)"/><path class="cls-6" d="M762.03047,943.58328a30.22216,30.22216,0,0,0-4.75586-8.54736l4.75586,1.72021,4.75488-1.72021A30.19611,30.19611,0,0,0,762.03047,943.58328Z" transform="translate(-83.11567 -231.89146)"/><text class="cls-3" transform="translate(88.91509 748.60756)">Button 9</text><polygon class="cls-4" points="482.864 776.047 281.597 776.047 321.103 710.381 522.371 710.381 482.864 776.047"/><text class="cls-3" transform="translate(369.62749 748.60756)">Button 8</text><polygon class="cls-4" points="765.146 776.047 563.879 776.047 603.385 710.381 804.652 710.381 765.146 776.047"/><text class="cls-3" transform="translate(618.97612 748.60756)">Button 8 &amp;&amp; 9</text><path class="cls-2" d="M190.42859,1442.87009" transform="translate(-83.11567 -231.89146)"/><path class="cls-2" d="M502.08211,1442.777" transform="translate(-83.11567 -231.89146)"/><path class="cls-5" d="M336.03633,1454.303" transform="translate(-83.11567 -231.89146)"/><path class="cls-7" d="M302.41846,1444.03761" transform="translate(-83.11567 -231.89146)"/><path class="cls-5" d="M288.6053,1442.51613" transform="translate(-83.11567 -231.89146)"/><path class="cls-5" d="M302.41846,1444.03761" transform="translate(-83.11567 -231.89146)"/><path class="cls-5" d="M337.22236,1443.50226" transform="translate(-83.11567 -231.89146)"/><path class="cls-7" d="M303.6045,1433.23692" transform="translate(-83.11567 -231.89146)"/><path class="cls-5" d="M289.79134,1431.71544" transform="translate(-83.11567 -231.89146)"/><path class="cls-5" d="M303.6045,1433.23692" transform="translate(-83.11567 -231.89146)"/><path class="cls-5" d="M298.20534,1479.98475" transform="translate(-83.11567 -231.89146)"/><path class="cls-2" d="M1873.13826,1080.53768" transform="translate(-83.11567 -231.89146)"/><path class="cls-7" d="M1985.12814,1081.70521" transform="translate(-83.11567 -231.89146)"/><path class="cls-5" d="M1971.315,1080.18373" transform="translate(-83.11567 -231.89146)"/><path class="cls-5" d="M1985.12814,1081.70521" transform="translate(-83.11567 -231.89146)"/><path class="cls-7" d="M1986.31417,1070.90452" transform="translate(-83.11567 -231.89146)"/><path class="cls-5" d="M1972.501,1069.383" transform="translate(-83.11567 -231.89146)"/><path class="cls-5" d="M1986.31417,1070.90452" transform="translate(-83.11567 -231.89146)"/><path class="cls-5" d="M1728.56675,1417.1086" transform="translate(-83.11567 -231.89146)"/><path class="cls-5" d="M1664.223,1027.98323" transform="translate(-83.11567 -231.89146)"/><rect class="cls-2" x="1373.64023" y="794.89315" width="244.64372" height="46.97341"/><text class="cls-3" transform="translate(1464.72857 824.80092)">You lose!!</text><path class="cls-5" d="M1663.41438,1073.72475" transform="translate(-83.11567 -231.89146)"/><text class="cls-3" transform="translate(1415.87554 611.98842)">timeout</text><text class="cls-3" transform="translate(1348.36626 227.83999)"><tspan xml:space="preserve">Hint: the answer     is in given range</tspan></text><path class="cls-5" d="M1535.08092,506.38538" transform="translate(-83.11567 -231.89146)"/><polygon class="cls-1" points="1659.058 332.18 1495.965 331.496 1345.823 330.865 1346.254 264.831 1659.071 266.804 1659.058 332.18"/><text class="cls-3" transform="translate(1388.38579 303.73842)">Guess = Input subfunction</text><path class="cls-5" d="M1576.58894,562.44123" transform="translate(-83.11567 -231.89146)"/><polygon class="cls-4" points="1496.772 465.135 1356.39 525.073 1497.53 579.961 1643.376 523.504 1496.772 465.135"/><polygon class="cls-4" points="268.849 1307.274 120.625 1357.802 270.57 1422.18 417.021 1357.802 268.849 1307.274"/><text class="cls-3" transform="translate(1419.23442 526.52553)">timeout in timer mode</text><text class="cls-3" transform="translate(2091.82476 617.33608)"><tspan xml:space="preserve">Less   Than</tspan></text><text class="cls-3" transform="translate(2681.10796 649.65298)"><tspan xml:space="preserve">Overflow   Underflow</tspan></text><text class="cls-3" transform="translate(2385.61577 614.2018)"><tspan xml:space="preserve">Larger    Than</tspan></text><polygon class="cls-9" points="1955.453 843.423 1709.241 842.436 1709.241 796.225 1955.453 796.376 1955.453 843.423"/><text class="cls-3" transform="translate(1764.19292 825.25503)">Congratulations!</text><path class="cls-5" d="M1953.77273,1039.549" transform="translate(-83.11567 -231.89146)"/><path class="cls-7" d="M1920.15487,1029.28361" transform="translate(-83.11567 -231.89146)"/><path class="cls-5" d="M1906.3417,1027.76213" transform="translate(-83.11567 -231.89146)"/><path class="cls-5" d="M1920.15487,1029.28361" transform="translate(-83.11567 -231.89146)"/><path class="cls-5" d="M2232.25641,1317.74779" transform="translate(-83.11567 -231.89146)"/><rect class="cls-2" x="2026.02344" y="1052.02424" width="239.9391" height="51.81697"/><text class="cls-10" transform="translate(2042.20659 1086.35464)">%lower &lt;<tspan class="cls-6" x="77.04199" y="0">= x &lt;= %upper</tspan></text><path class="cls-5" d="M2889.4272,954.985" transform="translate(-83.11567 -231.89146)"/><text class="cls-3" transform="translate(2707.273 716.71694)">Out of Range!!</text><path class="cls-5" d="M2219.06781,1279.9702" transform="translate(-83.11567 -231.89146)"/><path class="cls-5" d="M1579.8876,697.02605" transform="translate(-83.11567 -231.89146)"/><path class="cls-5" d="M1575.95345,562.48752" transform="translate(-83.11567 -231.89146)"/><path class="cls-5" d="M2232.25641,1331.41237" transform="translate(-83.11567 -231.89146)"/><path class="cls-4" d="M2847.43691,969.15148" transform="translate(-83.11567 -231.89146)"/><line class="cls-5" x1="1834.69954" y1="844.13998" x2="1834.69954" y2="880.0906"/><line class="cls-4" x1="1834.69951" y1="844.13997" x2="1834.69951" y2="874.05544"/><path class="cls-6" d="M1917.81519,1111.98206a30.22257,30.22257,0,0,0-4.75586-8.54737l4.75586,1.72022,4.75488-1.72022A30.19554,30.19554,0,0,0,1917.81519,1111.98206Z" transform="translate(-83.11567 -231.89146)"/><line class="cls-5" x1="396.63359" y1="66.36562" x2="396.63359" y2="96.16197"/><line class="cls-4" x1="396.63359" y1="66.36562" x2="396.63359" y2="90.12681"/><path class="cls-6" d="M479.74927,328.05342a30.22189,30.22189,0,0,0-4.75586-8.54736l4.75586,1.72021,4.75487-1.72021A30.19533,30.19533,0,0,0,479.74927,328.05342Z" transform="translate(-83.11567 -231.89146)"/><text class="cls-3" transform="translate(85.4688 125.5143)">Define <tspan class="cls-11" x="58.86377" y="0">global variable</tspan><tspan x="181.03271" y="0" xml:space="preserve"> ifint=false, count_down=0, mode_state[2]={0}, chance=0</tspan><tspan x="14.02832" y="22.58252">Define gpio 4b_1 ×2, 4b_2 ×4, 8b_2 ×8, 8b_3 ×8, </tspan><tspan class="cls-11" x="441.0376" y="22.58252">22 pins in total </tspan><tspan class="cls-12" x="568.62598" y="22.58252">and LCD</tspan><tspan x="325.53906" y="67.74756"> </tspan></text><line class="cls-5" x1="396.63359" y1="300.03173" x2="396.63359" y2="342.37391"/><line class="cls-4" x1="396.63359" y1="300.03173" x2="396.63359" y2="336.33875"/><path class="cls-6" d="M479.74927,574.26537a30.22189,30.22189,0,0,0-4.75586-8.54736l4.75586,1.72021,4.75487-1.72021A30.19533,30.19533,0,0,0,479.74927,574.26537Z" transform="translate(-83.11567 -231.89146)"/><line class="cls-5" x1="396.63359" y1="158.89112" x2="396.63359" y2="199.66508"/><line class="cls-4" x1="396.63359" y1="158.89112" x2="396.63359" y2="193.62992"/><path class="cls-6" d="M479.74927,431.55653a30.22183,30.22183,0,0,0-4.75586-8.54735l4.75586,1.72021,4.75487-1.72021A30.19527,30.19527,0,0,0,479.74927,431.55653Z" transform="translate(-83.11567 -231.89146)"/><polyline class="cls-5" points="395.301 580.553 395.711 655.342 395.711 710.381"/><polyline class="cls-4" points="395.301 580.553 395.711 655.342 395.711 704.346"/><path class="cls-6" d="M478.82666,942.27289a30.22181,30.22181,0,0,0-4.75586-8.54737l4.75586,1.72022,4.75488-1.72022A30.19576,30.19576,0,0,0,478.82666,942.27289Z" transform="translate(-83.11567 -231.89146)"/><text class="cls-10" transform="translate(607.72661 692.02212)"><tspan xml:space="preserve">Invalid     Input</tspan></text><polyline class="cls-13" points="677.347 776.773 677.347 834.014 862.398 834.014 862.398 614.462 401.101 613.688"/><path d="M478.181,845.569a30.22171,30.22171,0,0,0,8.55533-4.74149l-1.72819,4.753,1.71224,4.75776A30.19552,30.19552,0,0,0,478.181,845.569Z" transform="translate(-83.11567 -231.89146)"/><path class="cls-13" d="M287.64121,1138.04368c-45.47864-45.47864,3.13646-89.389,3.13646-89.389H111.21546s-44.69453,43.91041.78411,89.38905Z" transform="translate(-83.11567 -231.89146)"/><text class="cls-10" transform="translate(28.78179 868.29506)">mode_state[0] = 1</text><line class="cls-13" x1="100.2383" y1="776.77334" x2="100.2383" y2="810.72802"/><path d="M183.354,1048.65463a30.22028,30.22028,0,0,0-4.75586-8.54736l4.75586,1.72021,4.75489-1.72021A30.19622,30.19622,0,0,0,183.354,1048.65463Z" transform="translate(-83.11567 -231.89146)"/><path class="cls-13" d="M584.03649,1138.04368c-45.47864-45.47864,3.13645-89.389,3.13645-89.389H407.61073s-44.69453,43.91041.78411,89.38905Z" transform="translate(-83.11567 -231.89146)"/><text class="cls-10" transform="translate(325.17778 868.29506)">mode_state[1] = 1</text><line class="cls-13" x1="396.63359" y1="775.98922" x2="396.63359" y2="809.9439"/><path d="M479.74927,1047.87051a30.22216,30.22216,0,0,0-4.75586-8.54736l4.75586,1.72022,4.75487-1.72022A30.1956,30.1956,0,0,0,479.74927,1047.87051Z" transform="translate(-83.11567 -231.89146)"/><line class="cls-13" x1="269.60704" y1="1422.88369" x2="269.59368" y2="1459.97475"/><path d="M352.70718,1697.90137a30.22377,30.22377,0,0,0-4.75277-8.54908l4.75525,1.72193,4.75549-1.71851A30.19717,30.19717,0,0,0,352.70718,1697.90137Z" transform="translate(-83.11567 -231.89146)"/><line class="cls-13" x1="268.03881" y1="1273.11782" x2="268.03881" y2="1302.36782"/><path d="M351.15448,1540.29443a30.22134,30.22134,0,0,0-4.75586-8.54736l4.75586,1.72022,4.75488-1.72022A30.19529,30.19529,0,0,0,351.15448,1540.29443Z" transform="translate(-83.11567 -231.89146)"/><line class="cls-14" x1="268.03881" y1="1128.89835" x2="268.03881" y2="1199.82398"/><line class="cls-4" x1="268.03881" y1="1128.89834" x2="268.03881" y2="1193.78884"/><path class="cls-6" d="M351.15448,1431.71545a30.22134,30.22134,0,0,0-4.75586-8.54736l4.75586,1.72022,4.75488-1.72022A30.19529,30.19529,0,0,0,351.15448,1431.71545Z" transform="translate(-83.11567 -231.89146)"/><polygon class="cls-4" points="1751.562 1254.357 1550.295 1254.357 1589.801 1188.691 1791.068 1188.691 1751.562 1254.357"/><line class="cls-5" x1="1666.89904" y1="1091.98735" x2="1667.54468" y2="1188.69125"/><line class="cls-4" x1="1666.8991" y1="1091.98733" x2="1667.50444" y2="1182.65621"/><path class="cls-6" d="M1750.6604,1420.5827a30.22394,30.22394,0,0,0-4.81287-8.51538l4.76722,1.68842,4.74328-1.752A30.19522,30.19522,0,0,0,1750.6604,1420.5827Z" transform="translate(-83.11567 -231.89146)"/><text class="cls-3" transform="translate(1608.52886 1228.48647)">Button Control</text><line class="cls-14" x1="1666.89904" y1="1255.08317" x2="1666.89904" y2="1297.42535"/><line class="cls-4" x1="1666.8991" y1="1255.08315" x2="1666.8991" y2="1291.39022"/><path class="cls-6" d="M1750.01477,1529.31683a30.22134,30.22134,0,0,0-4.75586-8.54736l4.75586,1.72022,4.75488-1.72022A30.195,30.195,0,0,0,1750.01477,1529.31683Z" transform="translate(-83.11567 -231.89146)"/><path class="cls-5" d="M2176.94363,1790.49408" transform="translate(-83.11567 -231.89146)"/><polyline class="cls-4" points="100.238 906.936 100.238 946.926 268.039 946.926 267.899 975.027"/><path class="cls-6" d="M350.98444,1212.95392a30.22227,30.22227,0,0,0-4.71323-8.57092l4.74722,1.74389,4.7634-1.69653A30.19645,30.19645,0,0,0,350.98444,1212.95392Z" transform="translate(-83.11567 -231.89146)"/><polygon class="cls-2" points="421.933 1612.94 104.395 1613.529 104.395 1566.601 421.933 1566.012 421.933 1612.94"/><text class="cls-3" transform="translate(174.34917 1594.50698)">%The time you have</text><polyline class="cls-4" points="1497.53 135.605 1497.53 87.537 1128.997 87.537 1130.565 1654.197 266.471 1654.197 266.471 1613.423"/><path class="cls-6" d="M1580.646,373.53206a30.2217,30.2217,0,0,1,4.75586-8.54735l-4.75586,1.7202-4.75489-1.7202A30.19543,30.19543,0,0,1,1580.646,373.53206Z" transform="translate(-83.11567 -231.89146)"/><polyline class="cls-4" points="396.634 906.152 396.634 946.926 267.255 946.926"/><rect class="cls-13" x="151.98987" y="1466.00996" width="228.96143" height="70.5703"/><text class="cls-10" transform="translate(2074.42046 108.94155)">How to determine press one time?<tspan x="0" y="45.16504">We use while loop to restrain repeated </tspan><tspan x="0" y="67.74756">input data. </tspan><tspan x="0" y="112.9126">For instance, if user keep pressing the button, </tspan><tspan x="0" y="135.49512">input register value will meet while loop condition.</tspan><tspan x="0" y="158.07764">Therefore program will repeatedly read input </tspan><tspan x="0" y="180.66016">register we write in while loop until input register </tspan><tspan x="0" y="203.24268">value change to 0, in other words, user release </tspan><tspan x="0" y="225.8252" xml:space="preserve">the button.  </tspan></text><text x="-83.11567" y="-231.89146"/><text class="cls-10" transform="translate(199.28667 1364.99233)">mode_state[1] = 1</text><text class="cls-10" transform="translate(211.36528 1443.87026)">True</text><text class="cls-10" transform="translate(437.05669 1347.70717)">False</text><text class="cls-3" transform="translate(104.65874 1637.8976)"><tspan xml:space="preserve">Position : in  right      corner of LCD screen</tspan></text><path class="cls-6" d="M1727.147,755.185" transform="translate(-83.11567 -231.89146)"/><polygon class="cls-4" points="2138.936 465.48 2019.751 525.073 2138.936 579.961 2258.121 526.641 2138.936 465.48"/><text class="cls-3" transform="translate(2055.93608 528.09389)">ans &lt; guess &lt;= upper</text><path class="cls-5" d="M2200.90626,697.02605" transform="translate(-83.11567 -231.89146)"/><path class="cls-6" d="M2352.87038,748.91211" transform="translate(-83.11567 -231.89146)"/><polygon class="cls-4" points="1834.7 467.048 1720.219 525.073 1834.7 579.961 1942.907 523.504 1834.7 467.048"/><text class="cls-3" transform="translate(1778.35894 529.66323)">guess == ans</text><path class="cls-5" d="M1909.21568,697.02605" transform="translate(-83.11567 -231.89146)"/><path class="cls-6" d="M1956.10845,748.91211" transform="translate(-83.11567 -231.89146)"/><polygon class="cls-4" points="2447.877 467.048 2316.146 526.641 2447.877 581.529 2579.608 526.641 2447.877 467.048"/><path class="cls-5" d="M2522.3932,698.59428" transform="translate(-83.11567 -231.89146)"/><text x="-83.11567" y="-231.89146"/><path class="cls-5" d="M2414.27206,672.02146" transform="translate(-83.11567 -231.89146)"/><text class="cls-3" transform="translate(2368.01323 529.66323)">lower &lt; = guess &lt; ans</text><line class="cls-4" x1="1834.77654" y1="926.78493" x2="1834.70928" y2="968.33504"/><path class="cls-6" d="M1917.81519,1206.26166a30.221,30.221,0,0,0-4.742-8.55506l4.75305,1.72791,4.75757-1.71253A30.19851,30.19851,0,0,0,1917.81519,1206.26166Z" transform="translate(-83.11567 -231.89146)"/><line class="cls-4" x1="2142.07244" y1="994.75716" x2="2142.07244" y2="1046.74648"/><path class="cls-6" d="M2225.18811,1284.6731a30.22208,30.22208,0,0,0-4.75586-8.54737l4.75586,1.72022,4.75488-1.72022A30.19579,30.19579,0,0,0,2225.18811,1284.6731Z" transform="translate(-83.11567 -231.89146)"/><polyline class="cls-13" points="2579.608 526.641 2766.228 525.073 2766.228 679.025"/><path d="M2849.34326,916.95193a30.22175,30.22175,0,0,0-4.75586-8.54736l4.75586,1.72022,4.75488-1.72022A30.1957,30.1957,0,0,0,2849.34326,916.95193Z" transform="translate(-83.11567 -231.89146)"/><line class="cls-15" x1="1495.96209" y1="332.96454" x2="1495.96209" y2="465.13459"/><line class="cls-4" x1="1495.96209" y1="332.96454" x2="1495.96209" y2="459.09943"/><path class="cls-6" d="M1579.07776,697.02605a30.22208,30.22208,0,0,0-4.75586-8.54737l4.75586,1.72022,4.75488-1.72022A30.19554,30.19554,0,0,0,1579.07776,697.02605Z" transform="translate(-83.11567 -231.89146)"/><path class="cls-5" d="M2168.64542,1820.56125" transform="translate(-83.11567 -231.89146)"/><path class="cls-5" d="M2210.15344,1876.6171" transform="translate(-83.11567 -231.89146)"/><path class="cls-5" d="M2209.518,1876.66339" transform="translate(-83.11567 -231.89146)"/><line class="cls-15" x1="1643.37561" y1="523.50436" x2="1720.21883" y2="525.07259"/><line class="cls-4" x1="1643.37566" y1="523.50435" x2="1714.18486" y2="524.94944"/><path class="cls-6" d="M1803.33447,756.96405a30.22075,30.22075,0,0,0-8.64258,4.58046l1.8169-4.71977-1.6228-4.789A30.195,30.195,0,0,0,1803.33447,756.96405Z" transform="translate(-83.11567 -231.89146)"/><line class="cls-15" x1="1942.90734" y1="523.50436" x2="2019.75056" y2="525.07259"/><line class="cls-4" x1="1942.9074" y1="523.50435" x2="2013.7166" y2="524.94944"/><path class="cls-6" d="M2102.86621,756.96405a30.22062,30.22062,0,0,0-8.64258,4.58046l1.8169-4.71977-1.62281-4.789A30.19515,30.19515,0,0,0,2102.86621,756.96405Z" transform="translate(-83.11567 -231.89146)"/><line class="cls-5" x1="2258.12136" y1="526.64082" x2="2316.14583" y2="526.64082"/><line class="cls-4" x1="2258.12139" y1="526.64081" x2="2310.11065" y2="526.64081"/><path class="cls-6" d="M2399.26147,758.53227a30.223,30.223,0,0,0-8.54736,4.75586l1.72022-4.75586-1.72022-4.75488A30.19645,30.19645,0,0,0,2399.26147,758.53227Z" transform="translate(-83.11567 -231.89146)"/><text class="cls-10" transform="translate(1652.3687 513.04262)">False</text><text class="cls-10" transform="translate(1953.46929 511.47475)">False</text><text class="cls-10" transform="translate(2265.54546 511.47475)">False</text><text class="cls-10" transform="translate(2262.40972 687.11635)">False</text><text class="cls-10" transform="translate(2627.80718 511.47475)">False</text><text class="cls-10" transform="translate(2585.46441 683.97964)">False</text><path class="cls-7" d="M1914.67876,810.28383" transform="translate(-83.11567 -231.89146)"/><polygon class="cls-4" points="2138.936 645.826 2002.5 702.282 2138.936 755.602 2278.508 700.714 2138.936 645.826"/><text class="cls-3" transform="translate(2042.398 702.16811)">Guess is close to Answer<tspan x="54.47852" y="22.58252">less than 50</tspan></text><path class="cls-6" d="M2263.48133,926.122" transform="translate(-83.11567 -231.89146)"/><path class="cls-7" d="M2222.05163,987.4937" transform="translate(-83.11567 -231.89146)"/><text class="cls-10" transform="translate(1771.01909 611.44106)">Equal</text><line class="cls-5" x1="2138.93596" y1="579.9606" x2="2138.93596" y2="645.0421"/><line class="cls-4" x1="2138.93596" y1="579.96059" x2="2138.93596" y2="639.00695"/><path class="cls-6" d="M2222.05164,876.93356a30.22224,30.22224,0,0,0-4.75586-8.54736l4.75586,1.72021,4.75488-1.72021A30.19521,30.19521,0,0,0,2222.05164,876.93356Z" transform="translate(-83.11567 -231.89146)"/><text class="cls-10" transform="translate(2075.12163 973.73452)">upper = guess - 1</text><polygon class="cls-13" points="2265.963 993.973 2026.023 995.541 2026.023 939.085 2265.963 937.517 2265.963 993.973"/><rect class="cls-2" x="1704.53654" y="975.1543" width="247.78018" height="47.04687"/><text class="cls-3" transform="translate(1748.8521 1003.28432)">Press button to restart</text><text class="cls-10" transform="translate(1748.26323 910.33901)">Close all LEDs light</text><rect class="cls-4" x="1707.673" y="879.49233" width="246.21195" height="47.04687"/><line class="cls-5" x1="1497.53032" y1="842.57175" x2="1497.53032" y2="880.27645"/><line class="cls-4" x1="1497.53032" y1="842.57174" x2="1497.53032" y2="874.24129"/><path class="cls-6" d="M1580.646,1112.16791a30.22246,30.22246,0,0,0-4.75586-8.54737l4.75586,1.72022,4.75488-1.72022A30.19568,30.19568,0,0,0,1580.646,1112.16791Z" transform="translate(-83.11567 -231.89146)"/><line class="cls-4" x1="1497.53032" y1="927.32332" x2="1497.53032" y2="969.90328"/><path class="cls-6" d="M1580.646,1207.8299a30.22151,30.22151,0,0,0-4.75586-8.54737l4.75586,1.72022,4.75488-1.72022A30.19472,30.19472,0,0,0,1580.646,1207.8299Z" transform="translate(-83.11567 -231.89146)"/><polygon class="cls-2" points="1619.852 1022.201 1372.072 1022.201 1370.504 976.723 1618.284 976.723 1619.852 1022.201"/><text class="cls-3" transform="translate(1403.84136 1003.28432)">Press button to restart</text><text class="cls-10" transform="translate(1414.22954 907.20327)">Close all LEDs light</text><rect class="cls-4" x="1373.64023" y="879.49233" width="246.21195" height="47.04687"/><rect class="cls-16" x="103.37477" y="1200.97927" width="315.21402" height="72.13853"/><text class="cls-3" transform="translate(175.00689 1247.15444)">Enable user to write</text><rect class="cls-16" x="2018.18233" y="1528.73912" width="244.64372" height="39.20572"/><text class="cls-3" transform="translate(2042.76909 1554.52651)">Enable user to write</text><path class="cls-5" d="M2541.19752,1320.88425" transform="translate(-83.11567 -231.89146)"/><rect class="cls-2" x="2334.96454" y="1055.1607" width="239.9391" height="51.81697"/><text class="cls-10" transform="translate(2351.148 1089.49135)">%lower &lt;<tspan class="cls-6" x="77.04199" y="0">= x &lt;= %upper</tspan></text><path class="cls-5" d="M2528.00891,1283.10666" transform="translate(-83.11567 -231.89146)"/><path class="cls-5" d="M2541.19752,1334.54883" transform="translate(-83.11567 -231.89146)"/><line class="cls-4" x1="2449.44524" y1="900.66341" x2="2449.44524" y2="935.40224"/><path class="cls-6" d="M2532.56091,1173.32886a30.2214,30.2214,0,0,0-4.75586-8.54737l4.75586,1.72022,4.75489-1.72022A30.19513,30.19513,0,0,0,2532.56091,1173.32886Z" transform="translate(-83.11567 -231.89146)"/><line class="cls-4" x1="2451.01348" y1="997.89364" x2="2451.01348" y2="1049.88296"/><path class="cls-6" d="M2534.12915,1287.80957a30.22134,30.22134,0,0,0-4.75586-8.54736l4.75586,1.72021,4.75488-1.72021A30.195,30.195,0,0,0,2534.12915,1287.80957Z" transform="translate(-83.11567 -231.89146)"/><path class="cls-5" d="M2531.64037,1879.75355" transform="translate(-83.11567 -231.89146)"/><path class="cls-5" d="M2531.00488,1879.79984" transform="translate(-83.11567 -231.89146)"/><polygon class="cls-4" points="2447.877 647.394 2311.441 700.714 2447.877 757.17 2585.881 697.578 2447.877 647.394"/><text class="cls-3" transform="translate(2351.33941 702.16811)">Guess is close to Answer<tspan x="54.47852" y="22.58252">less than 50</tspan></text><path class="cls-6" d="M2572.42243,927.69021" transform="translate(-83.11567 -231.89146)"/><path class="cls-7" d="M2530.99274,989.06193" transform="translate(-83.11567 -231.89146)"/><line class="cls-5" x1="2447.87707" y1="757.82891" x2="2447.87707" y2="825.38843"/><line class="cls-4" x1="2447.87712" y1="757.82891" x2="2447.87712" y2="819.35326"/><path class="cls-6" d="M2530.9928,1057.27991a30.221,30.221,0,0,0-4.75586-8.54737l4.75586,1.72019,4.75476-1.72019A30.19414,30.19414,0,0,0,2530.9928,1057.27991Z" transform="translate(-83.11567 -231.89146)"/><line class="cls-5" x1="2447.87707" y1="581.52883" x2="2447.87707" y2="646.61033"/><line class="cls-4" x1="2447.87712" y1="581.52883" x2="2447.87712" y2="640.57519"/><path class="cls-6" d="M2530.9928,878.5018a30.22175,30.22175,0,0,0-4.75586-8.54736l4.75586,1.72021,4.75476-1.72021A30.1949,30.1949,0,0,0,2530.9928,878.5018Z" transform="translate(-83.11567 -231.89146)"/><polygon class="cls-17" points="2574.904 899.879 2334.965 901.448 2334.965 826.173 2574.904 824.604 2574.904 899.879"/><text class="cls-10" transform="translate(2378.83843 976.87124)">lower = guess + 1</text><polygon class="cls-13" points="2574.904 997.11 2334.965 998.678 2334.965 942.221 2574.904 940.653 2574.904 997.11"/><text class="cls-10" transform="translate(2395.24077 855.11733)">set_Color(RED)<tspan x="0" y="22.58203">blink_LED(ON)</tspan></text><path class="cls-5" d="M2856.41154,1320.88425" transform="translate(-83.11567 -231.89146)"/><rect class="cls-2" x="2650.17857" y="1055.1607" width="239.9391" height="51.81697"/><text class="cls-10" transform="translate(2666.36187 1089.49135)">%lower &lt;<tspan class="cls-6" x="77.04199" y="0">= x &lt;= %upper</tspan></text><path class="cls-5" d="M2843.22293,1283.10666" transform="translate(-83.11567 -231.89146)"/><path class="cls-5" d="M2856.41154,1334.54883" transform="translate(-83.11567 -231.89146)"/><line class="cls-4" x1="2766.22759" y1="737.56762" x2="2766.22759" y2="1048.31472"/><path class="cls-6" d="M2849.34326,1286.24133a30.22134,30.22134,0,0,0-4.75586-8.54736l4.75586,1.72021,4.75488-1.72021A30.19529,30.19529,0,0,0,2849.34326,1286.24133Z" transform="translate(-83.11567 -231.89146)"/><path class="cls-5" d="M2846.85439,1879.75355" transform="translate(-83.11567 -231.89146)"/><path class="cls-5" d="M2846.21891,1879.79984" transform="translate(-83.11567 -231.89146)"/><polyline class="cls-4" points="2768.58 1673.016 1257.591 1671.448 1257.591 398.046 1490.737 399.024"/><path class="cls-6" d="M1579.88757,630.941a30.22171,30.22171,0,0,0-8.5672,4.72l1.74012-4.7486-1.7002-4.76206A30.195,30.195,0,0,0,1579.88757,630.941Z" transform="translate(-83.11567 -231.89146)"/><path class="cls-2" d="M3063,1260.86244" transform="translate(-83.11567 -231.89146)"/><text class="cls-3" transform="translate(2029.79155 1619.48354)">Guess = Input subfunction</text><polyline class="cls-13" points="2278.508 700.714 2302.032 700.714 2302.032 962.608 2271.997 962.922"/><path d="M2349.07812,1194.87665a30.22118,30.22118,0,0,0,8.49732-4.84485l-1.67053,4.77356,1.76977,4.73663A30.19521,30.19521,0,0,0,2349.07812,1194.87665Z" transform="translate(-83.11567 -231.89146)"/><polyline class="cls-13" points="2585.097 697.578 2610.973 697.578 2610.973 959.472 2580.939 959.786"/><path d="M2658.01929,1191.74023a30.22261,30.22261,0,0,0,8.49731-4.84491l-1.67065,4.77356,1.76977,4.7367A30.19155,30.19155,0,0,0,2658.01929,1191.74023Z" transform="translate(-83.11567 -231.89146)"/><text class="cls-10" transform="translate(2401.13433 792.22182)">True</text><line class="cls-4" x1="2140.5042" y1="897.52694" x2="2140.5042" y2="932.26577"/><path class="cls-6" d="M2223.61987,1170.19238a30.22216,30.22216,0,0,0-4.75586-8.54736l4.75586,1.72021,4.75489-1.72021A30.1959,30.1959,0,0,0,2223.61987,1170.19238Z" transform="translate(-83.11567 -231.89146)"/><line class="cls-5" x1="2138.93596" y1="756.26068" x2="2138.93596" y2="823.8202"/><line class="cls-4" x1="2138.93596" y1="756.26067" x2="2138.93596" y2="817.78506"/><path class="cls-6" d="M2222.05164,1055.71167a30.22265,30.22265,0,0,0-4.75586-8.54736l4.75586,1.72021,4.75488-1.72021A30.19562,30.19562,0,0,0,2222.05164,1055.71167Z" transform="translate(-83.11567 -231.89146)"/><polygon class="cls-17" points="2265.963 898.311 2026.023 899.879 2026.023 824.604 2265.963 823.036 2265.963 898.311"/><text class="cls-10" transform="translate(2080.61089 855.11733)">set_Color(RED)<tspan x="0.50781" y="22.58203">blink_LED(ON)</tspan></text><text class="cls-10" transform="translate(2092.19487 790.65346)">True</text><line class="cls-5" x1="1497.53032" y1="579.9606" x2="1495.96209" y2="659.94028"/><line class="cls-4" x1="1497.53032" y1="579.96059" x2="1496.08037" y2="653.90627"/><path class="cls-6" d="M1579.07776,891.83173a30.22234,30.22234,0,0,0-4.5874-8.639l4.72125,1.81311,4.78766-1.62665A30.19635,30.19635,0,0,0,1579.07776,891.83173Z" transform="translate(-83.11567 -231.89146)"/><line class="cls-5" x1="1497.53032" y1="703.06657" x2="1497.53032" y2="794.02385"/><line class="cls-4" x1="1497.53032" y1="703.06658" x2="1497.53032" y2="787.9887"/><path class="cls-6" d="M1580.646,1025.91531a30.222,30.222,0,0,0-4.75586-8.54736l4.75586,1.72022,4.75488-1.72022A30.19521,30.19521,0,0,0,1580.646,1025.91531Z" transform="translate(-83.11567 -231.89146)"/><polygon class="cls-17" points="1618.284 705.419 1373.64 706.987 1373.64 661.509 1618.284 659.94 1618.284 705.419"/><text class="cls-10" transform="translate(1429.21196 690.45278)">blink_LED(OFF)</text><text class="cls-3" transform="translate(112.46587 223.73745)">Initialize <tspan class="cls-11" x="78.86816" y="0">global variable</tspan><tspan class="cls-18" x="201.03662" y="0" xml:space="preserve"> ifint=false, count_down=180, mode_state[2]={0}, chance=10</tspan><tspan x="-35.61426" y="22.58252">Initialize LCD and gpio 4b_1 ×2, 4b_2 ×4, 8b_2 ×8, 8b_3 ×8, </tspan><tspan class="cls-11" x="489.27002" y="22.58252">22 pins in total</tspan><tspan class="cls-12" x="612.13525" y="22.58252">, </tspan><tspan x="621.58203" y="22.58252" xml:space="preserve"> half of which </tspan><tspan x="-19.3457" y="45.16504">are used as </tspan><tspan class="cls-19" x="76.271" y="45.16504">input</tspan><tspan class="cls-18" x="119.34619" y="45.16504" xml:space="preserve"> and the others are used as </tspan><tspan class="cls-11" x="341.98682" y="45.16504">LEDs light visualizing</tspan><tspan x="527.08496" y="45.16504" xml:space="preserve"> which button you press</tspan><tspan x="144.13037" y="67.74756">Select </tspan><tspan class="cls-11" x="201.45117" y="67.74756">random number</tspan><tspan x="326.83838" y="67.74756" xml:space="preserve"> from time seed to be answer</tspan></text><rect class="cls-13" x="65.73728" y="200.44919" width="795.09208" height="100.36665"/><path class="cls-4" d="M1190.43007,488.17929c0,19.95447-34.22612,36.13077-78.3807,36.13077s-81.51715-16.1763-81.51715-36.13077,35.79435-36.13076,79.94892-36.13076S1190.43007,468.22482,1190.43007,488.17929Z" transform="translate(-83.11567 -231.89146)"/><text class="cls-3" transform="translate(1004.92827 263.24428)">restart</text><path class="cls-5" d="M1111.74553,524.86616" transform="translate(-83.11567 -231.89146)"/><line class="cls-5" x1="947.86607" y1="256.90543" x2="860.82936" y2="256.90543"/><line class="cls-4" x1="947.86608" y1="256.90544" x2="866.86452" y2="256.90544"/><path class="cls-6" d="M943.945,488.79689a30.22216,30.22216,0,0,0,8.54736-4.75586l-1.72021,4.75586,1.72021,4.75488A30.19587,30.19587,0,0,0,943.945,488.79689Z" transform="translate(-83.11567 -231.89146)"/><path class="cls-4" d="M1827.131,1565.55259c0,19.95447-34.22613,36.13076-78.3807,36.13076s-81.51716-16.17629-81.51716-36.13076,35.79436-36.13077,79.94893-36.13077S1827.131,1545.59812,1827.131,1565.55259Z" transform="translate(-83.11567 -231.89146)"/><text class="cls-3" transform="translate(1641.62944 1340.61831)">restart</text><path class="cls-5" d="M1748.44649,1602.23945" transform="translate(-83.11567 -231.89146)"/><polyline class="cls-4" points="1497.53 1022.985 1497.607 1091.287 1834.776 1091.287 1834.776 1022.201"/><path class="cls-5" d="M2308.76506,1545.49879" transform="translate(-83.11567 -231.89146)"/><rect class="cls-2" x="2018.18233" y="1312.4087" width="244.64372" height="46.92843"/><text class="cls-3" transform="translate(2109.27105 1342.31655)">You lose!!</text><path class="cls-5" d="M2307.95648,1591.24031" transform="translate(-83.11567 -231.89146)"/><text class="cls-3" transform="translate(2066.023 1236.1437)">Run out</text><polygon class="cls-4" points="2145.209 1141.387 2076.207 1182.161 2146.777 1222.934 2217.347 1183.729 2145.209 1141.387"/><text class="cls-3" transform="translate(2096.70952 1188.31948)">chance == 0</text><line class="cls-5" x1="2145.20888" y1="1358.51908" x2="2145.20888" y2="1385.06033"/><line class="cls-4" x1="2145.20891" y1="1358.51906" x2="2145.20891" y2="1379.02517"/><path class="cls-6" d="M2228.32458,1616.95178a30.22156,30.22156,0,0,0-4.75585-8.54736l4.75585,1.72021,4.75489-1.72021A30.19507,30.19507,0,0,0,2228.32458,1616.95178Z" transform="translate(-83.11567 -231.89146)"/><line class="cls-4" x1="2145.20891" y1="1430.72475" x2="2145.20891" y2="1452.91775"/><path class="cls-6" d="M2228.32458,1690.84436a30.2232,30.2232,0,0,0-4.75585-8.54736l4.75585,1.72021,4.75489-1.72021A30.19672,30.19672,0,0,0,2228.32458,1690.84436Z" transform="translate(-83.11567 -231.89146)"/><line class="cls-4" x1="2145.20891" y1="1568.7289" x2="2145.20891" y2="1587.78542"/><path class="cls-6" d="M2228.32458,1825.712a30.22312,30.22312,0,0,0-4.75585-8.54737l4.75585,1.72022,4.75489-1.72022A30.19663,30.19663,0,0,0,2228.32458,1825.712Z" transform="translate(-83.11567 -231.89146)"/><rect class="cls-2" x="2016.6141" y="1458.16882" width="247.78018" height="47.04687"/><text class="cls-3" transform="translate(2049.95269 1489.43569)">Press button to restart</text><text class="cls-10" transform="translate(2058.77202 1415.30874)">Close all LEDs light</text><rect class="cls-4" x="2018.18233" y="1384.46206" width="246.21195" height="47.04687"/><line class="cls-4" x1="2146.77715" y1="1292.72066" x2="2146.77715" y2="1305.50423"/><path class="cls-6" d="M2229.89282,1543.43085a30.22222,30.22222,0,0,0-4.75586-8.54737l4.75586,1.72022,4.75489-1.72022A30.196,30.196,0,0,0,2229.89282,1543.43085Z" transform="translate(-83.11567 -231.89146)"/><line class="cls-5" x1="2146.77711" y1="1223.59291" x2="2146.77711" y2="1247.24202"/><line class="cls-4" x1="2146.77715" y1="1223.59292" x2="2146.77715" y2="1241.20687"/><path class="cls-6" d="M2229.89282,1479.13348a30.22216,30.22216,0,0,0-4.75586-8.54736l4.75586,1.72022,4.75489-1.72022A30.1959,30.1959,0,0,0,2229.89282,1479.13348Z" transform="translate(-83.11567 -231.89146)"/><polygon class="cls-17" points="2262.826 1291.937 2018.182 1293.505 2018.182 1248.026 2262.826 1246.458 2262.826 1291.937"/><text class="cls-10" transform="translate(2073.75347 1276.96987)">blink_LED(OFF)</text><polyline class="cls-4" points="416.236 1357.802 508.762 1357.018 508.762 1653.413"/><line class="cls-13" x1="268.03881" y1="1538.14846" x2="268.03881" y2="1561.12551"/><path d="M351.15448,1799.05225a30.22126,30.22126,0,0,0-4.75586-8.54737l4.75586,1.72022,4.75488-1.72022A30.19521,30.19521,0,0,0,351.15448,1799.05225Z" transform="translate(-83.11567 -231.89146)"/><path class="cls-6" d="M911.01222,506.14007" transform="translate(-83.11567 -231.89146)"/><ellipse class="cls-13" cx="398.20182" cy="33.43281" rx="72.92265" ry="32.93281"/><text class="cls-20" transform="translate(1899.53472 108.51821)">Question</text><rect class="cls-13" x="65.73728" y="95.37785" width="795.09208" height="62.72916"/><polyline class="cls-13" points="2217.347 1183.729 2308.305 1182.161 2308.305 1548.342 2274.718 1548.342"/><path d="M2351.7981,1780.2334a30.223,30.223,0,0,0,8.54736-4.75586l-1.72022,4.75586,1.72022,4.75488A30.19645,30.19645,0,0,0,2351.7981,1780.2334Z" transform="translate(-83.11567 -231.89146)"/><polyline class="cls-4" points="2015.83 1483.261 1833.131 1483.261 1834.7 1221.366 1777.35 1221.509"/><path class="cls-6" d="M1854.43042,1453.41541a30.2227,30.2227,0,0,0,8.53552-4.7771l-1.70837,4.76013,1.73193,4.75055A30.19455,30.19455,0,0,0,1854.43042,1453.41541Z" transform="translate(-83.11567 -231.89146)"/><line class="cls-15" x1="2143.64065" y1="1103.74907" x2="2145.20888" y2="1141.38657"/><line class="cls-4" x1="2143.64067" y1="1103.74904" x2="2144.95757" y2="1135.35665"/><path class="cls-6" d="M2228.32458,1373.278a30.22389,30.22389,0,0,0-5.10754-8.342l4.82324,1.52075,4.6792-1.91669A30.19441,30.19441,0,0,0,2228.32458,1373.278Z" transform="translate(-83.11567 -231.89146)"/><text class="cls-10" transform="translate(2235.51519 1167.72964)">False</text><line class="cls-21" x1="2146.77711" y1="1634.59457" x2="2146.77711" y2="1672.23207"/><rect class="cls-1" x="2325.55521" y="1597.74119" width="244.64372" height="39.20572"/><path class="cls-5" d="M2482.74828,1793.63054" transform="translate(-83.11567 -231.89146)"/><path class="cls-5" d="M2474.45007,1823.6977" transform="translate(-83.11567 -231.89146)"/><path class="cls-5" d="M2515.95808,1879.75355" transform="translate(-83.11567 -231.89146)"/><path class="cls-5" d="M2515.3226,1879.79984" transform="translate(-83.11567 -231.89146)"/><rect class="cls-16" x="2323.98698" y="1531.87558" width="244.64372" height="39.20572"/><text class="cls-3" transform="translate(2348.57183 1557.66323)">Enable user to write</text><text class="cls-3" transform="translate(2335.59624 1622.61831)">Guess = Input subfunction</text><path class="cls-5" d="M2614.56971,1548.63525" transform="translate(-83.11567 -231.89146)"/><rect class="cls-2" x="2323.98698" y="1315.54516" width="244.64372" height="46.92843"/><text class="cls-3" transform="translate(2415.07573 1345.45327)">You lose!!</text><path class="cls-5" d="M2613.76113,1594.37677" transform="translate(-83.11567 -231.89146)"/><text class="cls-3" transform="translate(2371.82866 1239.28042)">Run out</text><polygon class="cls-4" points="2451.014 1144.523 2382.011 1185.297 2452.582 1226.071 2523.152 1186.865 2451.014 1144.523"/><text class="cls-3" transform="translate(2402.51323 1191.45424)">chance == 0</text><line class="cls-5" x1="2451.01352" y1="1361.65554" x2="2451.01352" y2="1388.19678"/><line class="cls-4" x1="2451.01348" y1="1361.65554" x2="2451.01348" y2="1382.16164"/><path class="cls-6" d="M2534.12915,1620.08826a30.2214,30.2214,0,0,0-4.75586-8.54737l4.75586,1.72022,4.75488-1.72022A30.1951,30.1951,0,0,0,2534.12915,1620.08826Z" transform="translate(-83.11567 -231.89146)"/><line class="cls-4" x1="2451.01348" y1="1433.86123" x2="2451.01348" y2="1456.05422"/><path class="cls-6" d="M2534.12915,1693.98083a30.22134,30.22134,0,0,0-4.75586-8.54736l4.75586,1.72022,4.75488-1.72022A30.195,30.195,0,0,0,2534.12915,1693.98083Z" transform="translate(-83.11567 -231.89146)"/><line class="cls-4" x1="2451.01348" y1="1571.86538" x2="2451.01348" y2="1590.9219"/><path class="cls-6" d="M2534.12915,1828.84851a30.223,30.223,0,0,0-4.75586-8.54736l4.75586,1.72021,4.75488-1.72021A30.19669,30.19669,0,0,0,2534.12915,1828.84851Z" transform="translate(-83.11567 -231.89146)"/><rect class="cls-2" x="2322.41875" y="1461.30527" width="247.78018" height="47.04687"/><text class="cls-3" transform="translate(2355.75737 1492.57241)">Press button to restart</text><text class="cls-10" transform="translate(2364.57671 1418.44643)">Close all LEDs light</text><rect class="cls-4" x="2323.98698" y="1387.59851" width="246.21195" height="47.04687"/><line class="cls-4" x1="2452.58171" y1="1295.85714" x2="2452.58171" y2="1308.64071"/><path class="cls-6" d="M2535.69739,1546.56732a30.22216,30.22216,0,0,0-4.75586-8.54736l4.75586,1.72021,4.75488-1.72021A30.19562,30.19562,0,0,0,2535.69739,1546.56732Z" transform="translate(-83.11567 -231.89146)"/><line class="cls-5" x1="2452.58175" y1="1226.72937" x2="2452.58175" y2="1250.37848"/><line class="cls-4" x1="2452.58171" y1="1226.72939" x2="2452.58171" y2="1244.34334"/><path class="cls-6" d="M2535.69739,1482.27a30.2212,30.2212,0,0,0-4.75586-8.54736l4.75586,1.72021,4.75488-1.72021A30.19467,30.19467,0,0,0,2535.69739,1482.27Z" transform="translate(-83.11567 -231.89146)"/><polygon class="cls-17" points="2568.631 1295.073 2323.987 1296.641 2323.987 1251.163 2568.631 1249.594 2568.631 1295.073"/><text class="cls-10" transform="translate(2379.55913 1280.10659)">blink_LED(OFF)</text><polyline class="cls-13" points="2523.152 1186.865 2614.109 1185.297 2614.109 1551.478 2580.522 1551.478"/><path d="M2657.60278,1783.36987a30.2214,30.2214,0,0,0,8.54737-4.75586l-1.72022,4.75586,1.72022,4.75489A30.19513,30.19513,0,0,0,2657.60278,1783.36987Z" transform="translate(-83.11567 -231.89146)"/><line class="cls-15" x1="2449.44529" y1="1106.88553" x2="2451.01352" y2="1144.52302"/><line class="cls-4" x1="2449.44524" y1="1106.88552" x2="2450.76226" y2="1138.49312"/><path class="cls-6" d="M2534.12915,1376.41449a30.22029,30.22029,0,0,0-5.10754-8.342l4.82336,1.52075,4.6792-1.91669A30.19469,30.19469,0,0,0,2534.12915,1376.41449Z" transform="translate(-83.11567 -231.89146)"/><text class="cls-10" transform="translate(2541.31987 1170.86635)">False</text><line class="cls-21" x1="2452.58175" y1="1637.73103" x2="2452.58175" y2="1672.23207"/><path class="cls-5" d="M2848.42262,1881.32178" transform="translate(-83.11567 -231.89146)"/><path class="cls-5" d="M2847.78713,1881.36807" transform="translate(-83.11567 -231.89146)"/><rect class="cls-1" x="2642.33746" y="1599.30942" width="244.64372" height="39.20572"/><path class="cls-5" d="M2799.53053,1795.19877" transform="translate(-83.11567 -231.89146)"/><path class="cls-5" d="M2791.23232,1825.26593" transform="translate(-83.11567 -231.89146)"/><path class="cls-5" d="M2832.74033,1881.32178" transform="translate(-83.11567 -231.89146)"/><path class="cls-5" d="M2832.10484,1881.36807" transform="translate(-83.11567 -231.89146)"/><rect class="cls-16" x="2640.76923" y="1533.44381" width="244.64372" height="39.20572"/><text class="cls-3" transform="translate(2665.35503 1559.23159)">Enable user to write</text><text class="cls-3" transform="translate(2652.37944 1624.18667)">Guess = Input subfunction</text><path class="cls-5" d="M2931.352,1550.20348" transform="translate(-83.11567 -231.89146)"/><rect class="cls-2" x="2640.76923" y="1317.11339" width="244.64372" height="46.92843"/><text class="cls-3" transform="translate(2731.85698 1347.02065)">You lose!!</text><path class="cls-5" d="M2930.54338,1595.945" transform="translate(-83.11567 -231.89146)"/><text class="cls-3" transform="translate(2688.61089 1240.84878)">Run out</text><polygon class="cls-4" points="2767.796 1146.091 2698.794 1186.865 2769.364 1227.639 2839.934 1188.433 2767.796 1146.091"/><text class="cls-3" transform="translate(2719.29741 1193.0226)">chance == 0</text><line class="cls-5" x1="2767.79577" y1="1363.22377" x2="2767.79577" y2="1389.76501"/><line class="cls-4" x1="2767.7957" y1="1363.22378" x2="2767.7957" y2="1383.72988"/><path class="cls-6" d="M2850.91138,1621.65649a30.22159,30.22159,0,0,0-4.75586-8.54736l4.75586,1.72022,4.75488-1.72022A30.1948,30.1948,0,0,0,2850.91138,1621.65649Z" transform="translate(-83.11567 -231.89146)"/><line class="cls-4" x1="2767.7957" y1="1435.42946" x2="2767.7957" y2="1457.62246"/><path class="cls-6" d="M2850.91138,1695.54907a30.22159,30.22159,0,0,0-4.75586-8.54736l4.75586,1.72021,4.75488-1.72021A30.1948,30.1948,0,0,0,2850.91138,1695.54907Z" transform="translate(-83.11567 -231.89146)"/><line class="cls-4" x1="2767.7957" y1="1573.43361" x2="2767.7957" y2="1592.49013"/><path class="cls-6" d="M2850.91138,1830.41675a30.22342,30.22342,0,0,0-4.75586-8.54737l4.75586,1.72022,4.75488-1.72022A30.19664,30.19664,0,0,0,2850.91138,1830.41675Z" transform="translate(-83.11567 -231.89146)"/><rect class="cls-2" x="2639.201" y="1462.8735" width="247.78018" height="47.04687"/><text class="cls-3" transform="translate(2672.53862 1494.13979)">Press button to restart</text><text class="cls-10" transform="translate(2681.35991 1420.01479)">Close all LEDs light</text><rect class="cls-4" x="2640.76923" y="1389.16674" width="246.21195" height="47.04687"/><line class="cls-4" x1="2769.36406" y1="1297.42537" x2="2769.36406" y2="1310.20894"/><path class="cls-6" d="M2852.47974,1548.13556a30.22241,30.22241,0,0,0-4.75586-8.54736l4.75586,1.72021,4.75488-1.72021A30.19562,30.19562,0,0,0,2852.47974,1548.13556Z" transform="translate(-83.11567 -231.89146)"/><line class="cls-5" x1="2769.364" y1="1228.2976" x2="2769.364" y2="1251.94671"/><line class="cls-4" x1="2769.36406" y1="1228.29763" x2="2769.36406" y2="1245.91152"/><path class="cls-6" d="M2852.47974,1483.8382a30.22151,30.22151,0,0,0-4.75586-8.54737l4.75586,1.72022,4.75488-1.72022A30.19472,30.19472,0,0,0,2852.47974,1483.8382Z" transform="translate(-83.11567 -231.89146)"/><polygon class="cls-17" points="2885.413 1296.641 2640.769 1298.209 2640.769 1252.731 2885.413 1251.163 2885.413 1296.641"/><text class="cls-10" transform="translate(2696.34038 1281.67592)">blink_LED(OFF)</text><polyline class="cls-13" points="2839.934 1188.433 2930.892 1186.865 2930.892 1553.047 2897.304 1553.047"/><path d="M2974.385,1784.93811a30.22134,30.22134,0,0,0,8.54736-4.75586l-1.72021,4.75586,1.72021,4.75488A30.195,30.195,0,0,0,2974.385,1784.93811Z" transform="translate(-83.11567 -231.89146)"/><line class="cls-15" x1="2766.22754" y1="1106.88553" x2="2767.79577" y2="1146.09125"/><line class="cls-4" x1="2766.22759" y1="1106.88552" x2="2767.55449" y2="1140.06093"/><path class="cls-6" d="M2850.91138,1377.98273a30.22061,30.22061,0,0,0-5.09351-8.35047l4.8208,1.52875,4.68213-1.90887A30.198,30.198,0,0,0,2850.91138,1377.98273Z" transform="translate(-83.11567 -231.89146)"/><text class="cls-10" transform="translate(2858.1021 1172.43374)">False</text><line class="cls-21" x1="2767.92774" y1="1637.94655" x2="2767.79577" y2="1672.23207"/><polyline class="cls-4" points="2322.419 1487.965 2276.94 1487.965 2276.94 1439.35 1833.915 1439.35"/><polyline class="cls-4" points="2639.201 1486.397 2593.722 1486.397 2593.722 1440.918 2277.724 1439.35"/><rect class="cls-17" x="1707.673" y="648.96267" width="247.78018" height="76.84322"/><text class="cls-10" transform="translate(1763.18901 684.14712)">blink_LED(OFF)<tspan x="-8.43066" y="22.58252">set_Color(GREEN)</tspan></text><line class="cls-13" x1="1834.69951" y1="580.61904" x2="1834.69951" y2="642.92751"/><path d="M1917.81519,880.85413a30.22257,30.22257,0,0,0-4.75586-8.54737l4.75586,1.72022,4.75488-1.72022A30.19554,30.19554,0,0,0,1917.81519,880.85413Z" transform="translate(-83.11567 -231.89146)"/><line class="cls-13" x1="1833.91545" y1="726.54674" x2="1834.63176" y2="790.26516"/><path d="M1917.81519,1028.19138a30.22279,30.22279,0,0,0-4.85157-8.49335l4.77491,1.66662,4.73522-1.77352A30.19579,30.19579,0,0,0,1917.81519,1028.19138Z" transform="translate(-83.11567 -231.89146)"/><text class="cls-3" transform="translate(174.43999 1495.65542)">Initialize Timer setting<tspan x="18.4707" y="22.58203">and start counting </tspan></text><rect class="cls-22" x="873.37519" y="1135.11365" width="152.11821" height="42.34218"/><rect class="cls-16" x="704.00646" y="1135.11365" width="153.68644" height="42.34218"/><rect class="cls-2" x="704.00646" y="965.74492" width="321.48694" height="43.91041"/><path class="cls-5" d="M868.37033,1195.8156" transform="translate(-83.11567 -231.89146)"/><path class="cls-5" d="M1025.76778,1207.18518" transform="translate(-83.11567 -231.89146)"/><text class="cls-3" transform="translate(736.41167 994.04409)">the context displaying in LCD</text><path class="cls-5" d="M866.8021,1282.06819" transform="translate(-83.11567 -231.89146)"/><path class="cls-5" d="M1024.19955,1293.43778" transform="translate(-83.11567 -231.89146)"/><path class="cls-5" d="M790.00936,1391.21161" transform="translate(-83.11567 -231.89146)"/><path class="cls-2" d="M790.00936,1367.43091" transform="translate(-83.11567 -231.89146)"/><path class="cls-2" d="M1103.23111,1367.33783" transform="translate(-83.11567 -231.89146)"/><path class="cls-5" d="M937.41669,1376.30063" transform="translate(-83.11567 -231.89146)"/><path class="cls-7" d="M901.99924,1368.59843" transform="translate(-83.11567 -231.89146)"/><path class="cls-5" d="M888.18607,1367.077" transform="translate(-83.11567 -231.89146)"/><path class="cls-5" d="M901.99924,1368.59843" transform="translate(-83.11567 -231.89146)"/><path class="cls-5" d="M940.171,1365.49993" transform="translate(-83.11567 -231.89146)"/><path class="cls-5" d="M901.99924,1404.54557" transform="translate(-83.11567 -231.89146)"/><text class="cls-20" transform="translate(552.42534 985.15835)">Legend</text><path class="cls-14" d="M1027.56737,1369.84693" transform="translate(-83.11567 -231.89146)"/><text class="cls-3" transform="translate(716.25298 1163.52749)"><tspan xml:space="preserve">LED light  color</tspan></text><rect class="cls-23" x="704.00646" y="1221.36624" width="153.68644" height="42.34218"/><path class="cls-5" d="M937.41669,1462.55322" transform="translate(-83.11567 -231.89146)"/><path class="cls-7" d="M901.99924,1454.851" transform="translate(-83.11567 -231.89146)"/><path class="cls-5" d="M888.18607,1453.32955" transform="translate(-83.11567 -231.89146)"/><path class="cls-5" d="M901.99924,1454.851" transform="translate(-83.11567 -231.89146)"/><path class="cls-5" d="M940.171,1451.75253" transform="translate(-83.11567 -231.89146)"/><path class="cls-5" d="M901.99924,1490.79817" transform="translate(-83.11567 -231.89146)"/><text class="cls-3" transform="translate(716.25298 1249.78042)"><tspan xml:space="preserve">LED light  color</tspan></text><text class="cls-3" transform="translate(885.62163 1165.09585)"><tspan xml:space="preserve">LED light  color</tspan></text><rect class="cls-24" x="873.37519" y="1219.79801" width="152.11821" height="42.34218"/><path class="cls-2" d="M1103.23111,1452.02219" transform="translate(-83.11567 -231.89146)"/><path class="cls-14" d="M1027.56737,1454.53129" transform="translate(-83.11567 -231.89146)"/><text class="cls-3" transform="translate(885.62163 1249.78042)"><tspan xml:space="preserve">LED light  color</tspan></text><rect class="cls-1" x="704.00646" y="1306.05061" width="321.48694" height="47.04687"/><text class="cls-10" transform="translate(819.45366 1336.3146)">Subfuntion</text><rect class="cls-25" x="704.00646" y="1050.42929" width="321.48694" height="42.34218"/><text class="cls-3" transform="translate(777.1856 1077.16128)">the function of LCD</text><text class="cls-10" transform="translate(831.62017 1203.52358)">brighten</text><text class="cls-10" transform="translate(841.02788 1289.77651)">darken</text><polygon class="cls-26" points="1054.506 1603.23 676.562 1603.23 674.994 936.733 1056.074 936.733 1054.506 1603.23"/><text class="cls-10" transform="translate(724.14898 1484.16128)">if (checkint() == 0)<tspan x="-24.90625" y="22.58203" xml:space="preserve">             blink_LED(OFF)</tspan><tspan x="-48.72021" y="45.16504" xml:space="preserve">                  printf(&quot;You Lose!!&quot;)</tspan><tspan x="-139.95117" y="67.74707" xml:space="preserve">                                     printf(&quot;Press button to restart&quot;)</tspan></text><circle class="cls-27" cx="831.03301" cy="1426.80424" r="21.95521"/><text class="cls-10" transform="translate(879.06597 1436.49526)">stand for</text><rect class="cls-26" x="2039.35342" y="69.50207" width="487.71921" height="299.53173"/><circle class="cls-27" cx="2765.44343" cy="582.31294" r="11.76172"/><circle class="cls-27" cx="2450.22941" cy="1022.98528" r="11.76172"/><circle class="cls-27" cx="2141.2883" cy="1021.41705" r="11.76172"/><text x="-83.11567" y="-231.89146"/><polyline class="cls-13" points="2777.205 582.313 2920.198 582.313 2925.002 1003.661 1974.856 1003.661 1974.856 1221.366 1834.7 1221.366"/><text class="cls-10" transform="translate(2810.06499 566.34438)">True</text><polyline class="cls-13" points="2438.468 1022.985 2382.011 1022.201 2382.011 1003.661"/><polyline class="cls-13" points="2129.527 1022.985 2073.07 1022.201 2073.07 1003.661"/><text class="cls-10" transform="translate(2082.70757 1041.63296)">True</text><text class="cls-10" transform="translate(2379.10308 1043.20131)">True</text></svg>