<svg xmlns="http://www.w3.org/2000/svg" xmlns:xlink="http://www.w3.org/1999/xlink" viewBox="0 0 3140 2160"><defs><style>.cls-1,.cls-7{fill:#fff;}.cls-15,.cls-2{fill:#8bc53f;}.cls-16,.cls-2,.cls-21,.cls-22,.cls-23,.cls-24,.cls-25,.cls-3,.cls-5,.cls-7,.cls-8,.cls-9{stroke:#231815;}.cls-13,.cls-16,.cls-17,.cls-2,.cls-20,.cls-21,.cls-22,.cls-23,.cls-24,.cls-25,.cls-26,.cls-27,.cls-3,.cls-5,.cls-7,.cls-8,.cls-9{stroke-miterlimit:10;}.cls-3{fill:#ffef00;}.cls-10,.cls-4{font-size:18.81875px;}.cls-20,.cls-4,.cls-6{fill:#231815;}.cls-10,.cls-20,.cls-4{font-family:AdobeMingStd-Light-B5pc-H, Adobe Ming Std;}.cls-13,.cls-26,.cls-5{fill:none;}.cls-8{fill:#3fa8f4;}.cls-9{fill:#fbed21;}.cls-11,.cls-16,.cls-19{fill:red;}.cls-12,.cls-18{letter-spacing:0.00003em;}.cls-12{fill:#000;}.cls-13,.cls-17,.cls-20,.cls-26,.cls-27{stroke:#000;}.cls-14{fill:#e63828;}.cls-17{fill:#c59b6d;}.cls-19{letter-spacing:-0.00003em;}.cls-20{font-size:31.36458px;stroke-width:1.2px;}.cls-22{fill:#009ee7;}.cls-23{fill:url(#蘭花_2);}.cls-24{fill:url(#天空_2);}.cls-25{fill:#c69c6d;}.cls-26{stroke-width:2px;}.cls-27{fill:#8cc63f;}</style><linearGradient id="蘭花_2" x1="787.12214" y1="1474.42879" x2="940.80857" y2="1474.42879" gradientUnits="userSpaceOnUse"><stop offset="0" stop-color="#ff7bac"/><stop offset="0.21596" stop-color="#ff7bac" stop-opacity="0.76266"/><stop offset="0.6041" stop-color="#ff7bac" stop-opacity="0.35634"/><stop offset="0.87374" stop-color="#ff7bac" stop-opacity="0.09981"/><stop offset="1" stop-color="#ff7bac" stop-opacity="0"/></linearGradient><linearGradient id="天空_2" x1="956.49086" y1="1472.86056" x2="1108.60907" y2="1472.86056" gradientUnits="userSpaceOnUse"><stop offset="0" stop-color="#cce0f4"/><stop offset="0.06405" stop-color="#c3dcf2"/><stop offset="0.17063" stop-color="#a9d2ee"/><stop offset="0.30655" stop-color="#80c2e7"/><stop offset="0.46487" stop-color="#47acde"/><stop offset="0.56742" stop-color="#1e9cd7"/><stop offset="0.86517" stop-color="#0075be"/><stop offset="0.99438" stop-color="#005b97"/></linearGradient></defs><g id="圖層_2" data-name="圖層 2"><rect class="cls-1" width="3140" height="2160"/></g><g id="圖層_1" data-name="圖層 1"><rect class="cls-2" x="787.12214" y="1688.49205" width="321.48694" height="112.91248"/><rect class="cls-2" x="2102.86623" y="1826.49619" width="244.64372" height="39.20572"/><rect class="cls-3" x="2731.72601" y="916.95012" width="239.9391" height="51.81697"/><text class="cls-4" transform="translate(460.64502 270.74805)">Start</text><polygon class="cls-3" points="503.481 1259.882 185.942 1260.472 185.942 1213.543 503.481 1212.954 503.481 1259.882"/><text class="cls-4" transform="translate(251.19189 1241.44922)">Press button to Start</text><polygon class="cls-5" points="424.84 1360.79 223.572 1360.79 263.078 1295.124 464.346 1295.124 424.84 1360.79"/><line class="cls-1" x1="351.15449" y1="1260.47155" x2="351.15449" y2="1295.12439"/><line class="cls-5" x1="351.15448" y1="1260.47156" x2="351.15448" y2="1289.08923"/><path class="cls-6" d="M351.15448,1295.12439a30.22216,30.22216,0,0,0-4.75586-8.54736l4.75586,1.72021,4.75488-1.72021A30.19611,30.19611,0,0,0,351.15448,1295.12439Z"/><text class="cls-4" transform="translate(281.80664 1334.91895)">Button Control</text><line class="cls-1" x1="1578.69984" y1="437.38821" x2="1579.07776" y2="497.42215"/><line class="cls-5" x1="1578.69983" y1="437.38821" x2="1579.03979" y2="491.38711"/><path class="cls-6" d="M1579.07776,497.42215a30.22227,30.22227,0,0,0-4.80957-8.51725l4.7666,1.69024,4.744-1.75011A30.19583,30.19583,0,0,0,1579.07776,497.42215Z"/><path class="cls-1" d="M1615.68129,445.17766"/><polygon class="cls-3" points="1741.007 435.728 1423.468 436.317 1423.468 372.748 1741.007 372.159 1741.007 435.728"/><text class="cls-4" transform="translate(1441.14063 401.38037)">%lower &lt;= x &lt;= %upper<tspan x="0" y="22.58252">%the number of chance you have</tspan></text><path class="cls-1" d="M1544.65686,379.76413"/><path class="cls-1" d="M1572.88325,437.118"/><path class="cls-1" d="M1709.82806,411.79"/><path class="cls-1" d="M1572.88325,437.118"/><path class="cls-1" d="M1586.16488,435.82"/><path class="cls-1" d="M486.02218,299.04119"/><polygon class="cls-3" points="642.712 620.558 325.173 621.147 325.173 574.219 642.712 573.629 642.712 620.558"/><text class="cls-4" transform="translate(429.94336 602.68066)">Select Mode:</text><polygon class="cls-5" points="588.694 812.444 339.996 811.092 379.502 745.427 628.2 746.779 588.694 812.444"/><line class="cls-1" x1="479.74926" y1="620.52813" x2="479.74926" y2="651.10859"/><line class="cls-5" x1="479.74927" y1="620.52812" x2="479.74927" y2="645.07343"/><path class="cls-6" d="M479.74927,651.10859a30.22189,30.22189,0,0,0-4.75586-8.54736l4.75586,1.72021,4.75487-1.72021A30.19533,30.19533,0,0,0,479.74927,651.10859Z"/><text class="cls-4" transform="translate(402.25146 784.69531)">Button 9 or Button 8 </text><path class="cls-1" d="M588.82242,744.98552"/><path class="cls-1" d="M560.24429,668.03769"/><polygon class="cls-3" points="643.865 718.539 326.326 719.128 325.515 651.904 643.053 651.315 643.865 718.539"/><text class="cls-4" transform="translate(409.46924 677.37939)">9 ~ Normal Mode<tspan x="4.60107" y="22.58252">8 ~ Timer Mode</tspan></text><path class="cls-1" d="M588.01384,790.727"/><line class="cls-1" x1="479.74926" y1="718.54244" x2="479.74926" y2="745.20233"/><line class="cls-5" x1="479.74927" y1="718.54243" x2="479.74927" y2="739.16718"/><path class="cls-6" d="M479.74927,745.20233a30.22189,30.22189,0,0,0-4.75586-8.54736l4.75586,1.72021,4.75487-1.72021A30.19533,30.19533,0,0,0,479.74927,745.20233Z"/><line class="cls-1" x1="788.13955" y1="784.46986" x2="604.04972" y2="786.26378"/><line class="cls-5" x1="782.10468" y1="784.52867" x2="604.04973" y2="786.26378"/><path class="cls-6" d="M788.13954,784.46986a30.22231,30.22231,0,0,1-8.59329-4.67234l1.76646,4.73886-1.67378,4.77142A30.19573,30.19573,0,0,1,788.13954,784.46986Z"/><path class="cls-3" d="M788.13955,760.68916"/><path class="cls-3" d="M1099.79307,760.59607"/><path class="cls-1" d="M933.74728,772.122"/><path class="cls-7" d="M900.12942,761.85668"/><path class="cls-1" d="M886.31626,760.3352"/><path class="cls-1" d="M900.12942,761.85668"/><polygon class="cls-8" points="1099.443 821.704 787.789 821.797 789.326 749.888 1100.979 749.795 1099.443 821.704"/><text class="cls-4" transform="translate(865.41406 780.26563)">LEDs light reflects<tspan x="-16.71045" y="22.58252">which button you press</tspan></text><path class="cls-1" d="M934.93332,761.32133"/><path class="cls-7" d="M901.31546,751.056"/><path class="cls-1" d="M887.5023,749.53451"/><path class="cls-1" d="M901.31546,751.056"/><path class="cls-1" d="M895.9163,797.80382"/><text class="cls-4" transform="translate(667.56299 773.19824)">Meanwhile</text><polygon class="cls-5" points="285.267 1007.938 84 1007.938 123.506 942.273 324.773 942.273 285.267 1007.938"/><polyline class="cls-5" points="183.933 936.238 183.354 883.991 762.03 883.991 762.03 937.548"/><path class="cls-6" d="M183.99963,942.27289a30.22113,30.22113,0,0,1,4.66089-8.59952l-4.73651,1.77277-4.77365-1.66742A30.19622,30.19622,0,0,1,183.99963,942.27289Z"/><path class="cls-6" d="M762.03047,943.58328a30.22216,30.22216,0,0,0-4.75586-8.54736l4.75586,1.72021,4.75488-1.72021A30.19611,30.19611,0,0,0,762.03047,943.58328Z"/><text class="cls-4" transform="translate(172.03076 980.49902)">Button 9</text><polygon class="cls-5" points="565.98 1007.938 364.713 1007.938 404.219 942.273 605.486 942.273 565.98 1007.938"/><text class="cls-4" transform="translate(452.74316 980.49902)">Button 8</text><polygon class="cls-5" points="848.261 1007.938 646.994 1007.938 686.5 942.273 887.767 942.273 848.261 1007.938"/><text class="cls-4" transform="translate(702.0918 980.49902)">Button 8 &amp;&amp; 9</text><path class="cls-3" d="M190.42859,1442.87009"/><path class="cls-3" d="M502.08211,1442.777"/><path class="cls-1" d="M336.03633,1454.303"/><path class="cls-7" d="M302.41846,1444.03761"/><path class="cls-1" d="M288.6053,1442.51613"/><path class="cls-1" d="M302.41846,1444.03761"/><path class="cls-1" d="M337.22236,1443.50226"/><path class="cls-7" d="M303.6045,1433.23692"/><path class="cls-1" d="M289.79134,1431.71544"/><path class="cls-1" d="M303.6045,1433.23692"/><path class="cls-1" d="M298.20534,1479.98475"/><path class="cls-3" d="M1873.13826,1080.53768"/><path class="cls-7" d="M1985.12814,1081.70521"/><path class="cls-1" d="M1971.315,1080.18373"/><path class="cls-1" d="M1985.12814,1081.70521"/><path class="cls-7" d="M1986.31417,1070.90452"/><path class="cls-1" d="M1972.501,1069.383"/><path class="cls-1" d="M1986.31417,1070.90452"/><path class="cls-1" d="M1728.56675,1417.1086"/><path class="cls-1" d="M1664.223,1027.98323"/><rect class="cls-3" x="1456.7559" y="1026.7846" width="244.64372" height="46.97341"/><text class="cls-4" transform="translate(1547.84424 1056.69238)">You lose!!</text><path class="cls-1" d="M1663.41438,1073.72475"/><text class="cls-4" transform="translate(1498.99121 843.87988)">timeout</text><text class="cls-4" transform="translate(1431.48193 459.73145)"><tspan xml:space="preserve">Hint: the answer     is in given range</tspan></text><path class="cls-1" d="M1535.08092,506.38538"/><polygon class="cls-2" points="1742.174 564.072 1579.081 563.387 1428.938 562.757 1429.37 496.722 1742.187 498.695 1742.174 564.072"/><text class="cls-4" transform="translate(1471.50146 535.62988)">Guess = Input subfunction</text><path class="cls-1" d="M1576.58894,562.44123"/><polygon class="cls-5" points="1579.888 697.026 1439.505 756.964 1580.646 811.852 1726.491 755.396 1579.888 697.026"/><polygon class="cls-5" points="351.964 1539.165 203.741 1589.694 353.686 1654.071 500.136 1589.694 351.964 1539.165"/><text class="cls-4" transform="translate(1502.3501 758.41699)">timeout in timer mode</text><text class="cls-4" transform="translate(2174.94043 849.22754)"><tspan xml:space="preserve">Less   Than</tspan></text><text class="cls-4" transform="translate(2764.22363 881.54443)"><tspan xml:space="preserve">Overflow   Underflow</tspan></text><text class="cls-4" transform="translate(2468.73145 846.09326)"><tspan xml:space="preserve">Larger    Than</tspan></text><polygon class="cls-9" points="2038.569 1075.315 1792.357 1074.328 1792.357 1028.116 2038.569 1028.268 2038.569 1075.315"/><text class="cls-4" transform="translate(1847.30859 1057.14648)">Congratulations!</text><path class="cls-1" d="M1953.77273,1039.549"/><path class="cls-7" d="M1920.15487,1029.28361"/><path class="cls-1" d="M1906.3417,1027.76213"/><path class="cls-1" d="M1920.15487,1029.28361"/><path class="cls-1" d="M2232.25641,1317.74779"/><rect class="cls-3" x="2109.13911" y="1283.9157" width="239.9391" height="51.81697"/><text class="cls-10" transform="translate(2125.32227 1318.24609)">%lower &lt;<tspan class="cls-6" x="77.04199" y="0">= x &lt;= %upper</tspan></text><path class="cls-1" d="M2889.4272,954.985"/><text class="cls-4" transform="translate(2790.38867 948.6084)">Out of Range!!</text><path class="cls-1" d="M2219.06781,1279.9702"/><path class="cls-1" d="M1579.8876,697.02605"/><path class="cls-1" d="M1575.95345,562.48752"/><path class="cls-1" d="M2232.25641,1331.41237"/><path class="cls-5" d="M2847.43691,969.15148"/><line class="cls-1" x1="1917.81522" y1="1076.03144" x2="1917.81522" y2="1111.98206"/><line class="cls-5" x1="1917.81519" y1="1076.03143" x2="1917.81519" y2="1105.9469"/><path class="cls-6" d="M1917.81519,1111.98206a30.22257,30.22257,0,0,0-4.75586-8.54737l4.75586,1.72022,4.75488-1.72022A30.19554,30.19554,0,0,0,1917.81519,1111.98206Z"/><line class="cls-1" x1="479.74926" y1="298.25707" x2="479.74926" y2="328.05342"/><line class="cls-5" x1="479.74927" y1="298.25708" x2="479.74927" y2="322.01826"/><path class="cls-6" d="M479.74927,328.05342a30.22189,30.22189,0,0,0-4.75586-8.54736l4.75586,1.72021,4.75487-1.72021A30.19533,30.19533,0,0,0,479.74927,328.05342Z"/><text class="cls-4" transform="translate(168.58447 357.40576)">Define <tspan class="cls-11" x="58.86377" y="0">global variable</tspan><tspan x="181.03271" y="0" xml:space="preserve"> ifint=false, count_down=0, mode_state[2]={0}, chance=0</tspan><tspan x="14.02832" y="22.58252">Define gpio 4b_1 ×2, 4b_2 ×4, 8b_2 ×8, 8b_3 ×8, </tspan><tspan class="cls-11" x="441.0376" y="22.58252">22 pins in total </tspan><tspan class="cls-12" x="568.62598" y="22.58252">and LCD</tspan><tspan x="325.53906" y="67.74756"> </tspan></text><line class="cls-1" x1="479.74926" y1="531.92319" x2="479.74926" y2="574.26537"/><line class="cls-5" x1="479.74927" y1="531.92319" x2="479.74927" y2="568.23021"/><path class="cls-6" d="M479.74927,574.26537a30.22189,30.22189,0,0,0-4.75586-8.54736l4.75586,1.72021,4.75487-1.72021A30.19533,30.19533,0,0,0,479.74927,574.26537Z"/><line class="cls-1" x1="479.74926" y1="390.78258" x2="479.74926" y2="431.55654"/><line class="cls-5" x1="479.74927" y1="390.78258" x2="479.74927" y2="425.52138"/><path class="cls-6" d="M479.74927,431.55653a30.22183,30.22183,0,0,0-4.75586-8.54735l4.75586,1.72021,4.75487-1.72021A30.19527,30.19527,0,0,0,479.74927,431.55653Z"/><polyline class="cls-1" points="478.417 812.444 478.827 887.233 478.827 942.273"/><polyline class="cls-5" points="478.417 812.444 478.827 887.233 478.827 936.238"/><path class="cls-6" d="M478.82666,942.27289a30.22181,30.22181,0,0,0-4.75586-8.54737l4.75586,1.72022,4.75488-1.72022A30.19576,30.19576,0,0,0,478.82666,942.27289Z"/><text class="cls-10" transform="translate(690.84229 923.91357)"><tspan xml:space="preserve">Invalid     Input</tspan></text><polyline class="cls-13" points="760.462 1008.665 760.462 1065.905 945.513 1065.905 945.513 846.353 484.216 845.579"/><path d="M478.181,845.569a30.22171,30.22171,0,0,0,8.55533-4.74149l-1.72819,4.753,1.71224,4.75776A30.19552,30.19552,0,0,0,478.181,845.569Z"/><path class="cls-13" d="M287.64121,1138.04368c-45.47864-45.47864,3.13646-89.389,3.13646-89.389H111.21546s-44.69453,43.91041.78411,89.38905Z"/><text class="cls-10" transform="translate(111.89746 1100.18652)">mode_state[0] = 1</text><line class="cls-13" x1="183.35397" y1="1008.66479" x2="183.35397" y2="1042.61948"/><path d="M183.354,1048.65463a30.22028,30.22028,0,0,0-4.75586-8.54736l4.75586,1.72021,4.75489-1.72021A30.19622,30.19622,0,0,0,183.354,1048.65463Z"/><path class="cls-13" d="M584.03649,1138.04368c-45.47864-45.47864,3.13645-89.389,3.13645-89.389H407.61073s-44.69453,43.91041.78411,89.38905Z"/><text class="cls-10" transform="translate(408.29346 1100.18652)">mode_state[1] = 1</text><line class="cls-13" x1="479.74927" y1="1007.88068" x2="479.74927" y2="1041.83536"/><path d="M479.74927,1047.87051a30.22216,30.22216,0,0,0-4.75586-8.54736l4.75586,1.72022,4.75487-1.72022A30.1956,30.1956,0,0,0,479.74927,1047.87051Z"/><line class="cls-13" x1="352.72272" y1="1654.77515" x2="352.70935" y2="1691.86621"/><path d="M352.70718,1697.90137a30.22377,30.22377,0,0,0-4.75277-8.54908l4.75525,1.72193,4.75549-1.71851A30.19717,30.19717,0,0,0,352.70718,1697.90137Z"/><line class="cls-13" x1="351.15448" y1="1505.00928" x2="351.15448" y2="1534.25928"/><path d="M351.15448,1540.29443a30.22134,30.22134,0,0,0-4.75586-8.54736l4.75586,1.72022,4.75488-1.72022A30.19529,30.19529,0,0,0,351.15448,1540.29443Z"/><line class="cls-14" x1="351.15449" y1="1360.78981" x2="351.15449" y2="1431.71544"/><line class="cls-5" x1="351.15448" y1="1360.78979" x2="351.15448" y2="1425.6803"/><path class="cls-6" d="M351.15448,1431.71545a30.22134,30.22134,0,0,0-4.75586-8.54736l4.75586,1.72022,4.75488-1.72022A30.19529,30.19529,0,0,0,351.15448,1431.71545Z"/><polygon class="cls-5" points="1834.677 1486.248 1633.41 1486.248 1672.916 1420.583 1874.183 1420.583 1834.677 1486.248"/><line class="cls-1" x1="1750.01472" y1="1323.87881" x2="1750.66035" y2="1420.58271"/><line class="cls-5" x1="1750.01477" y1="1323.87878" x2="1750.62012" y2="1414.54767"/><path class="cls-6" d="M1750.6604,1420.5827a30.22394,30.22394,0,0,0-4.81287-8.51538l4.76722,1.68842,4.74328-1.752A30.19522,30.19522,0,0,0,1750.6604,1420.5827Z"/><text class="cls-4" transform="translate(1691.64453 1460.37793)">Button Control</text><line class="cls-14" x1="1750.01472" y1="1486.97463" x2="1750.01472" y2="1529.31681"/><line class="cls-5" x1="1750.01477" y1="1486.97461" x2="1750.01477" y2="1523.28168"/><path class="cls-6" d="M1750.01477,1529.31683a30.22134,30.22134,0,0,0-4.75586-8.54736l4.75586,1.72022,4.75488-1.72022A30.195,30.195,0,0,0,1750.01477,1529.31683Z"/><path class="cls-1" d="M2176.94363,1790.49408"/><polyline class="cls-5" points="183.354 1138.828 183.354 1178.818 351.154 1178.818 351.014 1206.919"/><path class="cls-6" d="M350.98444,1212.95392a30.22227,30.22227,0,0,0-4.71323-8.57092l4.74722,1.74389,4.7634-1.69653A30.19645,30.19645,0,0,0,350.98444,1212.95392Z"/><polygon class="cls-3" points="505.049 1844.832 187.51 1845.421 187.51 1798.493 505.049 1797.903 505.049 1844.832"/><text class="cls-4" transform="translate(257.46484 1826.39844)">%The time you have</text><polyline class="cls-5" points="1580.646 367.497 1580.646 319.428 1212.112 319.428 1213.68 1886.089 349.586 1886.089 349.586 1845.315"/><path class="cls-6" d="M1580.646,373.53206a30.2217,30.2217,0,0,1,4.75586-8.54735l-4.75586,1.7202-4.75489-1.7202A30.19543,30.19543,0,0,1,1580.646,373.53206Z"/><polyline class="cls-5" points="479.749 1138.044 479.749 1178.818 350.37 1178.818"/><rect class="cls-13" x="235.10554" y="1697.90142" width="228.96143" height="70.5703"/><text class="cls-10" transform="translate(2157.53613 340.83301)">How to determine press one time?<tspan x="0" y="45.16504">We use while loop to restrain repeated </tspan><tspan x="0" y="67.74756">input data. </tspan><tspan x="0" y="112.9126">For instance, if user keep pressing the button, </tspan><tspan x="0" y="135.49512">input register value will meet while loop condition.</tspan><tspan x="0" y="158.07764">Therefore program will repeatedly read input </tspan><tspan x="0" y="180.66016">register we write in while loop until input register </tspan><tspan x="0" y="203.24268">value change to 0, in other words, user release </tspan><tspan x="0" y="225.8252" xml:space="preserve">the button.  </tspan></text><text/><text class="cls-10" transform="translate(282.40234 1596.88379)">mode_state[1] = 1</text><text class="cls-10" transform="translate(294.48096 1675.76172)">True</text><text class="cls-10" transform="translate(520.17236 1579.59863)">False</text><text class="cls-4" transform="translate(187.77441 1869.78906)"><tspan xml:space="preserve">Position : in  right      corner of LCD screen</tspan></text><path class="cls-6" d="M1727.147,755.185"/><polygon class="cls-5" points="2222.052 697.371 2102.866 756.964 2222.052 811.852 2341.237 758.532 2222.052 697.371"/><text class="cls-4" transform="translate(2139.05176 759.98535)">ans &lt; guess &lt;= upper</text><path class="cls-1" d="M2200.90626,697.02605"/><path class="cls-6" d="M2352.87038,748.91211"/><polygon class="cls-5" points="1917.815 698.94 1803.335 756.964 1917.815 811.852 2026.023 755.396 1917.815 698.94"/><text class="cls-4" transform="translate(1861.47461 761.55469)">guess == ans</text><path class="cls-1" d="M1909.21568,697.02605"/><path class="cls-6" d="M1956.10845,748.91211"/><polygon class="cls-5" points="2530.993 698.94 2399.262 758.532 2530.993 813.42 2662.724 758.532 2530.993 698.94"/><path class="cls-1" d="M2522.3932,698.59428"/><text/><path class="cls-1" d="M2414.27206,672.02146"/><text class="cls-4" transform="translate(2451.12891 761.55469)">lower &lt; = guess &lt; ans</text><line class="cls-5" x1="1917.89221" y1="1158.67639" x2="1917.82495" y2="1200.2265"/><path class="cls-6" d="M1917.81519,1206.26166a30.221,30.221,0,0,0-4.742-8.55506l4.75305,1.72791,4.75757-1.71253A30.19851,30.19851,0,0,0,1917.81519,1206.26166Z"/><line class="cls-5" x1="2225.18811" y1="1226.64862" x2="2225.18811" y2="1278.63794"/><path class="cls-6" d="M2225.18811,1284.6731a30.22208,30.22208,0,0,0-4.75586-8.54737l4.75586,1.72022,4.75488-1.72022A30.19579,30.19579,0,0,0,2225.18811,1284.6731Z"/><polyline class="cls-13" points="2662.724 758.532 2849.343 756.964 2849.343 910.917"/><path d="M2849.34326,916.95193a30.22175,30.22175,0,0,0-4.75586-8.54736l4.75586,1.72022,4.75488-1.72022A30.1957,30.1957,0,0,0,2849.34326,916.95193Z"/><line class="cls-15" x1="1579.07776" y1="564.856" x2="1579.07776" y2="697.02605"/><line class="cls-5" x1="1579.07776" y1="564.856" x2="1579.07776" y2="690.99089"/><path class="cls-6" d="M1579.07776,697.02605a30.22208,30.22208,0,0,0-4.75586-8.54737l4.75586,1.72022,4.75488-1.72022A30.19554,30.19554,0,0,0,1579.07776,697.02605Z"/><path class="cls-1" d="M2168.64542,1820.56125"/><path class="cls-1" d="M2210.15344,1876.6171"/><path class="cls-1" d="M2209.518,1876.66339"/><line class="cls-15" x1="1726.49128" y1="755.39582" x2="1803.3345" y2="756.96405"/><line class="cls-5" x1="1726.49133" y1="755.39581" x2="1797.30054" y2="756.8409"/><path class="cls-6" d="M1803.33447,756.96405a30.22075,30.22075,0,0,0-8.64258,4.58046l1.8169-4.71977-1.6228-4.789A30.195,30.195,0,0,0,1803.33447,756.96405Z"/><line class="cls-15" x1="2026.02301" y1="755.39582" x2="2102.86623" y2="756.96405"/><line class="cls-5" x1="2026.02307" y1="755.39581" x2="2096.83228" y2="756.8409"/><path class="cls-6" d="M2102.86621,756.96405a30.22062,30.22062,0,0,0-8.64258,4.58046l1.8169-4.71977-1.62281-4.789A30.19515,30.19515,0,0,0,2102.86621,756.96405Z"/><line class="cls-1" x1="2341.23703" y1="758.53227" x2="2399.26151" y2="758.53227"/><line class="cls-5" x1="2341.23706" y1="758.53227" x2="2393.22632" y2="758.53227"/><path class="cls-6" d="M2399.26147,758.53227a30.223,30.223,0,0,0-8.54736,4.75586l1.72022-4.75586-1.72022-4.75488A30.19645,30.19645,0,0,0,2399.26147,758.53227Z"/><text class="cls-10" transform="translate(1735.48438 744.93408)">False</text><text class="cls-10" transform="translate(2036.58496 743.36621)">False</text><text class="cls-10" transform="translate(2348.66113 743.36621)">False</text><text class="cls-10" transform="translate(2345.52539 919.00781)">False</text><text class="cls-10" transform="translate(2710.92285 743.36621)">False</text><text class="cls-10" transform="translate(2668.58008 915.87109)">False</text><path class="cls-7" d="M1914.67876,810.28383"/><polygon class="cls-5" points="2222.052 877.718 2085.616 934.174 2222.052 987.494 2361.624 932.606 2222.052 877.718"/><text class="cls-4" transform="translate(2125.51367 934.05957)">Guess is close to Answer<tspan x="54.47852" y="22.58252">less than 50</tspan></text><path class="cls-6" d="M2263.48133,926.122"/><path class="cls-7" d="M2222.05163,987.4937"/><text class="cls-10" transform="translate(1854.13477 843.33252)">Equal</text><line class="cls-1" x1="2222.05163" y1="811.85206" x2="2222.05163" y2="876.93356"/><line class="cls-5" x1="2222.05164" y1="811.85205" x2="2222.05164" y2="870.89841"/><path class="cls-6" d="M2222.05164,876.93356a30.22224,30.22224,0,0,0-4.75586-8.54736l4.75586,1.72021,4.75488-1.72021A30.19521,30.19521,0,0,0,2222.05164,876.93356Z"/><text class="cls-10" transform="translate(2158.2373 1205.62598)">upper = guess - 1</text><polygon class="cls-13" points="2349.078 1225.865 2109.139 1227.433 2109.139 1170.976 2349.078 1169.408 2349.078 1225.865"/><rect class="cls-3" x="1787.65221" y="1207.04576" width="247.78018" height="47.04687"/><text class="cls-4" transform="translate(1831.96777 1235.17578)">Press button to restart</text><text class="cls-10" transform="translate(1831.37891 1142.23047)">Close all LEDs light</text><rect class="cls-5" x="1790.78867" y="1111.38379" width="246.21195" height="47.04687"/><line class="cls-1" x1="1580.64599" y1="1074.46321" x2="1580.64599" y2="1112.1679"/><line class="cls-5" x1="1580.646" y1="1074.4632" x2="1580.646" y2="1106.13275"/><path class="cls-6" d="M1580.646,1112.16791a30.22246,30.22246,0,0,0-4.75586-8.54737l4.75586,1.72022,4.75488-1.72022A30.19568,30.19568,0,0,0,1580.646,1112.16791Z"/><line class="cls-5" x1="1580.646" y1="1159.21478" x2="1580.646" y2="1201.79474"/><path class="cls-6" d="M1580.646,1207.8299a30.22151,30.22151,0,0,0-4.75586-8.54737l4.75586,1.72022,4.75488-1.72022A30.19472,30.19472,0,0,0,1580.646,1207.8299Z"/><polygon class="cls-3" points="1702.968 1254.093 1455.188 1254.093 1453.619 1208.614 1701.4 1208.614 1702.968 1254.093"/><text class="cls-4" transform="translate(1486.95703 1235.17578)">Press button to restart</text><text class="cls-10" transform="translate(1497.34521 1139.09473)">Close all LEDs light</text><rect class="cls-5" x="1456.7559" y="1111.38379" width="246.21195" height="47.04687"/><rect class="cls-16" x="186.49045" y="1432.87073" width="315.21402" height="72.13853"/><text class="cls-4" transform="translate(258.12256 1479.0459)">Enable user to write</text><rect class="cls-16" x="2101.298" y="1760.63058" width="244.64372" height="39.20572"/><text class="cls-4" transform="translate(2125.88477 1786.41797)">Enable user to write</text><path class="cls-1" d="M2541.19752,1320.88425"/><rect class="cls-3" x="2418.08022" y="1287.05216" width="239.9391" height="51.81697"/><text class="cls-10" transform="translate(2434.26367 1321.38281)">%lower &lt;<tspan class="cls-6" x="77.04199" y="0">= x &lt;= %upper</tspan></text><path class="cls-1" d="M2528.00891,1283.10666"/><path class="cls-1" d="M2541.19752,1334.54883"/><line class="cls-5" x1="2532.56091" y1="1132.55487" x2="2532.56091" y2="1167.2937"/><path class="cls-6" d="M2532.56091,1173.32886a30.2214,30.2214,0,0,0-4.75586-8.54737l4.75586,1.72022,4.75489-1.72022A30.19513,30.19513,0,0,0,2532.56091,1173.32886Z"/><line class="cls-5" x1="2534.12915" y1="1229.7851" x2="2534.12915" y2="1281.77441"/><path class="cls-6" d="M2534.12915,1287.80957a30.22134,30.22134,0,0,0-4.75586-8.54736l4.75586,1.72021,4.75488-1.72021A30.195,30.195,0,0,0,2534.12915,1287.80957Z"/><path class="cls-1" d="M2531.64037,1879.75355"/><path class="cls-1" d="M2531.00488,1879.79984"/><polygon class="cls-5" points="2530.993 879.286 2394.557 932.606 2530.993 989.062 2668.997 929.469 2530.993 879.286"/><text class="cls-4" transform="translate(2434.45508 934.05957)">Guess is close to Answer<tspan x="54.47852" y="22.58252">less than 50</tspan></text><path class="cls-6" d="M2572.42243,927.69021"/><path class="cls-7" d="M2530.99274,989.06193"/><line class="cls-1" x1="2530.99274" y1="989.72037" x2="2530.99274" y2="1057.27989"/><line class="cls-5" x1="2530.9928" y1="989.72037" x2="2530.9928" y2="1051.24472"/><path class="cls-6" d="M2530.9928,1057.27991a30.221,30.221,0,0,0-4.75586-8.54737l4.75586,1.72019,4.75476-1.72019A30.19414,30.19414,0,0,0,2530.9928,1057.27991Z"/><line class="cls-1" x1="2530.99274" y1="813.42029" x2="2530.99274" y2="878.50179"/><line class="cls-5" x1="2530.9928" y1="813.42029" x2="2530.9928" y2="872.46664"/><path class="cls-6" d="M2530.9928,878.5018a30.22175,30.22175,0,0,0-4.75586-8.54736l4.75586,1.72021,4.75476-1.72021A30.1949,30.1949,0,0,0,2530.9928,878.5018Z"/><polygon class="cls-17" points="2658.019 1131.771 2418.08 1133.339 2418.08 1058.064 2658.019 1056.496 2658.019 1131.771"/><text class="cls-10" transform="translate(2461.9541 1208.7627)">lower = guess + 1</text><polygon class="cls-13" points="2658.019 1229.001 2418.08 1230.569 2418.08 1174.113 2658.019 1172.545 2658.019 1229.001"/><text class="cls-10" transform="translate(2478.35645 1087.00879)">set_Color(RED)<tspan x="0" y="22.58203">blink_LED(ON)</tspan></text><path class="cls-1" d="M2856.41154,1320.88425"/><rect class="cls-3" x="2733.29424" y="1287.05216" width="239.9391" height="51.81697"/><text class="cls-10" transform="translate(2749.47754 1321.38281)">%lower &lt;<tspan class="cls-6" x="77.04199" y="0">= x &lt;= %upper</tspan></text><path class="cls-1" d="M2843.22293,1283.10666"/><path class="cls-1" d="M2856.41154,1334.54883"/><line class="cls-5" x1="2849.34326" y1="969.45908" x2="2849.34326" y2="1280.20618"/><path class="cls-6" d="M2849.34326,1286.24133a30.22134,30.22134,0,0,0-4.75586-8.54736l4.75586,1.72021,4.75488-1.72021A30.19529,30.19529,0,0,0,2849.34326,1286.24133Z"/><path class="cls-1" d="M2846.85439,1879.75355"/><path class="cls-1" d="M2846.21891,1879.79984"/><polyline class="cls-5" points="2851.696 1904.908 1340.707 1903.339 1340.707 629.938 1573.852 630.916"/><path class="cls-6" d="M1579.88757,630.941a30.22171,30.22171,0,0,0-8.5672,4.72l1.74012-4.7486-1.7002-4.76206A30.195,30.195,0,0,0,1579.88757,630.941Z"/><path class="cls-3" d="M3063,1260.86244"/><text class="cls-4" transform="translate(2112.90723 1851.375)">Guess = Input subfunction</text><polyline class="cls-13" points="2361.624 932.606 2385.147 932.606 2385.147 1194.5 2355.113 1194.814"/><path d="M2349.07812,1194.87665a30.22118,30.22118,0,0,0,8.49732-4.84485l-1.67053,4.77356,1.76977,4.73663A30.19521,30.19521,0,0,0,2349.07812,1194.87665Z"/><polyline class="cls-13" points="2668.213 929.469 2694.089 929.469 2694.089 1191.363 2664.054 1191.677"/><path d="M2658.01929,1191.74023a30.22261,30.22261,0,0,0,8.49731-4.84491l-1.67065,4.77356,1.76977,4.7367A30.19155,30.19155,0,0,0,2658.01929,1191.74023Z"/><text class="cls-10" transform="translate(2484.25 1024.11328)">True</text><line class="cls-5" x1="2223.61987" y1="1129.4184" x2="2223.61987" y2="1164.15723"/><path class="cls-6" d="M2223.61987,1170.19238a30.22216,30.22216,0,0,0-4.75586-8.54736l4.75586,1.72021,4.75489-1.72021A30.1959,30.1959,0,0,0,2223.61987,1170.19238Z"/><line class="cls-1" x1="2222.05163" y1="988.15214" x2="2222.05163" y2="1055.71166"/><line class="cls-5" x1="2222.05164" y1="988.15213" x2="2222.05164" y2="1049.67651"/><path class="cls-6" d="M2222.05164,1055.71167a30.22265,30.22265,0,0,0-4.75586-8.54736l4.75586,1.72021,4.75488-1.72021A30.19562,30.19562,0,0,0,2222.05164,1055.71167Z"/><polygon class="cls-17" points="2349.078 1130.203 2109.139 1131.771 2109.139 1056.496 2349.078 1054.928 2349.078 1130.203"/><text class="cls-10" transform="translate(2163.72656 1087.00879)">set_Color(RED)<tspan x="0.50781" y="22.58203">blink_LED(ON)</tspan></text><text class="cls-10" transform="translate(2175.31055 1022.54492)">True</text><line class="cls-1" x1="1580.64599" y1="811.85206" x2="1579.07776" y2="891.83174"/><line class="cls-5" x1="1580.646" y1="811.85205" x2="1579.19604" y2="885.79773"/><path class="cls-6" d="M1579.07776,891.83173a30.22234,30.22234,0,0,0-4.5874-8.639l4.72125,1.81311,4.78766-1.62665A30.19635,30.19635,0,0,0,1579.07776,891.83173Z"/><line class="cls-1" x1="1580.64599" y1="934.95803" x2="1580.64599" y2="1025.91531"/><line class="cls-5" x1="1580.646" y1="934.95804" x2="1580.646" y2="1019.88016"/><path class="cls-6" d="M1580.646,1025.91531a30.222,30.222,0,0,0-4.75586-8.54736l4.75586,1.72022,4.75488-1.72022A30.19521,30.19521,0,0,0,1580.646,1025.91531Z"/><polygon class="cls-17" points="1701.4 937.31 1456.756 938.879 1456.756 893.4 1701.4 891.832 1701.4 937.31"/><text class="cls-10" transform="translate(1512.32764 922.34424)">blink_LED(OFF)</text><text class="cls-4" transform="translate(195.58154 455.62891)">Initialize <tspan class="cls-11" x="78.86816" y="0">global variable</tspan><tspan class="cls-18" x="201.03662" y="0" xml:space="preserve"> ifint=false, count_down=180, mode_state[2]={0}, chance=10</tspan><tspan x="-35.61426" y="22.58252">Initialize LCD and gpio 4b_1 ×2, 4b_2 ×4, 8b_2 ×8, 8b_3 ×8, </tspan><tspan class="cls-11" x="489.27002" y="22.58252">22 pins in total</tspan><tspan class="cls-12" x="612.13525" y="22.58252">, </tspan><tspan x="621.58203" y="22.58252" xml:space="preserve"> half of which </tspan><tspan x="-19.3457" y="45.16504">are used as </tspan><tspan class="cls-19" x="76.271" y="45.16504">input</tspan><tspan class="cls-18" x="119.34619" y="45.16504" xml:space="preserve"> and the others are used as </tspan><tspan class="cls-11" x="341.98682" y="45.16504">LEDs light visualizing</tspan><tspan x="527.08496" y="45.16504" xml:space="preserve"> which button you press</tspan><tspan x="144.13037" y="67.74756">Select </tspan><tspan class="cls-11" x="201.45117" y="67.74756">random number</tspan><tspan x="326.83838" y="67.74756" xml:space="preserve"> from time seed to be answer</tspan></text><rect class="cls-13" x="148.85295" y="432.34065" width="795.09208" height="100.36665"/><path class="cls-5" d="M1190.43007,488.17929c0,19.95447-34.22612,36.13077-78.3807,36.13077s-81.51715-16.1763-81.51715-36.13077,35.79435-36.13076,79.94892-36.13076S1190.43007,468.22482,1190.43007,488.17929Z"/><text class="cls-4" transform="translate(1088.04395 495.13574)">restart</text><path class="cls-1" d="M1111.74553,524.86616"/><line class="cls-1" x1="1030.98174" y1="488.79689" x2="943.94503" y2="488.79689"/><line class="cls-5" x1="1030.98175" y1="488.79689" x2="949.98019" y2="488.79689"/><path class="cls-6" d="M943.945,488.79689a30.22216,30.22216,0,0,0,8.54736-4.75586l-1.72021,4.75586,1.72021,4.75488A30.19587,30.19587,0,0,0,943.945,488.79689Z"/><path class="cls-5" d="M1827.131,1565.55259c0,19.95447-34.22613,36.13076-78.3807,36.13076s-81.51716-16.17629-81.51716-36.13076,35.79436-36.13077,79.94893-36.13077S1827.131,1545.59812,1827.131,1565.55259Z"/><text class="cls-4" transform="translate(1724.74512 1572.50977)">restart</text><path class="cls-1" d="M1748.44649,1602.23945"/><polyline class="cls-5" points="1580.646 1254.877 1580.723 1323.178 1917.892 1323.178 1917.892 1254.093"/><path class="cls-1" d="M2308.76506,1545.49879"/><rect class="cls-3" x="2101.298" y="1544.30016" width="244.64372" height="46.92843"/><text class="cls-4" transform="translate(2192.38672 1574.20801)">You lose!!</text><path class="cls-1" d="M2307.95648,1591.24031"/><text class="cls-4" transform="translate(2149.13867 1468.03516)">Run out</text><polygon class="cls-5" points="2228.325 1373.278 2159.322 1414.052 2229.893 1454.826 2300.463 1415.62 2228.325 1373.278"/><text class="cls-4" transform="translate(2179.8252 1420.21094)">chance == 0</text><line class="cls-1" x1="2228.32455" y1="1590.41054" x2="2228.32455" y2="1616.95178"/><line class="cls-5" x1="2228.32458" y1="1590.41052" x2="2228.32458" y2="1610.91663"/><path class="cls-6" d="M2228.32458,1616.95178a30.22156,30.22156,0,0,0-4.75585-8.54736l4.75585,1.72021,4.75489-1.72021A30.19507,30.19507,0,0,0,2228.32458,1616.95178Z"/><line class="cls-5" x1="2228.32458" y1="1662.61621" x2="2228.32458" y2="1684.8092"/><path class="cls-6" d="M2228.32458,1690.84436a30.2232,30.2232,0,0,0-4.75585-8.54736l4.75585,1.72021,4.75489-1.72021A30.19672,30.19672,0,0,0,2228.32458,1690.84436Z"/><line class="cls-5" x1="2228.32458" y1="1800.62036" x2="2228.32458" y2="1819.67688"/><path class="cls-6" d="M2228.32458,1825.712a30.22312,30.22312,0,0,0-4.75585-8.54737l4.75585,1.72022,4.75489-1.72022A30.19663,30.19663,0,0,0,2228.32458,1825.712Z"/><rect class="cls-3" x="2099.72977" y="1690.06028" width="247.78018" height="47.04687"/><text class="cls-4" transform="translate(2133.06836 1721.32715)">Press button to restart</text><text class="cls-10" transform="translate(2141.8877 1647.2002)">Close all LEDs light</text><rect class="cls-5" x="2101.298" y="1616.35351" width="246.21195" height="47.04687"/><line class="cls-5" x1="2229.89282" y1="1524.61212" x2="2229.89282" y2="1537.39569"/><path class="cls-6" d="M2229.89282,1543.43085a30.22222,30.22222,0,0,0-4.75586-8.54737l4.75586,1.72022,4.75489-1.72022A30.196,30.196,0,0,0,2229.89282,1543.43085Z"/><line class="cls-1" x1="2229.89278" y1="1455.48437" x2="2229.89278" y2="1479.13348"/><line class="cls-5" x1="2229.89282" y1="1455.48438" x2="2229.89282" y2="1473.09833"/><path class="cls-6" d="M2229.89282,1479.13348a30.22216,30.22216,0,0,0-4.75586-8.54736l4.75586,1.72022,4.75489-1.72022A30.1959,30.1959,0,0,0,2229.89282,1479.13348Z"/><polygon class="cls-17" points="2345.942 1523.828 2101.298 1525.396 2101.298 1479.918 2345.942 1478.349 2345.942 1523.828"/><text class="cls-10" transform="translate(2156.86914 1508.86133)">blink_LED(OFF)</text><polyline class="cls-5" points="499.352 1589.694 591.878 1588.91 591.878 1885.305"/><line class="cls-13" x1="351.15448" y1="1770.03992" x2="351.15448" y2="1793.01697"/><path d="M351.15448,1799.05225a30.22126,30.22126,0,0,0-4.75586-8.54737l4.75586,1.72022,4.75488-1.72022A30.19521,30.19521,0,0,0,351.15448,1799.05225Z"/><path class="cls-6" d="M911.01222,506.14007"/><ellipse class="cls-13" cx="481.31749" cy="265.32427" rx="72.92265" ry="32.93281"/><text class="cls-20" transform="translate(1982.65039 340.40967)">Question</text><rect class="cls-13" x="148.85295" y="327.26931" width="795.09208" height="62.72916"/><polyline class="cls-13" points="2300.463 1415.62 2391.42 1414.052 2391.42 1780.233 2357.833 1780.233"/><path d="M2351.7981,1780.2334a30.223,30.223,0,0,0,8.54736-4.75586l-1.72022,4.75586,1.72022,4.75488A30.19645,30.19645,0,0,0,2351.7981,1780.2334Z"/><polyline class="cls-5" points="2098.946 1715.152 1916.247 1715.152 1917.815 1453.258 1860.466 1453.4"/><path class="cls-6" d="M1854.43042,1453.41541a30.2227,30.2227,0,0,0,8.53552-4.7771l-1.70837,4.76013,1.73193,4.75055A30.19455,30.19455,0,0,0,1854.43042,1453.41541Z"/><line class="cls-15" x1="2226.75632" y1="1335.64053" x2="2228.32455" y2="1373.27803"/><line class="cls-5" x1="2226.75635" y1="1335.6405" x2="2228.07324" y2="1367.24811"/><path class="cls-6" d="M2228.32458,1373.278a30.22389,30.22389,0,0,0-5.10754-8.342l4.82324,1.52075,4.6792-1.91669A30.19441,30.19441,0,0,0,2228.32458,1373.278Z"/><text class="cls-10" transform="translate(2318.63086 1399.62109)">False</text><line class="cls-21" x1="2229.89278" y1="1866.48603" x2="2229.89278" y2="1904.12353"/><rect class="cls-2" x="2408.67088" y="1829.63265" width="244.64372" height="39.20572"/><path class="cls-1" d="M2482.74828,1793.63054"/><path class="cls-1" d="M2474.45007,1823.6977"/><path class="cls-1" d="M2515.95808,1879.75355"/><path class="cls-1" d="M2515.3226,1879.79984"/><rect class="cls-16" x="2407.10265" y="1763.76704" width="244.64372" height="39.20572"/><text class="cls-4" transform="translate(2431.6875 1789.55469)">Enable user to write</text><text class="cls-4" transform="translate(2418.71191 1854.50977)">Guess = Input subfunction</text><path class="cls-1" d="M2614.56971,1548.63525"/><rect class="cls-3" x="2407.10265" y="1547.43662" width="244.64372" height="46.92843"/><text class="cls-4" transform="translate(2498.19141 1577.34473)">You lose!!</text><path class="cls-1" d="M2613.76113,1594.37677"/><text class="cls-4" transform="translate(2454.94434 1471.17188)">Run out</text><polygon class="cls-5" points="2534.129 1376.414 2465.127 1417.188 2535.697 1457.962 2606.268 1418.757 2534.129 1376.414"/><text class="cls-4" transform="translate(2485.62891 1423.3457)">chance == 0</text><line class="cls-1" x1="2534.1292" y1="1593.54699" x2="2534.1292" y2="1620.08824"/><line class="cls-5" x1="2534.12915" y1="1593.547" x2="2534.12915" y2="1614.0531"/><path class="cls-6" d="M2534.12915,1620.08826a30.2214,30.2214,0,0,0-4.75586-8.54737l4.75586,1.72022,4.75488-1.72022A30.1951,30.1951,0,0,0,2534.12915,1620.08826Z"/><line class="cls-5" x1="2534.12915" y1="1665.75269" x2="2534.12915" y2="1687.94568"/><path class="cls-6" d="M2534.12915,1693.98083a30.22134,30.22134,0,0,0-4.75586-8.54736l4.75586,1.72022,4.75488-1.72022A30.195,30.195,0,0,0,2534.12915,1693.98083Z"/><line class="cls-5" x1="2534.12915" y1="1803.75684" x2="2534.12915" y2="1822.81335"/><path class="cls-6" d="M2534.12915,1828.84851a30.223,30.223,0,0,0-4.75586-8.54736l4.75586,1.72021,4.75488-1.72021A30.19669,30.19669,0,0,0,2534.12915,1828.84851Z"/><rect class="cls-3" x="2405.53442" y="1693.19673" width="247.78018" height="47.04687"/><text class="cls-4" transform="translate(2438.87305 1724.46387)">Press button to restart</text><text class="cls-10" transform="translate(2447.69238 1650.33789)">Close all LEDs light</text><rect class="cls-5" x="2407.10265" y="1619.48997" width="246.21195" height="47.04687"/><line class="cls-5" x1="2535.69739" y1="1527.7486" x2="2535.69739" y2="1540.53217"/><path class="cls-6" d="M2535.69739,1546.56732a30.22216,30.22216,0,0,0-4.75586-8.54736l4.75586,1.72021,4.75488-1.72021A30.19562,30.19562,0,0,0,2535.69739,1546.56732Z"/><line class="cls-1" x1="2535.69742" y1="1458.62083" x2="2535.69742" y2="1482.26994"/><line class="cls-5" x1="2535.69739" y1="1458.62085" x2="2535.69739" y2="1476.2348"/><path class="cls-6" d="M2535.69739,1482.27a30.2212,30.2212,0,0,0-4.75586-8.54736l4.75586,1.72021,4.75488-1.72021A30.19467,30.19467,0,0,0,2535.69739,1482.27Z"/><polygon class="cls-17" points="2651.746 1526.964 2407.103 1528.533 2407.103 1483.054 2651.746 1481.486 2651.746 1526.964"/><text class="cls-10" transform="translate(2462.6748 1511.99805)">blink_LED(OFF)</text><polyline class="cls-13" points="2606.268 1418.757 2697.225 1417.188 2697.225 1783.37 2663.638 1783.37"/><path d="M2657.60278,1783.36987a30.2214,30.2214,0,0,0,8.54737-4.75586l-1.72022,4.75586,1.72022,4.75489A30.19513,30.19513,0,0,0,2657.60278,1783.36987Z"/><line class="cls-15" x1="2532.56097" y1="1338.77699" x2="2534.1292" y2="1376.41448"/><line class="cls-5" x1="2532.56091" y1="1338.77698" x2="2533.87793" y2="1370.38458"/><path class="cls-6" d="M2534.12915,1376.41449a30.22029,30.22029,0,0,0-5.10754-8.342l4.82336,1.52075,4.6792-1.91669A30.19469,30.19469,0,0,0,2534.12915,1376.41449Z"/><text class="cls-10" transform="translate(2624.43555 1402.75781)">False</text><line class="cls-21" x1="2535.69742" y1="1869.62249" x2="2535.69742" y2="1904.12353"/><path class="cls-1" d="M2848.42262,1881.32178"/><path class="cls-1" d="M2847.78713,1881.36807"/><rect class="cls-2" x="2725.45313" y="1831.20088" width="244.64372" height="39.20572"/><path class="cls-1" d="M2799.53053,1795.19877"/><path class="cls-1" d="M2791.23232,1825.26593"/><path class="cls-1" d="M2832.74033,1881.32178"/><path class="cls-1" d="M2832.10484,1881.36807"/><rect class="cls-16" x="2723.8849" y="1765.33527" width="244.64372" height="39.20572"/><text class="cls-4" transform="translate(2748.4707 1791.12305)">Enable user to write</text><text class="cls-4" transform="translate(2735.49512 1856.07813)">Guess = Input subfunction</text><path class="cls-1" d="M2931.352,1550.20348"/><rect class="cls-3" x="2723.8849" y="1549.00485" width="244.64372" height="46.92843"/><text class="cls-4" transform="translate(2814.97266 1578.91211)">You lose!!</text><path class="cls-1" d="M2930.54338,1595.945"/><text class="cls-4" transform="translate(2771.72656 1472.74023)">Run out</text><polygon class="cls-5" points="2850.911 1377.983 2781.909 1418.757 2852.48 1459.531 2923.05 1420.325 2850.911 1377.983"/><text class="cls-4" transform="translate(2802.41309 1424.91406)">chance == 0</text><line class="cls-1" x1="2850.91145" y1="1595.11522" x2="2850.91145" y2="1621.65647"/><line class="cls-5" x1="2850.91138" y1="1595.11523" x2="2850.91138" y2="1615.62134"/><path class="cls-6" d="M2850.91138,1621.65649a30.22159,30.22159,0,0,0-4.75586-8.54736l4.75586,1.72022,4.75488-1.72022A30.1948,30.1948,0,0,0,2850.91138,1621.65649Z"/><line class="cls-5" x1="2850.91138" y1="1667.32092" x2="2850.91138" y2="1689.51392"/><path class="cls-6" d="M2850.91138,1695.54907a30.22159,30.22159,0,0,0-4.75586-8.54736l4.75586,1.72021,4.75488-1.72021A30.1948,30.1948,0,0,0,2850.91138,1695.54907Z"/><line class="cls-5" x1="2850.91138" y1="1805.32507" x2="2850.91138" y2="1824.38159"/><path class="cls-6" d="M2850.91138,1830.41675a30.22342,30.22342,0,0,0-4.75586-8.54737l4.75586,1.72022,4.75488-1.72022A30.19664,30.19664,0,0,0,2850.91138,1830.41675Z"/><rect class="cls-3" x="2722.31667" y="1694.76496" width="247.78018" height="47.04687"/><text class="cls-4" transform="translate(2755.6543 1726.03125)">Press button to restart</text><text class="cls-10" transform="translate(2764.47559 1651.90625)">Close all LEDs light</text><rect class="cls-5" x="2723.8849" y="1621.0582" width="246.21195" height="47.04687"/><line class="cls-5" x1="2852.47974" y1="1529.31683" x2="2852.47974" y2="1542.1004"/><path class="cls-6" d="M2852.47974,1548.13556a30.22241,30.22241,0,0,0-4.75586-8.54736l4.75586,1.72021,4.75488-1.72021A30.19562,30.19562,0,0,0,2852.47974,1548.13556Z"/><line class="cls-1" x1="2852.47967" y1="1460.18906" x2="2852.47967" y2="1483.83817"/><line class="cls-5" x1="2852.47974" y1="1460.18909" x2="2852.47974" y2="1477.80298"/><path class="cls-6" d="M2852.47974,1483.8382a30.22151,30.22151,0,0,0-4.75586-8.54737l4.75586,1.72022,4.75488-1.72022A30.19472,30.19472,0,0,0,2852.47974,1483.8382Z"/><polygon class="cls-17" points="2968.529 1528.533 2723.885 1530.101 2723.885 1484.622 2968.529 1483.054 2968.529 1528.533"/><text class="cls-10" transform="translate(2779.45605 1513.56738)">blink_LED(OFF)</text><polyline class="cls-13" points="2923.05 1420.325 3014.007 1418.757 3014.007 1784.938 2980.42 1784.938"/><path d="M2974.385,1784.93811a30.22134,30.22134,0,0,0,8.54736-4.75586l-1.72021,4.75586,1.72021,4.75488A30.195,30.195,0,0,0,2974.385,1784.93811Z"/><line class="cls-15" x1="2849.34322" y1="1338.77699" x2="2850.91145" y2="1377.98271"/><line class="cls-5" x1="2849.34326" y1="1338.77698" x2="2850.67017" y2="1371.95239"/><path class="cls-6" d="M2850.91138,1377.98273a30.22061,30.22061,0,0,0-5.09351-8.35047l4.8208,1.52875,4.68213-1.90887A30.198,30.198,0,0,0,2850.91138,1377.98273Z"/><text class="cls-10" transform="translate(2941.21777 1404.3252)">False</text><line class="cls-21" x1="2851.04342" y1="1869.83801" x2="2850.91145" y2="1904.12353"/><polyline class="cls-5" points="2405.534 1719.857 2360.056 1719.857 2360.056 1671.242 1917.031 1671.242"/><polyline class="cls-5" points="2722.317 1718.288 2676.838 1718.288 2676.838 1672.81 2360.84 1671.242"/><rect class="cls-17" x="1790.78867" y="880.85413" width="247.78018" height="76.84322"/><text class="cls-10" transform="translate(1846.30469 916.03857)">blink_LED(OFF)<tspan x="-8.43066" y="22.58252">set_Color(GREEN)</tspan></text><line class="cls-13" x1="1917.81519" y1="812.5105" x2="1917.81519" y2="874.81897"/><path d="M1917.81519,880.85413a30.22257,30.22257,0,0,0-4.75586-8.54737l4.75586,1.72022,4.75488-1.72022A30.19554,30.19554,0,0,0,1917.81519,880.85413Z"/><line class="cls-13" x1="1917.03113" y1="958.4382" x2="1917.74744" y2="1022.15662"/><path d="M1917.81519,1028.19138a30.22279,30.22279,0,0,0-4.85157-8.49335l4.77491,1.66662,4.73522-1.77352A30.19579,30.19579,0,0,0,1917.81519,1028.19138Z"/><text class="cls-4" transform="translate(257.55566 1727.54688)">Initialize Timer setting<tspan x="18.4707" y="22.58203">and start counting </tspan></text><rect class="cls-22" x="956.49086" y="1367.00511" width="152.11821" height="42.34218"/><rect class="cls-16" x="787.12214" y="1367.00511" width="153.68644" height="42.34218"/><rect class="cls-3" x="787.12214" y="1197.63638" width="321.48694" height="43.91041"/><path class="cls-1" d="M868.37033,1195.8156"/><path class="cls-1" d="M1025.76778,1207.18518"/><text class="cls-4" transform="translate(819.52734 1225.93555)">the context displaying in LCD</text><path class="cls-1" d="M866.8021,1282.06819"/><path class="cls-1" d="M1024.19955,1293.43778"/><path class="cls-1" d="M790.00936,1391.21161"/><path class="cls-3" d="M790.00936,1367.43091"/><path class="cls-3" d="M1103.23111,1367.33783"/><path class="cls-1" d="M937.41669,1376.30063"/><path class="cls-7" d="M901.99924,1368.59843"/><path class="cls-1" d="M888.18607,1367.077"/><path class="cls-1" d="M901.99924,1368.59843"/><path class="cls-1" d="M940.171,1365.49993"/><path class="cls-1" d="M901.99924,1404.54557"/><text class="cls-20" transform="translate(635.54102 1217.0498)">Legend</text><path class="cls-14" d="M1027.56737,1369.84693"/><text class="cls-4" transform="translate(799.36865 1395.41895)"><tspan xml:space="preserve">LED light  color</tspan></text><rect class="cls-23" x="787.12214" y="1453.2577" width="153.68644" height="42.34218"/><path class="cls-1" d="M937.41669,1462.55322"/><path class="cls-7" d="M901.99924,1454.851"/><path class="cls-1" d="M888.18607,1453.32955"/><path class="cls-1" d="M901.99924,1454.851"/><path class="cls-1" d="M940.171,1451.75253"/><path class="cls-1" d="M901.99924,1490.79817"/><text class="cls-4" transform="translate(799.36865 1481.67188)"><tspan xml:space="preserve">LED light  color</tspan></text><text class="cls-4" transform="translate(968.7373 1396.9873)"><tspan xml:space="preserve">LED light  color</tspan></text><rect class="cls-24" x="956.49086" y="1451.68947" width="152.11821" height="42.34218"/><path class="cls-3" d="M1103.23111,1452.02219"/><path class="cls-14" d="M1027.56737,1454.53129"/><text class="cls-4" transform="translate(968.7373 1481.67188)"><tspan xml:space="preserve">LED light  color</tspan></text><rect class="cls-2" x="787.12214" y="1537.94207" width="321.48694" height="47.04687"/><text class="cls-10" transform="translate(902.56934 1568.20605)">Subfuntion</text><rect class="cls-25" x="787.12214" y="1282.32075" width="321.48694" height="42.34218"/><text class="cls-4" transform="translate(860.30127 1309.05273)">the function of LCD</text><text class="cls-10" transform="translate(914.73584 1435.41504)">brighten</text><text class="cls-10" transform="translate(924.14355 1521.66797)">darken</text><polygon class="cls-26" points="1137.621 1835.121 759.678 1835.121 758.11 1168.624 1139.19 1168.624 1137.621 1835.121"/><text class="cls-10" transform="translate(807.26465 1716.05273)">if (checkint() == 0)<tspan x="-24.90625" y="22.58203" xml:space="preserve">             blink_LED(OFF)</tspan><tspan x="-48.72021" y="45.16504" xml:space="preserve">                  printf(&quot;You Lose!!&quot;)</tspan><tspan x="-139.95117" y="67.74707" xml:space="preserve">                                     printf(&quot;Press button to restart&quot;)</tspan></text><circle class="cls-27" cx="914.14868" cy="1658.6957" r="21.95521"/><text class="cls-10" transform="translate(962.18164 1668.38672)">stand for</text><rect class="cls-26" x="2122.46909" y="301.39353" width="487.71921" height="299.53173"/><circle class="cls-27" cx="2848.5591" cy="814.2044" r="11.76172"/><circle class="cls-27" cx="2533.34508" cy="1254.87674" r="11.76172"/><circle class="cls-27" cx="2224.40398" cy="1253.30851" r="11.76172"/><text/><polyline class="cls-13" points="2860.321 814.204 3003.313 814.204 3008.118 1235.552 2057.972 1235.552 2057.972 1453.258 1917.815 1453.258"/><text class="cls-10" transform="translate(2893.18066 798.23584)">True</text><polyline class="cls-13" points="2521.583 1254.877 2465.127 1254.093 2465.127 1235.552"/><polyline class="cls-13" points="2212.642 1254.877 2156.186 1254.093 2156.186 1235.552"/><text class="cls-10" transform="translate(2165.82324 1273.52441)">True</text><text class="cls-10" transform="translate(2462.21875 1275.09277)">True</text></g></svg>