<svg id="圖層_1" data-name="圖層 1" xmlns="http://www.w3.org/2000/svg" xmlns:xlink="http://www.w3.org/1999/xlink" viewBox="0 0 2636.00236 1730.30454"><defs><style>.cls-1,.cls-14{fill:#8cc63f;}.cls-2{font-size:53.19748px;}.cls-10,.cls-13,.cls-14,.cls-19,.cls-2,.cls-25{stroke:#000;}.cls-10,.cls-12,.cls-13,.cls-14,.cls-15,.cls-16,.cls-17,.cls-18,.cls-19,.cls-2,.cls-21,.cls-22,.cls-23,.cls-24,.cls-25,.cls-9{stroke-miterlimit:10;}.cls-2,.cls-25{stroke-width:2px;}.cls-19,.cls-2,.cls-4,.cls-7{font-family:AdobeMingStd-Light-B5pc-H, Adobe Ming Std;}.cls-19,.cls-3,.cls-5,.cls-7{fill:#231815;}.cls-3{letter-spacing:0.00001em;}.cls-4,.cls-7{font-size:21.27899px;}.cls-6{letter-spacing:0.00005em;}.cls-18,.cls-8{fill:#fff;}.cls-10,.cls-25,.cls-9{fill:none;}.cls-12,.cls-15,.cls-16,.cls-17,.cls-18,.cls-21,.cls-22,.cls-23,.cls-24,.cls-9{stroke:#231815;}.cls-11,.cls-23{fill:#8bc53f;}.cls-12{fill:#fcee21;}.cls-13,.cls-24{fill:#c69c6d;}.cls-15{fill:#009ee7;}.cls-16{fill:red;}.cls-17{fill:#ffef00;}.cls-19{font-size:35.46498px;stroke-width:1.2px;}.cls-20{fill:#e63828;}.cls-21{fill:url(#蘭花);}.cls-22{fill:url(#天空);}</style><linearGradient id="蘭花" x1="2236.90557" y1="377.60907" x2="2410.68398" y2="377.60907" gradientUnits="userSpaceOnUse"><stop offset="0" stop-color="#ff7bac"/><stop offset="0.21596" stop-color="#ff7bac" stop-opacity="0.76266"/><stop offset="0.6041" stop-color="#ff7bac" stop-opacity="0.35634"/><stop offset="0.87374" stop-color="#ff7bac" stop-opacity="0.09981"/><stop offset="1" stop-color="#ff7bac" stop-opacity="0"/></linearGradient><linearGradient id="天空" x1="2428.41648" y1="375.83582" x2="2600.42164" y2="375.83582" gradientUnits="userSpaceOnUse"><stop offset="0" stop-color="#cce0f4"/><stop offset="0.06405" stop-color="#c3dcf2"/><stop offset="0.17063" stop-color="#a9d2ee"/><stop offset="0.30655" stop-color="#80c2e7"/><stop offset="0.46487" stop-color="#47acde"/><stop offset="0.56742" stop-color="#1e9cd7"/><stop offset="0.86517" stop-color="#0075be"/><stop offset="0.99438" stop-color="#005b97"/></linearGradient></defs><rect class="cls-1" x="0.5" y="4.0463" width="580.62549" height="142.6333"/><path d="M833.6257,219.40985V361.04309H254V219.40985H833.6257m1-1H253V362.04309H834.6257V218.40985Z" transform="translate(-253 -214.86337)"/><text class="cls-2" transform="translate(138.05957 91.1962)">Timer1 ISR</text><polygon class="cls-1" points="761.224 4.045 1983.766 0.501 1983.766 143.135 761.224 146.678 761.224 4.045"/><path d="M2236.26575,215.86627V357.4995l-1221.54187,3.54066V219.407l1221.54187-3.54068m1-1.0029-1223.54187,3.54645V362.04306l1223.54187-3.54646V214.86337Z" transform="translate(-253 -214.86337)"/><text class="cls-2" transform="translate(820.76172 100.06241)">Checkint <tspan class="cls-3" x="223.47852" y="0">subfunction</tspan></text><text class="cls-4" transform="translate(1357.74316 56.06534)"><tspan xml:space="preserve">Input    : </tspan><tspan class="cls-5" x="81.00732" y="0">none</tspan><tspan x="125.58594" y="0" xml:space="preserve">   </tspan><tspan x="0" y="25.53467">Output : 0 or 1</tspan><tspan x="0" y="51.06934">Global variable :</tspan><tspan class="cls-5" x="153.5459" y="51.06934" xml:space="preserve"> ifint, count_down, mode_state[2], chance</tspan><tspan class="cls-6" x="541.51855" y="51.06934"> </tspan></text><text class="cls-7" transform="translate(225.23633 306.18839)">Start</text><path class="cls-8" d="M501.25488,558.4304" transform="translate(-253 -214.86337)"/><line class="cls-8" x1="248.25488" y1="342.6804" x2="248.25488" y2="401.19762"/><line class="cls-9" x1="248.25488" y1="342.6804" x2="248.25488" y2="395.16246"/><path class="cls-5" d="M501.25488,616.061a30.222,30.222,0,0,0-4.75586-8.54736l4.75586,1.72021,4.75488-1.72021A30.19573,30.19573,0,0,0,501.25488,616.061Z" transform="translate(-253 -214.86337)"/><line class="cls-8" x1="249.1415" y1="473.45752" x2="249.1415" y2="531.97474"/><line class="cls-9" x1="249.1415" y1="473.45752" x2="249.1415" y2="525.93959"/><path class="cls-5" d="M502.1415,746.83812a30.22164,30.22164,0,0,0-4.75586-8.54736l4.75586,1.72021,4.75489-1.72021A30.19587,30.19587,0,0,0,502.1415,746.83812Z" transform="translate(-253 -214.86337)"/><line class="cls-8" x1="247.36825" y1="604.67796" x2="247.36825" y2="663.19518"/><line class="cls-9" x1="247.36826" y1="604.67795" x2="247.36826" y2="657.16003"/><path class="cls-5" d="M500.36826,878.05856a30.22224,30.22224,0,0,0-4.75586-8.54736l4.75586,1.72021,4.75488-1.72021A30.195,30.195,0,0,0,500.36826,878.05856Z" transform="translate(-253 -214.86337)"/><ellipse class="cls-10" cx="248.25488" cy="295.6893" rx="78.90959" ry="46.9911"/><text class="cls-7" transform="translate(1033.83789 260.52725)">Start</text><ellipse class="cls-10" cx="1056.85649" cy="250.02813" rx="78.90959" ry="46.9911"/><text class="cls-7" transform="translate(230.55566 714.47842)">End</text><path class="cls-8" d="M501.25488,972.04076" transform="translate(-253 -214.86337)"/><ellipse class="cls-10" cx="248.25488" cy="709.29966" rx="78.90959" ry="46.9911"/><rect class="cls-10" x="137.42681" y="401.64093" width="219.88289" height="70.92997"/><rect class="cls-10" x="133.88031" y="532.86137" width="219.88289" height="70.92997"/><text class="cls-4" transform="translate(181.24902 444.48135)">clear Timer1 IP</text><text class="cls-4" transform="translate(199.05664 580.34268)">ifint = true</text><polyline class="cls-9" points="1224.429 451.292 1057.455 376.444 899.924 449.519 1057.743 509.809"/><polyline class="cls-9" points="1058.617 510.594 1224.429 451.292 1315.147 451.292 1316.92 947.802 1222.655 947.802 1172.833 947.802"/><path class="cls-5" d="M1419.79791,1162.665a30.2214,30.2214,0,0,0,8.54737-4.75586l-1.72022,4.75586,1.72022,4.75488A30.19486,30.19486,0,0,0,1419.79791,1162.665Z" transform="translate(-253 -214.86337)"/><text class="cls-7" transform="translate(1007.22949 435.22354)">ifint == true <tspan x="-3.35156" y="25.53467">in timer mode</tspan></text><path class="cls-8" d="M1310.4545,591.30755" transform="translate(-253 -214.86337)"/><line class="cls-11" x1="1058.617" y1="296.13261" x2="1058.31204" y2="376.44418"/><line class="cls-9" x1="1058.617" y1="296.13261" x2="1058.33496" y2="370.40906"/><path class="cls-5" d="M1311.31207,591.30755a30.22291,30.22291,0,0,0-4.72339-8.56535l4.74927,1.73825,4.76142-1.70214A30.19419,30.19419,0,0,0,1311.31207,591.30755Z" transform="translate(-253 -214.86337)"/><text class="cls-7" transform="translate(975.75391 963.65225)">count_down =50<tspan x="13.9375" y="25.53516">in timer mode</tspan></text><path class="cls-8" d="M1306.908,1112.6428" transform="translate(-253 -214.86337)"/><polyline class="cls-9" points="1059.516 1421.259 900.071 1360.062 1059.516 1286.492 1224.575 1361.835 1059.516 1420.373 1059.516 1492.36"/><path class="cls-5" d="M1312.51636,1713.25891a30.22159,30.22159,0,0,0-4.75586-8.54736l4.75586,1.72021,4.75488-1.72021A30.1948,30.1948,0,0,0,1312.51636,1713.25891Z" transform="translate(-253 -214.86337)"/><polyline class="cls-9" points="1442.538 1490.587 1442.538 1375.155 1187.464 1374.997"/><path class="cls-5" d="M1695.53821,1711.4856a30.2229,30.2229,0,0,1,4.75586-8.54737l-4.75586,1.72022-4.75488-1.72022A30.19685,30.19685,0,0,1,1695.53821,1711.4856Z" transform="translate(-253 -214.86337)"/><text class="cls-7" transform="translate(980.8418 1354.63272)">count_down &lt;= 0<tspan x="17.86328" y="25.53516">in timer mode</tspan></text><path class="cls-8" d="M1310.60118,1501.85112" transform="translate(-253 -214.86337)"/><line class="cls-11" x1="1057.74311" y1="510.69575" x2="1057.74311" y2="588.71872"/><line class="cls-9" x1="1057.7431" y1="510.69576" x2="1057.7431" y2="582.68356"/><path class="cls-5" d="M1310.7431,803.58209a30.22175,30.22175,0,0,0-4.75586-8.54736l4.75586,1.72021,4.75489-1.72021A30.19548,30.19548,0,0,0,1310.7431,803.58209Z" transform="translate(-253 -214.86337)"/><line class="cls-11" x1="1057.74311" y1="670.28818" x2="1057.74311" y2="760.72388"/><line class="cls-9" x1="1057.7431" y1="670.28818" x2="1057.7431" y2="754.68872"/><path class="cls-5" d="M1310.7431,975.58725a30.22216,30.22216,0,0,0-4.75586-8.54736l4.75586,1.72021,4.75489-1.72021A30.1959,30.1959,0,0,0,1310.7431,975.58725Z" transform="translate(-253 -214.86337)"/><line class="cls-11" x1="1059.51636" y1="810.37486" x2="1059.51636" y2="900.81057"/><line class="cls-9" x1="1059.51636" y1="810.37485" x2="1059.51636" y2="894.77542"/><path class="cls-5" d="M1312.51636,1115.674a30.22241,30.22241,0,0,0-4.75586-8.54736l4.75586,1.72021,4.75488-1.72021A30.19562,30.19562,0,0,0,1312.51636,1115.674Z" transform="translate(-253 -214.86337)"/><line class="cls-11" x1="1059.51636" y1="1040.89725" x2="1059.51636" y2="1122.46671"/><line class="cls-9" x1="1059.51636" y1="1040.89725" x2="1059.51636" y2="1116.43155"/><path class="cls-5" d="M1312.51636,1337.33008a30.2226,30.2226,0,0,0-4.75586-8.54737l4.75586,1.72022,4.75488-1.72022A30.19582,30.19582,0,0,0,1312.51636,1337.33008Z" transform="translate(-253 -214.86337)"/><line class="cls-11" x1="1059.51636" y1="1205.80942" x2="1059.51636" y2="1287.37888"/><line class="cls-9" x1="1059.51636" y1="1205.80942" x2="1059.51636" y2="1281.34372"/><path class="cls-5" d="M1312.51636,1502.24225a30.22241,30.22241,0,0,0-4.75586-8.54736l4.75586,1.72021,4.75488-1.72021A30.19562,30.19562,0,0,0,1312.51636,1502.24225Z" transform="translate(-253 -214.86337)"/><rect class="cls-9" x="905.24369" y="587.83209" width="299.6791" height="81.56946"/><rect class="cls-12" x="908.79018" y="761.61051" width="299.6791" height="81.56946"/><text class="cls-4" transform="translate(913.92383 636.44522)">count_down = count_down - 1</text><text class="cls-4" transform="translate(996.60938 808.67764)">%count_down</text><polyline class="cls-9" points="1059.516 1040.011 1220.882 972.627 1059.516 899.924 896.377 970.854 1059.516 1040.011"/><polygon class="cls-13" points="1203.15 1204.923 931.842 1206.696 931.842 1121.58 1203.15 1119.807 1203.15 1204.923"/><text class="cls-4" transform="translate(991.79492 1156.08292)">set_Color(RED)<tspan x="0.57422" y="25.53516">blink_LED(ON)</tspan></text><rect class="cls-9" x="907.01693" y="1497.5089" width="299.6791" height="81.56946"/><text class="cls-4" transform="translate(1002.55664 1546.12198)">ifint = false</text><line class="cls-8" x1="1057.74311" y1="1578.19174" x2="1057.74311" y2="1636.70896"/><line class="cls-9" x1="1057.7431" y1="1578.19168" x2="1057.7431" y2="1630.67386"/><path class="cls-5" d="M1310.7431,1851.57239a30.2214,30.2214,0,0,0-4.75586-8.54737l4.75586,1.72022,4.75489-1.72022A30.19513,30.19513,0,0,0,1310.7431,1851.57239Z" transform="translate(-253 -214.86337)"/><text class="cls-7" transform="translate(1027.86719 1692.35342)">Return 0</text><path class="cls-8" d="M1311.62974,1945.55454" transform="translate(-253 -214.86337)"/><ellipse class="cls-10" cx="1058.62974" cy="1682.81344" rx="78.90959" ry="46.9911"/><text class="cls-4" transform="translate(991.79834 1461.53506)">True</text><rect class="cls-9" x="1293.58525" y="1495.73565" width="299.6791" height="81.56946"/><text class="cls-4" transform="translate(1402.6084 1548.83487)">ifint = false</text><line class="cls-8" x1="1444.31142" y1="1576.41849" x2="1444.31142" y2="1634.93571"/><line class="cls-9" x1="1444.3114" y1="1576.41849" x2="1444.3114" y2="1628.90054"/><path class="cls-5" d="M1697.3114,1849.79907a30.22134,30.22134,0,0,0-4.75586-8.54736l4.75586,1.72021,4.75488-1.72021A30.19529,30.19529,0,0,0,1697.3114,1849.79907Z" transform="translate(-253 -214.86337)"/><text class="cls-7" transform="translate(1414.43555 1690.57999)">Return 1</text><path class="cls-8" d="M1698.19805,1943.78129" transform="translate(-253 -214.86337)"/><ellipse class="cls-10" cx="1445.19805" cy="1681.04019" rx="78.90959" ry="46.9911"/><text class="cls-4" transform="translate(1235.09326 1031.84268)">False</text><text class="cls-4" transform="translate(1235.09326 1414.86319)">False</text><text class="cls-4" transform="translate(1290.60449 1462.28995)"><tspan xml:space="preserve">in normal mode    </tspan><tspan class="cls-5" x="163.31299" y="0" xml:space="preserve">count_down  &gt; 0 in timer mode</tspan><tspan x="450.2334" y="0"> </tspan></text><text class="cls-4" transform="translate(981.57373 549.59366)">True</text><text class="cls-4" transform="translate(992.21338 1081.56827)">True</text><text class="cls-4" transform="translate(1235.77197 495.49014)">False</text><polyline class="cls-9" points="1171.633 993.192 1316.92 993.192 1314.864 1339.69 1183.473 1339.69"/><path class="cls-5" d="M1430.43744,1554.5531a30.22216,30.22216,0,0,0,8.54736-4.75586l-1.72021,4.75586,1.72021,4.75488A30.19587,30.19587,0,0,0,1430.43744,1554.5531Z" transform="translate(-253 -214.86337)"/><rect class="cls-14" x="2235.13232" y="632.07032" width="363.51607" height="120.58094"/><rect class="cls-15" x="2428.41648" y="256.14151" width="172.00517" height="47.87773"/><rect class="cls-16" x="2236.90557" y="256.14151" width="173.77842" height="47.87773"/><rect class="cls-17" x="2236.90557" y="64.6306" width="363.51607" height="49.65098"/><path class="cls-8" d="M2581.77563,277.43515" transform="translate(-253 -214.86337)"/><path class="cls-8" d="M2759.75021,290.29112" transform="translate(-253 -214.86337)"/><text class="cls-7" transform="translate(2273.54883 96.63077)">the context displaying in LCD</text><path class="cls-8" d="M2580.00238,374.96385" transform="translate(-253 -214.86337)"/><path class="cls-8" d="M2757.977,387.81983" transform="translate(-253 -214.86337)"/><path class="cls-8" d="M2493.17025,498.376" transform="translate(-253 -214.86337)"/><path class="cls-17" d="M2493.17025,471.48635" transform="translate(-253 -214.86337)"/><path class="cls-17" d="M2847.3406,471.38109" transform="translate(-253 -214.86337)"/><path class="cls-8" d="M2659.84867,481.51563" transform="translate(-253 -214.86337)"/><path class="cls-18" d="M2619.801,472.80651" transform="translate(-253 -214.86337)"/><path class="cls-8" d="M2604.182,471.08612" transform="translate(-253 -214.86337)"/><path class="cls-8" d="M2619.801,472.80651" transform="translate(-253 -214.86337)"/><path class="cls-8" d="M2662.963,469.30293" transform="translate(-253 -214.86337)"/><path class="cls-8" d="M2619.801,513.45314" transform="translate(-253 -214.86337)"/><text class="cls-19" transform="translate(2065.50977 86.58389)">Legend</text><path class="cls-20" d="M2761.78507,474.21822" transform="translate(-253 -214.86337)"/><text class="cls-7" transform="translate(2250.75195 288.27042)"><tspan xml:space="preserve">LED light  color</tspan></text><rect class="cls-21" x="2236.90557" y="353.67021" width="173.77842" height="47.87773"/><path class="cls-8" d="M2659.84867,579.04434" transform="translate(-253 -214.86337)"/><path class="cls-18" d="M2619.801,570.33521" transform="translate(-253 -214.86337)"/><path class="cls-8" d="M2604.182,568.61482" transform="translate(-253 -214.86337)"/><path class="cls-8" d="M2619.801,570.33521" transform="translate(-253 -214.86337)"/><path class="cls-8" d="M2662.963,566.83163" transform="translate(-253 -214.86337)"/><path class="cls-8" d="M2619.801,610.98185" transform="translate(-253 -214.86337)"/><text class="cls-7" transform="translate(2250.75195 385.79971)"><tspan xml:space="preserve">LED light  color</tspan></text><text class="cls-7" transform="translate(2442.26465 290.04385)"><tspan xml:space="preserve">LED light  color</tspan></text><rect class="cls-22" x="2428.41648" y="351.89696" width="172.00517" height="47.87773"/><path class="cls-17" d="M2847.3406,567.13655" transform="translate(-253 -214.86337)"/><path class="cls-20" d="M2761.78507,569.97367" transform="translate(-253 -214.86337)"/><text class="cls-7" transform="translate(2442.26465 385.79971)"><tspan xml:space="preserve">LED light  color</tspan></text><rect class="cls-23" x="2236.90557" y="449.42566" width="363.51607" height="53.19747"/><text class="cls-4" transform="translate(2367.44824 483.64639)">Subfuntion</text><rect class="cls-24" x="2236.90557" y="160.38605" width="363.51607" height="47.87773"/><text class="cls-7" transform="translate(2323.19922 190.61319)">the function of LCD</text><text class="cls-4" transform="translate(2381.20215 333.49503)">brighten</text><text class="cls-4" transform="translate(2391.8418 431.02432)">darken</text><polygon class="cls-25" points="2633.227 785.456 2205.874 785.456 2204.1 31.825 2635 31.825 2633.227 785.456"/><text class="cls-4" transform="translate(2266.77539 679.19522)">if (checkint() == 0)<tspan x="-58.12207" y="25.53467" xml:space="preserve">                    return count_down;</tspan></text><circle class="cls-14" cx="2380.53875" cy="585.96585" r="24.82549"/><text class="cls-4" transform="translate(2434.85156 596.92667)">stand for</text></svg>