<svg xmlns="http://www.w3.org/2000/svg" xmlns:xlink="http://www.w3.org/1999/xlink" viewBox="0 0 3140 2160"><defs><style>.cls-1,.cls-18{fill:#fff;}.cls-14,.cls-2{fill:#8cc63f;}.cls-3{font-size:53.19748px;}.cls-10,.cls-13,.cls-14,.cls-19,.cls-25,.cls-3{stroke:#000;}.cls-10,.cls-12,.cls-13,.cls-14,.cls-15,.cls-16,.cls-17,.cls-18,.cls-19,.cls-21,.cls-22,.cls-23,.cls-24,.cls-25,.cls-3,.cls-9{stroke-miterlimit:10;}.cls-25,.cls-3{stroke-width:2px;}.cls-19,.cls-3,.cls-5,.cls-8{font-family:AdobeMingStd-Light-B5pc-H, Adobe Ming Std;}.cls-19,.cls-4,.cls-6,.cls-8{fill:#231815;}.cls-4{letter-spacing:0.00001em;}.cls-5,.cls-8{font-size:21.27899px;}.cls-7{letter-spacing:0.00005em;}.cls-10,.cls-25,.cls-9{fill:none;}.cls-12,.cls-15,.cls-16,.cls-17,.cls-18,.cls-21,.cls-22,.cls-23,.cls-24,.cls-9{stroke:#231815;}.cls-11,.cls-23{fill:#8bc53f;}.cls-12{fill:#fcee21;}.cls-13,.cls-24{fill:#c69c6d;}.cls-15{fill:#009ee7;}.cls-16{fill:red;}.cls-17{fill:#ffef00;}.cls-19{font-size:35.46498px;stroke-width:1.2px;}.cls-20{fill:#e63828;}.cls-21{fill:url(#蘭花);}.cls-22{fill:url(#天空);}</style><linearGradient id="蘭花" x1="2489.90557" y1="592.47245" x2="2663.68398" y2="592.47245" gradientUnits="userSpaceOnUse"><stop offset="0" stop-color="#ff7bac"/><stop offset="0.21596" stop-color="#ff7bac" stop-opacity="0.76266"/><stop offset="0.6041" stop-color="#ff7bac" stop-opacity="0.35634"/><stop offset="0.87374" stop-color="#ff7bac" stop-opacity="0.09981"/><stop offset="1" stop-color="#ff7bac" stop-opacity="0"/></linearGradient><linearGradient id="天空" x1="2681.41648" y1="590.6992" x2="2853.42164" y2="590.6992" gradientUnits="userSpaceOnUse"><stop offset="0" stop-color="#cce0f4"/><stop offset="0.06405" stop-color="#c3dcf2"/><stop offset="0.17063" stop-color="#a9d2ee"/><stop offset="0.30655" stop-color="#80c2e7"/><stop offset="0.46487" stop-color="#47acde"/><stop offset="0.56742" stop-color="#1e9cd7"/><stop offset="0.86517" stop-color="#0075be"/><stop offset="0.99438" stop-color="#005b97"/></linearGradient></defs><g id="圖層_2" data-name="圖層 2"><rect class="cls-1" x="0.5" y="0.5" width="3139" height="2159"/><path d="M3139,1V2159H1V1H3139m1-1H0V2160H3140V0Z"/></g><g id="圖層_1" data-name="圖層 1"><rect class="cls-2" x="253.5" y="218.90967" width="580.62549" height="142.6333"/><path d="M833.6257,219.40985V361.04309H254V219.40985H833.6257m1-1H253V362.04309H834.6257V218.40985Z"/><text class="cls-3" transform="translate(391.05957 306.05957)">Timer1 ISR</text><polygon class="cls-2" points="1014.224 218.908 2236.766 215.365 2236.766 357.998 1014.224 361.542 1014.224 218.908"/><path d="M2236.26575,215.86627V357.4995l-1221.54187,3.54066V219.407l1221.54187-3.54068m1-1.0029-1223.54187,3.54645V362.04306l1223.54187-3.54646V214.86337Z"/><text class="cls-3" transform="translate(1073.76172 314.92578)">Checkint <tspan class="cls-4" x="223.47852" y="0">subfunction</tspan></text><text class="cls-5" transform="translate(1610.74316 270.92871)"><tspan xml:space="preserve">Input    : </tspan><tspan class="cls-6" x="81.00732" y="0">none</tspan><tspan x="125.58594" y="0" xml:space="preserve">   </tspan><tspan x="0" y="25.53467">Output : 0 or 1</tspan><tspan x="0" y="51.06934">Global variable :</tspan><tspan class="cls-6" x="153.5459" y="51.06934" xml:space="preserve"> ifint, count_down, mode_state[2], chance</tspan><tspan class="cls-7" x="541.51855" y="51.06934"> </tspan></text><text class="cls-8" transform="translate(478.23633 521.05176)">Start</text><path class="cls-1" d="M501.25488,558.4304"/><line class="cls-1" x1="501.25488" y1="557.54377" x2="501.25488" y2="616.06099"/><line class="cls-9" x1="501.25488" y1="557.54377" x2="501.25488" y2="610.02583"/><path class="cls-6" d="M501.25488,616.061a30.222,30.222,0,0,0-4.75586-8.54736l4.75586,1.72021,4.75488-1.72021A30.19573,30.19573,0,0,0,501.25488,616.061Z"/><line class="cls-1" x1="502.1415" y1="688.3209" x2="502.1415" y2="746.83812"/><line class="cls-9" x1="502.1415" y1="688.32089" x2="502.1415" y2="740.80296"/><path class="cls-6" d="M502.1415,746.83812a30.22164,30.22164,0,0,0-4.75586-8.54736l4.75586,1.72021,4.75489-1.72021A30.19587,30.19587,0,0,0,502.1415,746.83812Z"/><line class="cls-1" x1="500.36825" y1="819.54133" x2="500.36825" y2="878.05855"/><line class="cls-9" x1="500.36826" y1="819.54132" x2="500.36826" y2="872.02341"/><path class="cls-6" d="M500.36826,878.05856a30.22224,30.22224,0,0,0-4.75586-8.54736l4.75586,1.72021,4.75488-1.72021A30.195,30.195,0,0,0,500.36826,878.05856Z"/><ellipse class="cls-10" cx="501.25488" cy="510.55267" rx="78.90959" ry="46.9911"/><text class="cls-8" transform="translate(1286.83789 475.39063)">Start</text><ellipse class="cls-10" cx="1309.85649" cy="464.8915" rx="78.90959" ry="46.9911"/><text class="cls-8" transform="translate(483.55566 929.3418)">End</text><path class="cls-1" d="M501.25488,972.04076"/><ellipse class="cls-10" cx="501.25488" cy="924.16303" rx="78.90959" ry="46.9911"/><rect class="cls-10" x="390.42681" y="616.50431" width="219.88289" height="70.92997"/><rect class="cls-10" x="386.88031" y="747.72474" width="219.88289" height="70.92997"/><text class="cls-5" transform="translate(434.24902 659.34473)">clear Timer1 IP</text><text class="cls-5" transform="translate(452.05664 795.20605)">ifint = true</text><polyline class="cls-9" points="1477.429 666.155 1310.455 591.308 1152.924 664.382 1310.743 724.673"/><polyline class="cls-9" points="1311.617 725.457 1477.429 666.155 1568.147 666.155 1569.92 1162.665 1475.655 1162.665 1425.833 1162.665"/><path class="cls-6" d="M1419.79791,1162.665a30.2214,30.2214,0,0,0,8.54737-4.75586l-1.72022,4.75586,1.72022,4.75488A30.19486,30.19486,0,0,0,1419.79791,1162.665Z"/><text class="cls-8" transform="translate(1260.22949 650.08691)">ifint == true <tspan x="-3.35156" y="25.53467">in timer mode</tspan></text><path class="cls-1" d="M1310.4545,591.30755"/><line class="cls-11" x1="1311.617" y1="510.99598" x2="1311.31204" y2="591.30755"/><line class="cls-9" x1="1311.617" y1="510.99598" x2="1311.33496" y2="585.27243"/><path class="cls-6" d="M1311.31207,591.30755a30.22291,30.22291,0,0,0-4.72339-8.56535l4.74927,1.73825,4.76142-1.70214A30.19419,30.19419,0,0,0,1311.31207,591.30755Z"/><text class="cls-8" transform="translate(1228.75391 1178.51563)">count_down =50<tspan x="13.9375" y="25.53516">in timer mode</tspan></text><path class="cls-1" d="M1306.908,1112.6428"/><polyline class="cls-9" points="1312.516 1636.123 1153.071 1574.926 1312.516 1501.356 1477.575 1576.699 1312.516 1635.236 1312.516 1707.224"/><path class="cls-6" d="M1312.51636,1713.25891a30.22159,30.22159,0,0,0-4.75586-8.54736l4.75586,1.72021,4.75488-1.72021A30.1948,30.1948,0,0,0,1312.51636,1713.25891Z"/><polyline class="cls-9" points="1695.538 1705.45 1695.538 1590.018 1440.464 1589.86"/><path class="cls-6" d="M1695.53821,1711.4856a30.2229,30.2229,0,0,1,4.75586-8.54737l-4.75586,1.72022-4.75488-1.72022A30.19685,30.19685,0,0,1,1695.53821,1711.4856Z"/><text class="cls-8" transform="translate(1233.8418 1569.49609)">count_down &lt;= 0<tspan x="17.86328" y="25.53516">in timer mode</tspan></text><path class="cls-1" d="M1310.60118,1501.85112"/><line class="cls-11" x1="1310.74311" y1="725.55913" x2="1310.74311" y2="803.58209"/><line class="cls-9" x1="1310.7431" y1="725.55913" x2="1310.7431" y2="797.54694"/><path class="cls-6" d="M1310.7431,803.58209a30.22175,30.22175,0,0,0-4.75586-8.54736l4.75586,1.72021,4.75489-1.72021A30.19548,30.19548,0,0,0,1310.7431,803.58209Z"/><line class="cls-11" x1="1310.74311" y1="885.15155" x2="1310.74311" y2="975.58726"/><line class="cls-9" x1="1310.7431" y1="885.15155" x2="1310.7431" y2="969.55209"/><path class="cls-6" d="M1310.7431,975.58725a30.22216,30.22216,0,0,0-4.75586-8.54736l4.75586,1.72021,4.75489-1.72021A30.1959,30.1959,0,0,0,1310.7431,975.58725Z"/><line class="cls-11" x1="1312.51636" y1="1025.23823" x2="1312.51636" y2="1115.67394"/><line class="cls-9" x1="1312.51636" y1="1025.23822" x2="1312.51636" y2="1109.63879"/><path class="cls-6" d="M1312.51636,1115.674a30.22241,30.22241,0,0,0-4.75586-8.54736l4.75586,1.72021,4.75488-1.72021A30.19562,30.19562,0,0,0,1312.51636,1115.674Z"/><line class="cls-11" x1="1312.51636" y1="1255.76062" x2="1312.51636" y2="1337.33008"/><line class="cls-9" x1="1312.51636" y1="1255.76062" x2="1312.51636" y2="1331.29492"/><path class="cls-6" d="M1312.51636,1337.33008a30.2226,30.2226,0,0,0-4.75586-8.54737l4.75586,1.72022,4.75488-1.72022A30.19582,30.19582,0,0,0,1312.51636,1337.33008Z"/><line class="cls-11" x1="1312.51636" y1="1420.67279" x2="1312.51636" y2="1502.24225"/><line class="cls-9" x1="1312.51636" y1="1420.67279" x2="1312.51636" y2="1496.20709"/><path class="cls-6" d="M1312.51636,1502.24225a30.22241,30.22241,0,0,0-4.75586-8.54736l4.75586,1.72021,4.75488-1.72021A30.19562,30.19562,0,0,0,1312.51636,1502.24225Z"/><rect class="cls-9" x="1158.24369" y="802.69546" width="299.6791" height="81.56946"/><rect class="cls-12" x="1161.79018" y="976.47388" width="299.6791" height="81.56946"/><text class="cls-5" transform="translate(1166.92383 851.30859)">count_down = count_down - 1</text><text class="cls-5" transform="translate(1249.60938 1023.54102)">%count_down</text><polyline class="cls-9" points="1312.516 1254.874 1473.882 1187.491 1312.516 1114.787 1149.377 1185.717 1312.516 1254.874"/><polygon class="cls-13" points="1456.15 1419.786 1184.842 1421.559 1184.842 1336.443 1456.15 1334.67 1456.15 1419.786"/><text class="cls-5" transform="translate(1244.79492 1370.94629)">set_Color(RED)<tspan x="0.57422" y="25.53516">blink_LED(ON)</tspan></text><rect class="cls-9" x="1160.01693" y="1712.37227" width="299.6791" height="81.56946"/><text class="cls-5" transform="translate(1255.55664 1760.98535)">ifint = false</text><line class="cls-1" x1="1310.74311" y1="1793.05511" x2="1310.74311" y2="1851.57233"/><line class="cls-9" x1="1310.7431" y1="1793.05505" x2="1310.7431" y2="1845.53723"/><path class="cls-6" d="M1310.7431,1851.57239a30.2214,30.2214,0,0,0-4.75586-8.54737l4.75586,1.72022,4.75489-1.72022A30.19513,30.19513,0,0,0,1310.7431,1851.57239Z"/><text class="cls-8" transform="translate(1280.86719 1907.2168)">Return 0</text><path class="cls-1" d="M1311.62974,1945.55454"/><ellipse class="cls-10" cx="1311.62974" cy="1897.67681" rx="78.90959" ry="46.9911"/><text class="cls-5" transform="translate(1244.79834 1676.39844)">True</text><rect class="cls-9" x="1546.58525" y="1710.59902" width="299.6791" height="81.56946"/><text class="cls-5" transform="translate(1655.6084 1763.69824)">ifint = false</text><line class="cls-1" x1="1697.31142" y1="1791.28186" x2="1697.31142" y2="1849.79908"/><line class="cls-9" x1="1697.3114" y1="1791.28186" x2="1697.3114" y2="1843.76392"/><path class="cls-6" d="M1697.3114,1849.79907a30.22134,30.22134,0,0,0-4.75586-8.54736l4.75586,1.72021,4.75488-1.72021A30.19529,30.19529,0,0,0,1697.3114,1849.79907Z"/><text class="cls-8" transform="translate(1667.43555 1905.44336)">Return 1</text><path class="cls-1" d="M1698.19805,1943.78129"/><ellipse class="cls-10" cx="1698.19805" cy="1895.90356" rx="78.90959" ry="46.9911"/><text class="cls-5" transform="translate(1488.09326 1246.70605)">False</text><text class="cls-5" transform="translate(1488.09326 1629.72656)">False</text><text class="cls-5" transform="translate(1543.60449 1677.15332)"><tspan xml:space="preserve">in normal mode    </tspan><tspan class="cls-6" x="163.31299" y="0" xml:space="preserve">count_down  &gt; 0 in timer mode</tspan><tspan x="450.2334" y="0"> </tspan></text><text class="cls-5" transform="translate(1234.57373 764.45703)">True</text><text class="cls-5" transform="translate(1245.21338 1296.43164)">True</text><text class="cls-5" transform="translate(1488.77197 710.35352)">False</text><polyline class="cls-9" points="1424.633 1208.056 1569.92 1208.056 1567.864 1554.553 1436.473 1554.553"/><path class="cls-6" d="M1430.43744,1554.5531a30.22216,30.22216,0,0,0,8.54736-4.75586l-1.72021,4.75586,1.72021,4.75488A30.19587,30.19587,0,0,0,1430.43744,1554.5531Z"/><rect class="cls-14" x="2488.13232" y="846.9337" width="363.51607" height="120.58094"/><rect class="cls-15" x="2681.41648" y="471.00488" width="172.00517" height="47.87773"/><rect class="cls-16" x="2489.90557" y="471.00488" width="173.77842" height="47.87773"/><rect class="cls-17" x="2489.90557" y="279.49397" width="363.51607" height="49.65098"/><path class="cls-1" d="M2581.77563,277.43515"/><path class="cls-1" d="M2759.75021,290.29112"/><text class="cls-8" transform="translate(2526.54883 311.49414)">the context displaying in LCD</text><path class="cls-1" d="M2580.00238,374.96385"/><path class="cls-1" d="M2757.977,387.81983"/><path class="cls-1" d="M2493.17025,498.376"/><path class="cls-17" d="M2493.17025,471.48635"/><path class="cls-17" d="M2847.3406,471.38109"/><path class="cls-1" d="M2659.84867,481.51563"/><path class="cls-18" d="M2619.801,472.80651"/><path class="cls-1" d="M2604.182,471.08612"/><path class="cls-1" d="M2619.801,472.80651"/><path class="cls-1" d="M2662.963,469.30293"/><path class="cls-1" d="M2619.801,513.45314"/><text class="cls-19" transform="translate(2318.50977 301.44727)">Legend</text><path class="cls-20" d="M2761.78507,474.21822"/><text class="cls-8" transform="translate(2503.75195 503.13379)"><tspan xml:space="preserve">LED light  color</tspan></text><rect class="cls-21" x="2489.90557" y="568.53358" width="173.77842" height="47.87773"/><path class="cls-1" d="M2659.84867,579.04434"/><path class="cls-18" d="M2619.801,570.33521"/><path class="cls-1" d="M2604.182,568.61482"/><path class="cls-1" d="M2619.801,570.33521"/><path class="cls-1" d="M2662.963,566.83163"/><path class="cls-1" d="M2619.801,610.98185"/><text class="cls-8" transform="translate(2503.75195 600.66309)"><tspan xml:space="preserve">LED light  color</tspan></text><text class="cls-8" transform="translate(2695.26465 504.90723)"><tspan xml:space="preserve">LED light  color</tspan></text><rect class="cls-22" x="2681.41648" y="566.76033" width="172.00517" height="47.87773"/><path class="cls-17" d="M2847.3406,567.13655"/><path class="cls-20" d="M2761.78507,569.97367"/><text class="cls-8" transform="translate(2695.26465 600.66309)"><tspan xml:space="preserve">LED light  color</tspan></text><rect class="cls-23" x="2489.90557" y="664.28904" width="363.51607" height="53.19747"/><text class="cls-5" transform="translate(2620.44824 698.50977)">Subfuntion</text><rect class="cls-24" x="2489.90557" y="375.24943" width="363.51607" height="47.87773"/><text class="cls-8" transform="translate(2576.19922 405.47656)">the function of LCD</text><text class="cls-5" transform="translate(2634.20215 548.3584)">brighten</text><text class="cls-5" transform="translate(2644.8418 645.8877)">darken</text><polygon class="cls-25" points="2886.227 1000.32 2458.874 1000.32 2457.1 246.689 2888 246.689 2886.227 1000.32"/><text class="cls-5" transform="translate(2519.77539 894.05859)">if (checkint() == 0)<tspan x="-58.12207" y="25.53467" xml:space="preserve">                    return count_down;</tspan></text><circle class="cls-14" cx="2633.53875" cy="800.82922" r="24.82549"/><text class="cls-5" transform="translate(2687.85156 811.79004)">stand for</text></g></svg>