<svg id="圖層_1" data-name="圖層 1" xmlns="http://www.w3.org/2000/svg" xmlns:xlink="http://www.w3.org/1999/xlink" viewBox="0 0 3141.44749 1814.30993"><defs><style>.cls-1,.cls-5{fill:#8cc63f;}.cls-1,.cls-11,.cls-17,.cls-27,.cls-29,.cls-30,.cls-32{stroke:#000;}.cls-1,.cls-10,.cls-11,.cls-13,.cls-14,.cls-15,.cls-17,.cls-2,.cls-21,.cls-23,.cls-24,.cls-25,.cls-26,.cls-27,.cls-29,.cls-3,.cls-30,.cls-31,.cls-32,.cls-4,.cls-5,.cls-8{stroke-miterlimit:10;}.cls-2{fill:#009ee7;}.cls-10,.cls-13,.cls-14,.cls-15,.cls-2,.cls-21,.cls-23,.cls-24,.cls-25,.cls-26,.cls-3,.cls-31,.cls-4,.cls-5,.cls-8{stroke:#231815;}.cls-18,.cls-3{fill:red;}.cls-4{fill:#ffef00;}.cls-16,.cls-6{font-size:23.60079px;}.cls-11,.cls-17,.cls-20,.cls-6,.cls-9{fill:#231815;}.cls-11,.cls-16,.cls-17,.cls-28,.cls-6{font-family:AdobeMingStd-Light-B5pc-H, Adobe Ming Std;}.cls-10,.cls-7{fill:#fff;}.cls-27,.cls-32,.cls-8{fill:none;}.cls-11{font-size:39.33465px;stroke-width:1.2px;}.cls-12{fill:#e63828;}.cls-13{fill:url(#蘭花);}.cls-14{fill:url(#天空);}.cls-15,.cls-22{fill:#8bc53f;}.cls-17{font-size:59.00198px;}.cls-17,.cls-32{stroke-width:2px;}.cls-19,.cls-20{letter-spacing:-0.00002em;}.cls-21{fill:url(#蘭花-2);}.cls-23{fill:#3fa9f5;}.cls-24{fill:url(#天空-2);}.cls-25{fill:url(#天空-3);}.cls-26{fill:url(#天空-4);}.cls-28{font-size:98.33662px;}.cls-30,.cls-31{fill:#c69c6d;}</style><linearGradient id="蘭花" x1="2698.91369" y1="395.1655" x2="2891.65347" y2="395.1655" gradientUnits="userSpaceOnUse"><stop offset="0" stop-color="#ff7bac"/><stop offset="0.21596" stop-color="#ff7bac" stop-opacity="0.76266"/><stop offset="0.6041" stop-color="#ff7bac" stop-opacity="0.35634"/><stop offset="0.87374" stop-color="#ff7bac" stop-opacity="0.09981"/><stop offset="1" stop-color="#ff7bac" stop-opacity="0"/></linearGradient><linearGradient id="天空" x1="2911.3208" y1="393.19877" x2="3102.09385" y2="393.19877" gradientUnits="userSpaceOnUse"><stop offset="0" stop-color="#cce0f4"/><stop offset="0.06405" stop-color="#c3dcf2"/><stop offset="0.17063" stop-color="#a9d2ee"/><stop offset="0.30655" stop-color="#80c2e7"/><stop offset="0.46487" stop-color="#47acde"/><stop offset="0.56742" stop-color="#1e9cd7"/><stop offset="0.86517" stop-color="#0075be"/><stop offset="0.99438" stop-color="#005b97"/></linearGradient><linearGradient id="蘭花-2" x1="1755.64135" y1="590.95321" x2="2040.81756" y2="590.95321" xlink:href="#蘭花"/><linearGradient id="天空-2" x1="646.40425" y1="1207.52383" x2="927.64699" y2="1207.52383" xlink:href="#天空"/><linearGradient id="天空-3" x1="2770.4753" y1="1207.52383" x2="3051.71804" y2="1207.52383" xlink:href="#天空"/><linearGradient id="天空-4" x1="1524.93394" y1="1206.96975" x2="1806.17668" y2="1206.96975" xlink:href="#天空"/></defs><rect class="cls-1" x="2696.94696" y="677.39161" width="403.18015" height="133.73781"/><rect class="cls-2" x="2911.3208" y="260.44433" width="190.77305" height="53.10178"/><rect class="cls-3" x="2698.91369" y="260.44433" width="192.73978" height="53.10178"/><rect class="cls-4" x="2698.91369" y="48.03722" width="403.18015" height="55.06851"/><polygon class="cls-5" points="2281.51 124.405 334.445 120.472 336.412 0.501 2283.477 4.434 2281.51 124.405"/><text class="cls-6" transform="translate(310.13116 266.28703)">Start</text><path class="cls-7" d="M529.21539,365.7653" transform="translate(-193.55487 -58.02157)"/><line class="cls-7" x1="335.66052" y1="306.76037" x2="335.66052" y2="371.66254"/><line class="cls-8" x1="335.66052" y1="306.76037" x2="335.66052" y2="365.62738"/><path class="cls-9" d="M529.21539,429.6841a30.222,30.222,0,0,0-4.75586-8.54735l4.75586,1.72021,4.75489-1.72021A30.1957,30.1957,0,0,0,529.21539,429.6841Z" transform="translate(-193.55487 -58.02157)"/><path class="cls-7" d="M224.37186,692.24289" transform="translate(-193.55487 -58.02157)"/><path class="cls-7" d="M2994.36278,103.77533" transform="translate(-193.55487 -58.02157)"/><path class="cls-7" d="M3191.75658,118.034" transform="translate(-193.55487 -58.02157)"/><text class="cls-6" transform="translate(2739.55646 83.52921)">the context displaying in LCD</text><path class="cls-7" d="M2992.39605,211.94561" transform="translate(-193.55487 -58.02157)"/><path class="cls-7" d="M3189.78985,226.20433" transform="translate(-193.55487 -58.02157)"/><path class="cls-7" d="M2896.08946,348.82352" transform="translate(-193.55487 -58.02157)"/><path class="cls-4" d="M2896.08946,318.9999" transform="translate(-193.55487 -58.02157)"/><path class="cls-4" d="M3288.90416,318.88316" transform="translate(-193.55487 -58.02157)"/><path class="cls-7" d="M3080.95455,330.1235" transform="translate(-193.55487 -58.02157)"/><path class="cls-10" d="M3036.53715,320.4641" transform="translate(-193.55487 -58.02157)"/><path class="cls-7" d="M3019.21391,318.556" transform="translate(-193.55487 -58.02157)"/><path class="cls-7" d="M3036.53715,320.4641" transform="translate(-193.55487 -58.02157)"/><path class="cls-7" d="M3084.40871,316.57824" transform="translate(-193.55487 -58.02157)"/><path class="cls-7" d="M3036.53715,365.54579" transform="translate(-193.55487 -58.02157)"/><text class="cls-11" transform="translate(2508.81622 72.38566)">Legend</text><path class="cls-12" d="M3194.01347,322.02985" transform="translate(-193.55487 -58.02157)"/><text class="cls-6" transform="translate(2714.27325 296.07999)"><tspan xml:space="preserve">LED light  color</tspan></text><rect class="cls-13" x="2698.91369" y="368.61461" width="192.73978" height="53.10178"/><path class="cls-7" d="M3080.95455,438.29379" transform="translate(-193.55487 -58.02157)"/><path class="cls-10" d="M3036.53715,428.63439" transform="translate(-193.55487 -58.02157)"/><path class="cls-7" d="M3019.21391,426.72628" transform="translate(-193.55487 -58.02157)"/><path class="cls-7" d="M3036.53715,428.63439" transform="translate(-193.55487 -58.02157)"/><path class="cls-7" d="M3084.40871,424.74852" transform="translate(-193.55487 -58.02157)"/><path class="cls-7" d="M3036.53715,473.71607" transform="translate(-193.55487 -58.02157)"/><text class="cls-6" transform="translate(2714.27325 404.24992)"><tspan xml:space="preserve">LED light  color</tspan></text><text class="cls-6" transform="translate(2926.6795 298.04679)"><tspan xml:space="preserve">LED light  color</tspan></text><rect class="cls-14" x="2911.3208" y="366.64788" width="190.77305" height="53.10178"/><path class="cls-4" d="M3288.90416,425.08671" transform="translate(-193.55487 -58.02157)"/><path class="cls-12" d="M3194.01347,428.2334" transform="translate(-193.55487 -58.02157)"/><text class="cls-6" transform="translate(2926.6795 404.24992)"><tspan xml:space="preserve">LED light  color</tspan></text><rect class="cls-15" x="2698.91369" y="474.81816" width="403.18015" height="59.00197"/><text class="cls-16" transform="translate(2843.70099 512.7714)">Subfuntion</text><path class="cls-7" d="M634.535,72.2967" transform="translate(-193.55487 -58.02157)"/><text class="cls-17" transform="translate(579.55402 88.32023)"><tspan xml:space="preserve"> Input subfunction</tspan></text><path class="cls-7" d="M686.5906,142.59693" transform="translate(-193.55487 -58.02157)"/><path class="cls-7" d="M685.79363,142.655" transform="translate(-193.55487 -58.02157)"/><text class="cls-16" transform="translate(245.52472 423.75968)">Initialize variable<tspan x="-14.00635" y="28.3208">Close all LEDs light</tspan></text><text class="cls-16" transform="translate(1343.44073 43.24601)"><tspan xml:space="preserve">Input    : </tspan><tspan class="cls-9" x="89.84619" y="0">gpio 4b_1 ×2, 4b_2 ×4, 8b_2 ×8, 8b_3 ×8, </tspan><tspan class="cls-18" x="551.54102" y="0">22 pins in total</tspan><tspan class="cls-19" x="705.62793" y="0" xml:space="preserve">    </tspan><tspan x="0" y="28.3208">Output : guess or count_down</tspan><tspan x="0" y="56.64209">Global variable :</tspan><tspan class="cls-20" x="170.2998" y="56.64209" xml:space="preserve"> ifint, count_down, mode_state[2], chance</tspan><tspan class="cls-19" x="600.60547" y="56.64209"> </tspan></text><path class="cls-7" d="M665.79848,606.29665" transform="translate(-193.55487 -58.02157)"/><polygon class="cls-8" points="427.699 856.648 175.288 856.648 224.833 774.297 477.244 774.297 427.699 856.648"/><text class="cls-6" transform="translate(291.59113 824.20499)">Button 9</text><line class="cls-12" x1="335.66052" y1="475.89936" x2="335.2902" y2="548.31697"/><line class="cls-8" x1="335.66052" y1="475.89936" x2="335.32108" y2="542.28188"/><path class="cls-9" d="M528.84506,606.33853A30.22146,30.22146,0,0,0,524.133,597.767l4.747,1.7445,4.76362-1.69587A30.19665,30.19665,0,0,0,528.84506,606.33853Z" transform="translate(-193.55487 -58.02157)"/><path class="cls-7" d="M665.79848,738.06773" transform="translate(-193.55487 -58.02157)"/><polygon class="cls-8" points="427.699 630.474 175.288 630.474 224.833 548.122 477.244 548.122 427.699 630.474"/><text class="cls-6" transform="translate(248.32257 598.03019)">Button Control</text><line class="cls-12" x1="335.2902" y1="630.47411" x2="335.66052" y2="774.84269"/><line class="cls-8" x1="335.29019" y1="630.47411" x2="335.64505" y2="768.80756"/><path class="cls-9" d="M529.21539,832.86426a30.22134,30.22134,0,0,0-4.77777-8.53513l4.76026,1.708,4.75045-1.73242A30.19555,30.19555,0,0,0,529.21539,832.86426Z" transform="translate(-193.55487 -58.02157)"/><rect class="cls-8" x="196.02252" y="370.67917" width="277.30928" height="104.23682"/><line class="cls-12" x1="452.47188" y1="589.29826" x2="617.88663" y2="590.95321"/><line class="cls-8" x1="452.47186" y1="589.29826" x2="611.85178" y2="590.89283"/><path class="cls-9" d="M811.4415,648.97478a30.2217,30.2217,0,0,0-8.59452,4.67011l1.76771-4.73842-1.67255-4.77185A30.19587,30.19587,0,0,0,811.4415,648.97478Z" transform="translate(-193.55487 -58.02157)"/><rect class="cls-21" x="1755.64135" y="539.81816" width="285.17621" height="102.27009"/><text class="cls-16" transform="translate(1795.45685 598.21378)">Disable user to write </text><line class="cls-12" x1="2039.62496" y1="581.43134" x2="2194.53653" y2="581.43134"/><line class="cls-8" x1="2039.62494" y1="581.43134" x2="2188.5014" y2="581.43134"/><path class="cls-9" d="M2388.09143,639.4529a30.22159,30.22159,0,0,0-8.54736,4.75586l1.72021-4.75586-1.72021-4.75488A30.195,30.195,0,0,0,2388.09143,639.4529Z" transform="translate(-193.55487 -58.02157)"/><text class="cls-16" transform="translate(2261.57208 590.3466)">Return : guess</text><ellipse class="cls-8" cx="2335.82742" cy="584.06964" rx="141.60474" ry="77.68593"/><text class="cls-16" transform="translate(510.21906 571.26554)">True</text><text class="cls-16" transform="translate(249.31281 708.56046)">False</text><polyline class="cls-8" points="521.018 1032.354 336.338 955.483 160.621 1033.468 333.694 1104.27"/><polyline class="cls-8" points="333.694 1166.306 333.694 1104.27 521.018 1032.354 788.009 1033.468 788.009 1161.171"/><path class="cls-9" d="M981.56386,1225.22736a30.22092,30.22092,0,0,0-4.75586-8.54731l4.75586,1.72016,4.75488-1.72016A30.19463,30.19463,0,0,0,981.56386,1225.22736Z" transform="translate(-193.55487 -58.02157)"/><text class="cls-6" transform="translate(237.13214 1036.41007)">LED 9 doesn&apos;t light</text><path class="cls-7" d="M529.89278,1013.50467" transform="translate(-193.55487 -58.02157)"/><line class="cls-22" x1="335.66052" y1="857.44545" x2="335.32229" y2="955.48311"/><line class="cls-8" x1="335.66052" y1="857.44544" x2="335.34311" y2="949.44798"/><path class="cls-9" d="M528.87717,1013.50467a30.22212,30.22212,0,0,0-4.72635-8.56372l4.74991,1.7366,4.76077-1.7038A30.1957,30.1957,0,0,0,528.87717,1013.50467Z" transform="translate(-193.55487 -58.02157)"/><line class="cls-22" x1="335.66052" y1="1248.82521" x2="335.66052" y2="1335.36144"/><line class="cls-8" x1="335.66052" y1="1248.82523" x2="335.66052" y2="1329.32627"/><path class="cls-9" d="M529.21539,1393.383a30.22208,30.22208,0,0,0-4.75586-8.54737l4.75586,1.72022,4.75489-1.72022A30.19581,30.19581,0,0,0,529.21539,1393.383Z" transform="translate(-193.55487 -58.02157)"/><line class="cls-22" x1="333.69379" y1="1425.83113" x2="333.69379" y2="1512.36736"/><line class="cls-8" x1="333.69379" y1="1425.83115" x2="333.69379" y2="1506.33219"/><path class="cls-9" d="M527.24866,1570.38892a30.22151,30.22151,0,0,0-4.75586-8.54737l4.75586,1.72022,4.75488-1.72022A30.19472,30.19472,0,0,0,527.24866,1570.38892Z" transform="translate(-193.55487 -58.02157)"/><rect class="cls-23" x="196.02252" y="1167.20582" width="281.24274" height="80.63603"/><text class="cls-6" transform="translate(236.784 1203.12882)">LEDs light reflects<tspan x="-20.95703" y="28.32129">which button you press</tspan></text><rect class="cls-8" x="196.02252" y="1334.37807" width="281.24274" height="90.46969"/><rect class="cls-4" x="196.02252" y="1513.35073" width="281.24274" height="90.46969"/><text class="cls-16" transform="translate(235.36603 1386.32999)">guess = guess + 512</text><text x="-193.55487" y="-58.02157"/><text class="cls-16" transform="translate(295.23419 1563.04191)">%guess</text><text class="cls-6" transform="translate(135.24933 1639.05265)"><tspan xml:space="preserve">Position : in  next      row of LCD screen</tspan></text><line class="cls-22" x1="786.04225" y1="1248.82521" x2="786.04225" y2="1335.36144"/><line class="cls-8" x1="786.04225" y1="1248.82523" x2="786.04225" y2="1329.32627"/><path class="cls-9" d="M979.59712,1393.383a30.22184,30.22184,0,0,0-4.75586-8.54737l4.75586,1.72022,4.75489-1.72022A30.19557,30.19557,0,0,0,979.59712,1393.383Z" transform="translate(-193.55487 -58.02157)"/><line class="cls-22" x1="784.07552" y1="1425.83113" x2="784.07552" y2="1512.36736"/><line class="cls-8" x1="784.07552" y1="1425.83115" x2="784.07552" y2="1506.33219"/><path class="cls-9" d="M977.63039,1570.38892a30.22126,30.22126,0,0,0-4.75586-8.54737l4.75586,1.72022,4.75488-1.72022A30.195,30.195,0,0,0,977.63039,1570.38892Z" transform="translate(-193.55487 -58.02157)"/><rect class="cls-24" x="646.40425" y="1167.20582" width="281.24274" height="80.63603"/><text class="cls-6" transform="translate(685.19904 1205.09562)">LEDs light reflects<tspan x="-20.95703" y="28.32129">which button you press</tspan></text><rect class="cls-8" x="646.40425" y="1334.37807" width="281.24274" height="90.46969"/><rect class="cls-4" x="646.40425" y="1513.35073" width="281.24274" height="90.46969"/><text class="cls-16" transform="translate(688.6629 1386.32999)">guess = guess - 512</text><text x="-193.55487" y="-58.02157"/><text class="cls-16" transform="translate(745.61603 1563.04191)">%guess</text><text class="cls-6" transform="translate(585.63019 1639.05265)"><tspan xml:space="preserve">Position : in  next      row of LCD screen</tspan></text><text class="cls-16" transform="translate(252.22589 1142.57902)">True</text><text class="cls-16" transform="translate(613.03937 1022.1923)">False</text><polygon class="cls-8" points="2551.77 856.648 2299.359 856.648 2348.904 774.297 2601.315 774.297 2551.77 856.648"/><text class="cls-6" transform="translate(2415.66193 824.20499)">Button 0</text><polyline class="cls-8" points="2645.089 1032.354 2460.409 955.483 2284.354 1034.585 2457.765 1104.27"/><polyline class="cls-8" points="2457.765 1166.306 2457.765 1104.27 2645.089 1032.354 2912.08 1033.468 2912.08 1161.171"/><path class="cls-9" d="M3105.635,1225.22736a30.22092,30.22092,0,0,0-4.75586-8.54731l4.75586,1.72016,4.75488-1.72016A30.19463,30.19463,0,0,0,3105.635,1225.22736Z" transform="translate(-193.55487 -58.02157)"/><text class="cls-6" transform="translate(2369.07013 1040.34367)">LED 0 doesn&apos;t light</text><path class="cls-7" d="M2653.96383,1013.50467" transform="translate(-193.55487 -58.02157)"/><line class="cls-22" x1="2459.73157" y1="857.44545" x2="2459.39334" y2="955.48311"/><line class="cls-8" x1="2459.73163" y1="857.44544" x2="2459.41412" y2="949.44798"/><path class="cls-9" d="M2652.94824,1013.50467a30.22327,30.22327,0,0,0-4.72632-8.56372l4.74988,1.7366,4.76074-1.7038A30.1944,30.1944,0,0,0,2652.94824,1013.50467Z" transform="translate(-193.55487 -58.02157)"/><line class="cls-22" x1="2459.73157" y1="1248.82521" x2="2459.73157" y2="1335.36144"/><line class="cls-8" x1="2459.73163" y1="1248.82523" x2="2459.73163" y2="1329.32627"/><path class="cls-9" d="M2653.2865,1393.383a30.22208,30.22208,0,0,0-4.75586-8.54737l4.75586,1.72022,4.75476-1.72022A30.19523,30.19523,0,0,0,2653.2865,1393.383Z" transform="translate(-193.55487 -58.02157)"/><line class="cls-22" x1="2457.76484" y1="1425.83113" x2="2457.76484" y2="1512.36736"/><line class="cls-8" x1="2457.76483" y1="1425.83115" x2="2457.76483" y2="1506.33219"/><path class="cls-9" d="M2651.3197,1570.38892a30.22126,30.22126,0,0,0-4.75586-8.54737l4.75586,1.72022,4.75488-1.72022A30.19521,30.19521,0,0,0,2651.3197,1570.38892Z" transform="translate(-193.55487 -58.02157)"/><rect class="cls-23" x="2320.09356" y="1167.20582" width="281.24274" height="80.63603"/><text class="cls-6" transform="translate(2360.85626 1203.12882)">LEDs light reflects<tspan x="-20.95703" y="28.32129">which button you press</tspan></text><rect class="cls-8" x="2320.09356" y="1334.37807" width="281.24274" height="90.46969"/><rect class="cls-4" x="2320.09356" y="1513.35073" width="281.24274" height="90.46969"/><text class="cls-16" transform="translate(2371.30939 1386.32999)">guess = guess + 1</text><text x="-193.55487" y="-58.02157"/><text class="cls-16" transform="translate(2419.3045 1563.04191)">%guess</text><text class="cls-6" transform="translate(2259.32013 1639.05265)"><tspan xml:space="preserve">Position : in  next      row of LCD screen</tspan></text><line class="cls-22" x1="2910.1133" y1="1248.82521" x2="2910.1133" y2="1335.36144"/><line class="cls-8" x1="2910.11334" y1="1248.82523" x2="2910.11334" y2="1329.32627"/><path class="cls-9" d="M3103.66821,1393.383a30.22208,30.22208,0,0,0-4.75586-8.54737l4.75586,1.72022,4.75489-1.72022A30.19581,30.19581,0,0,0,3103.66821,1393.383Z" transform="translate(-193.55487 -58.02157)"/><line class="cls-22" x1="2908.14657" y1="1425.83113" x2="2908.14657" y2="1512.36736"/><line class="cls-8" x1="2908.14655" y1="1425.83115" x2="2908.14655" y2="1506.33219"/><path class="cls-9" d="M3101.70142,1570.38892a30.22151,30.22151,0,0,0-4.75586-8.54737l4.75586,1.72022,4.75488-1.72022A30.19472,30.19472,0,0,0,3101.70142,1570.38892Z" transform="translate(-193.55487 -58.02157)"/><rect class="cls-25" x="2770.4753" y="1167.20582" width="281.24274" height="80.63603"/><text class="cls-6" transform="translate(2809.27032 1205.09562)">LEDs light reflects<tspan x="-20.95703" y="28.32129">which button you press</tspan></text><rect class="cls-8" x="2770.4753" y="1334.37807" width="281.24274" height="90.46969"/><rect class="cls-4" x="2770.4753" y="1513.35073" width="281.24274" height="90.46969"/><text class="cls-16" transform="translate(2824.60431 1386.32999)">guess = guess - 1</text><text x="-193.55487" y="-58.02157"/><text class="cls-16" transform="translate(2869.68732 1563.04191)">%guess</text><text class="cls-6" transform="translate(2709.70099 1639.05265)"><tspan xml:space="preserve">Position : in  next      row of LCD screen</tspan></text><text class="cls-16" transform="translate(2376.29767 1142.57902)">True</text><text class="cls-16" transform="translate(2737.10919 1022.1923)">False</text><polygon class="cls-8" points="1306.229 856.094 1053.818 856.094 1103.363 773.743 1355.774 773.743 1306.229 856.094"/><text class="cls-6" transform="translate(1170.12042 823.65031)">Button 8</text><polyline class="cls-8" points="1399.547 1031.8 1214.868 954.929 1038.813 1034.031 1212.223 1103.716"/><polyline class="cls-8" points="1212.223 1165.752 1212.223 1103.716 1399.547 1031.8 1666.539 1032.914 1666.539 1160.617"/><path class="cls-9" d="M1860.09357,1224.67328a30.22241,30.22241,0,0,0-4.75586-8.54736l4.75586,1.72021,4.75488-1.72021A30.19562,30.19562,0,0,0,1860.09357,1224.67328Z" transform="translate(-193.55487 -58.02157)"/><text class="cls-6" transform="translate(1125.49542 1037.82316)">LED 8 doesn&apos;t light</text><path class="cls-7" d="M1408.42247,1012.95059" transform="translate(-193.55487 -58.02157)"/><line class="cls-22" x1="1214.19021" y1="856.89138" x2="1213.85198" y2="954.92903"/><line class="cls-8" x1="1214.19022" y1="856.89137" x2="1213.8728" y2="948.8939"/><path class="cls-9" d="M1407.40686,1012.95059a30.222,30.222,0,0,0-4.72635-8.56372l4.74988,1.7366,4.7608-1.70379A30.195,30.195,0,0,0,1407.40686,1012.95059Z" transform="translate(-193.55487 -58.02157)"/><line class="cls-22" x1="1214.19021" y1="1248.27113" x2="1214.19021" y2="1334.80736"/><line class="cls-8" x1="1214.19022" y1="1248.27116" x2="1214.19022" y2="1328.77219"/><path class="cls-9" d="M1407.74509,1392.82892a30.22241,30.22241,0,0,0-4.75586-8.54736l4.75586,1.72021,4.75488-1.72021A30.19562,30.19562,0,0,0,1407.74509,1392.82892Z" transform="translate(-193.55487 -58.02157)"/><line class="cls-22" x1="1212.22348" y1="1425.27705" x2="1212.22348" y2="1511.81328"/><line class="cls-8" x1="1212.22348" y1="1425.27708" x2="1212.22348" y2="1505.77811"/><path class="cls-9" d="M1405.77835,1569.83484a30.22134,30.22134,0,0,0-4.75586-8.54736l4.75586,1.72021,4.75488-1.72021A30.19529,30.19529,0,0,0,1405.77835,1569.83484Z" transform="translate(-193.55487 -58.02157)"/><rect class="cls-23" x="1074.5522" y="1166.65174" width="281.24274" height="80.63603"/><text class="cls-6" transform="translate(1115.31329 1202.57511)">LEDs light reflects<tspan x="-20.95703" y="28.32129">which button you press</tspan></text><rect class="cls-8" x="1074.5522" y="1333.82399" width="281.24274" height="90.46969"/><rect class="cls-4" x="1074.5522" y="1512.79665" width="281.24274" height="90.46969"/><text class="cls-16" transform="translate(1113.90802 1385.77628)">guess = guess + 256</text><text x="-193.55487" y="-58.02157"/><text class="cls-16" transform="translate(1173.76349 1562.4882)">%guess</text><text class="cls-6" transform="translate(1013.77863 1638.49796)"><tspan xml:space="preserve">Position : in  next      row of LCD screen</tspan></text><line class="cls-22" x1="1664.57194" y1="1248.27113" x2="1664.57194" y2="1334.80736"/><line class="cls-8" x1="1664.57196" y1="1248.27116" x2="1664.57196" y2="1328.77219"/><path class="cls-9" d="M1858.12683,1392.82892a30.22216,30.22216,0,0,0-4.75586-8.54736l4.75586,1.72021,4.75488-1.72021A30.19611,30.19611,0,0,0,1858.12683,1392.82892Z" transform="translate(-193.55487 -58.02157)"/><line class="cls-22" x1="1662.60521" y1="1425.27705" x2="1662.60521" y2="1511.81328"/><line class="cls-8" x1="1662.60522" y1="1425.27708" x2="1662.60522" y2="1505.77811"/><path class="cls-9" d="M1856.1601,1569.83484a30.22183,30.22183,0,0,0-4.75586-8.54736l4.75586,1.72021,4.75488-1.72021A30.1948,30.1948,0,0,0,1856.1601,1569.83484Z" transform="translate(-193.55487 -58.02157)"/><rect class="cls-26" x="1524.93394" y="1166.65174" width="281.24274" height="80.63603"/><text class="cls-6" transform="translate(1563.72833 1204.54191)">LEDs light reflects<tspan x="-20.95703" y="28.32129">which button you press</tspan></text><rect class="cls-8" x="1524.93394" y="1333.82399" width="281.24274" height="90.46969"/><rect class="cls-4" x="1524.93394" y="1512.79665" width="281.24274" height="90.46969"/><text class="cls-16" transform="translate(1567.2049 1385.77628)">guess = guess - 256</text><text x="-193.55487" y="-58.02157"/><text class="cls-16" transform="translate(1624.1463 1562.4882)">%guess</text><text class="cls-6" transform="translate(1464.16046 1638.49796)"><tspan xml:space="preserve">Position : in  next      row of LCD screen</tspan></text><text class="cls-16" transform="translate(1144.52277 1142.02433)">True</text><text class="cls-16" transform="translate(1491.56866 1021.63761)">False</text><polyline class="cls-27" points="335.29 713.414 1214.79 712.891 1214.86 767.707"/><path d="M1408.42245,831.76413a30.2216,30.2216,0,0,0-4.76675-8.54126l4.75806,1.71411,4.75268-1.72626A30.196,30.196,0,0,0,1408.42245,831.76413Z" transform="translate(-193.55487 -58.02157)"/><text class="cls-28" transform="translate(1470.07452 769.15226)">.....(and so on)</text><polyline class="cls-27" points="2107.749 712.891 2459.732 712.891 2459.732 768.808"/><path d="M2653.2865,832.86426a30.22181,30.22181,0,0,0-4.75586-8.54737l4.75586,1.72022,4.75476-1.72022A30.195,30.195,0,0,0,2653.2865,832.86426Z" transform="translate(-193.55487 -58.02157)"/><ellipse class="cls-27" cx="335.66052" cy="254.64196" rx="87.51959" ry="52.11841"/><line class="cls-29" x1="336.05809" y1="1603.82042" x2="336.64389" y2="1811.77099"/><line class="cls-29" x1="784.47309" y1="1603.82042" x2="785.05889" y2="1811.77099"/><line class="cls-29" x1="1215.1875" y1="1603.82042" x2="1215.77329" y2="1811.77099"/><line class="cls-29" x1="1665.56923" y1="1603.82042" x2="1666.15503" y2="1811.77099"/><path class="cls-27" d="M3102.09912,1663.80872l.58569,207.95056c.9834.52307-2908.62994-1.96668-2908.62994-1.96668V649.95815l189.48792-2.55689" transform="translate(-193.55487 -58.02157)"/><path d="M389.57739,647.31983a30.22267,30.22267,0,0,0-8.48242,4.87075l1.65588-4.77863-1.78418-4.73124A30.19483,30.19483,0,0,0,389.57739,647.31983Z" transform="translate(-193.55487 -58.02157)"/><line class="cls-29" x1="2460.12914" y1="1603.82042" x2="2460.71493" y2="1811.77099"/><rect class="cls-8" x="618.87" y="549.65183" width="328.44432" height="82.60276"/><text class="cls-16" transform="translate(673.71173 598.59074)">chance = chance - 1</text><polygon class="cls-8" points="1149.888 520.151 1043.684 592.92 1149.888 659.789 1260.025 592.92 1149.888 520.151"/><text class="cls-6" transform="translate(1091.44073 598.52042)">chance == 3</text><path class="cls-7" d="M1344.86661,571.68174" transform="translate(-193.55487 -58.02157)"/><path class="cls-9" d="M1529.54621,648.553" transform="translate(-193.55487 -58.02157)"/><line class="cls-22" x1="1261.00814" y1="592.91994" x2="1357.37803" y2="592.91994"/><line class="cls-8" x1="1261.00815" y1="592.91994" x2="1351.3429" y2="592.91994"/><path class="cls-9" d="M1550.93292,650.94151a30.22156,30.22156,0,0,0-8.54736,4.75585l1.72021-4.75585-1.72021-4.75488A30.195,30.195,0,0,0,1550.93292,650.94151Z" transform="translate(-193.55487 -58.02157)"/><line class="cls-22" x1="1660.25483" y1="592.91994" x2="1756.62472" y2="592.91994"/><line class="cls-8" x1="1660.25482" y1="592.91994" x2="1750.58954" y2="592.91994"/><path class="cls-9" d="M1950.17957,650.94151a30.2223,30.2223,0,0,0-8.54737,4.75585l1.72022-4.75585-1.72022-4.75488A30.19579,30.19579,0,0,0,1950.17957,650.94151Z" transform="translate(-193.55487 -58.02157)"/><line class="cls-22" x1="946.33095" y1="592.91994" x2="1042.70084" y2="592.91994"/><line class="cls-8" x1="946.33095" y1="592.91994" x2="1036.66568" y2="592.91994"/><path class="cls-9" d="M1236.25571,650.94151a30.22244,30.22244,0,0,0-8.54737,4.75585l1.72022-4.75585-1.72022-4.75488A30.19592,30.19592,0,0,0,1236.25571,650.94151Z" transform="translate(-193.55487 -58.02157)"/><polygon class="cls-30" points="1659.271 638.155 1358.361 640.122 1358.361 545.718 1659.271 543.752 1659.271 638.155"/><text class="cls-16" transform="translate(1424.85626 583.98527)">set_Color(RED)<tspan x="0.63672" y="28.3208">blink_LED(ON)</tspan></text><text class="cls-16" transform="translate(1266.90851 571.89249)">True</text><polyline class="cls-27" points="1149.888 520.151 1149.888 431.878 1912.98 429.681 1912.98 531.816"/><path d="M2106.53479,595.873a30.22189,30.22189,0,0,0-4.75586-8.54736l4.75586,1.72021,4.75488-1.72021A30.1956,30.1956,0,0,0,2106.53479,595.873Z" transform="translate(-193.55487 -58.02157)"/><text class="cls-16" transform="translate(1068.1839 490.83781)">False</text><rect class="cls-31" x="2698.91369" y="154.24077" width="403.18015" height="53.10178"/><text class="cls-16" transform="translate(2858.9549 346.23917)">brighten</text><text class="cls-16" transform="translate(2870.75568 454.4091)">darken</text><polygon class="cls-32" points="3138.478 847.514 2664.496 847.514 2662.529 11.653 3140.445 11.653 3138.478 847.514"/><text class="cls-16" transform="translate(2732.04181 729.65714)">if (checkint() == 0)<tspan x="-64.46387" y="28.3208" xml:space="preserve">                    return count_down;</tspan></text><circle class="cls-1" cx="2858.21902" cy="626.25656" r="27.53425"/><text class="cls-16" transform="translate(2918.4588 638.41203)">stand for</text><circle class="cls-1" cx="334.67716" cy="503.43361" r="14.75049"/><circle class="cls-1" cx="336.64389" cy="672.5726" r="14.75049"/><circle class="cls-1" cx="336.64389" cy="902.6803" r="14.75049"/><circle class="cls-1" cx="2460.71493" cy="902.6803" r="14.75049"/><circle class="cls-1" cx="1211.83983" cy="902.6803" r="14.75049"/><circle class="cls-1" cx="1211.83983" cy="1469.09925" r="14.75049"/><circle class="cls-1" cx="1215.77329" cy="1707.07387" r="14.75049"/><circle class="cls-1" cx="1666.15503" cy="1707.07387" r="14.75049"/><circle class="cls-1" cx="1662.22156" cy="1469.09925" r="14.75049"/><circle class="cls-1" cx="2458.7482" cy="1469.09925" r="14.75049"/><circle class="cls-1" cx="2909.12993" cy="1469.09925" r="14.75049"/><circle class="cls-1" cx="2909.12993" cy="1707.07387" r="14.75049"/><circle class="cls-1" cx="2460.71493" cy="1707.07387" r="14.75049"/><circle class="cls-1" cx="332.71042" cy="1469.09925" r="14.75049"/><circle class="cls-1" cx="785.05889" cy="1469.09925" r="14.75049"/><circle class="cls-1" cx="336.64389" cy="1703.14041" r="14.75049"/><circle class="cls-1" cx="785.05889" cy="1707.07387" r="14.75049"/><text class="cls-6" transform="translate(2786.25763 189.87394)">the function of LCD</text></svg>