<svg xmlns="http://www.w3.org/2000/svg" xmlns:xlink="http://www.w3.org/1999/xlink" viewBox="0 0 3840 2160"><defs><style>.cls-1,.cls-10{fill:#fff;}.cls-2,.cls-6{fill:#8cc63f;}.cls-11,.cls-17,.cls-2,.cls-27,.cls-29,.cls-30,.cls-32{stroke:#000;}.cls-10,.cls-11,.cls-13,.cls-14,.cls-15,.cls-17,.cls-2,.cls-21,.cls-23,.cls-24,.cls-25,.cls-26,.cls-27,.cls-29,.cls-3,.cls-30,.cls-31,.cls-32,.cls-4,.cls-5,.cls-6,.cls-8{stroke-miterlimit:10;}.cls-3{fill:#009ee7;}.cls-10,.cls-13,.cls-14,.cls-15,.cls-21,.cls-23,.cls-24,.cls-25,.cls-26,.cls-3,.cls-31,.cls-4,.cls-5,.cls-6,.cls-8{stroke:#231815;}.cls-18,.cls-4{fill:red;}.cls-5{fill:#ffef00;}.cls-16,.cls-7{font-size:23.60079px;}.cls-11,.cls-17,.cls-20,.cls-7,.cls-9{fill:#231815;}.cls-11,.cls-16,.cls-17,.cls-28,.cls-7{font-family:AdobeMingStd-Light-B5pc-H, Adobe Ming Std;}.cls-27,.cls-32,.cls-8{fill:none;}.cls-11{font-size:39.33465px;stroke-width:1.2px;}.cls-12{fill:#e63828;}.cls-13{fill:url(#蘭花);}.cls-14{fill:url(#天空);}.cls-15,.cls-22{fill:#8bc53f;}.cls-17{font-size:59.00198px;}.cls-17,.cls-32{stroke-width:2px;}.cls-19,.cls-20{letter-spacing:-0.00002em;}.cls-21{fill:url(#蘭花-2);}.cls-23{fill:#3fa9f5;}.cls-24{fill:url(#天空-2);}.cls-25{fill:url(#天空-3);}.cls-26{fill:url(#天空-4);}.cls-28{font-size:98.33662px;}.cls-30,.cls-31{fill:#c69c6d;}</style><linearGradient id="蘭花" x1="2892.46856" y1="453.18707" x2="3085.20835" y2="453.18707" gradientUnits="userSpaceOnUse"><stop offset="0" stop-color="#ff7bac"/><stop offset="0.21596" stop-color="#ff7bac" stop-opacity="0.76266"/><stop offset="0.6041" stop-color="#ff7bac" stop-opacity="0.35634"/><stop offset="0.87374" stop-color="#ff7bac" stop-opacity="0.09981"/><stop offset="1" stop-color="#ff7bac" stop-opacity="0"/></linearGradient><linearGradient id="天空" x1="3104.87567" y1="451.22034" x2="3295.64872" y2="451.22034" gradientUnits="userSpaceOnUse"><stop offset="0" stop-color="#cce0f4"/><stop offset="0.06405" stop-color="#c3dcf2"/><stop offset="0.17063" stop-color="#a9d2ee"/><stop offset="0.30655" stop-color="#80c2e7"/><stop offset="0.46487" stop-color="#47acde"/><stop offset="0.56742" stop-color="#1e9cd7"/><stop offset="0.86517" stop-color="#0075be"/><stop offset="0.99438" stop-color="#005b97"/></linearGradient><linearGradient id="蘭花-2" x1="1949.19622" y1="648.97478" x2="2234.37243" y2="648.97478" xlink:href="#蘭花"/><linearGradient id="天空-2" x1="839.95912" y1="1265.5454" x2="1121.20186" y2="1265.5454" xlink:href="#天空"/><linearGradient id="天空-3" x1="2964.03017" y1="1265.5454" x2="3245.27291" y2="1265.5454" xlink:href="#天空"/><linearGradient id="天空-4" x1="1718.48881" y1="1264.99132" x2="1999.73155" y2="1264.99132" xlink:href="#天空"/></defs><g id="圖層_2" data-name="圖層 2"><rect class="cls-1" width="3840" height="2160"/></g><g id="圖層_1" data-name="圖層 1"><rect class="cls-2" x="2890.50183" y="735.41317" width="403.18015" height="133.73781"/><rect class="cls-3" x="3104.87567" y="318.46589" width="190.77305" height="53.10178"/><rect class="cls-4" x="2892.46856" y="318.46589" width="192.73978" height="53.10178"/><rect class="cls-5" x="2892.46856" y="106.05879" width="403.18015" height="55.06851"/><polygon class="cls-6" points="2475.065 182.427 528 178.493 529.967 58.523 2477.032 62.456 2475.065 182.427"/><text class="cls-7" transform="translate(503.68604 324.30859)">Start</text><path class="cls-1" d="M529.21539,365.7653"/><line class="cls-1" x1="529.21539" y1="364.78194" x2="529.21539" y2="429.68411"/><line class="cls-8" x1="529.21539" y1="364.78194" x2="529.21539" y2="423.64895"/><path class="cls-9" d="M529.21539,429.6841a30.222,30.222,0,0,0-4.75586-8.54735l4.75586,1.72021,4.75489-1.72021A30.1957,30.1957,0,0,0,529.21539,429.6841Z"/><path class="cls-1" d="M224.37186,692.24289"/><path class="cls-1" d="M2994.36278,103.77533"/><path class="cls-1" d="M3191.75658,118.034"/><text class="cls-7" transform="translate(2933.11133 141.55078)">the context displaying in LCD</text><path class="cls-1" d="M2992.39605,211.94561"/><path class="cls-1" d="M3189.78985,226.20433"/><path class="cls-1" d="M2896.08946,348.82352"/><path class="cls-5" d="M2896.08946,318.9999"/><path class="cls-5" d="M3288.90416,318.88316"/><path class="cls-1" d="M3080.95455,330.1235"/><path class="cls-10" d="M3036.53715,320.4641"/><path class="cls-1" d="M3019.21391,318.556"/><path class="cls-1" d="M3036.53715,320.4641"/><path class="cls-1" d="M3084.40871,316.57824"/><path class="cls-1" d="M3036.53715,365.54579"/><text class="cls-11" transform="translate(2702.37109 130.40723)">Legend</text><path class="cls-12" d="M3194.01347,322.02985"/><text class="cls-7" transform="translate(2907.82813 354.10156)"><tspan xml:space="preserve">LED light  color</tspan></text><rect class="cls-13" x="2892.46856" y="426.63618" width="192.73978" height="53.10178"/><path class="cls-1" d="M3080.95455,438.29379"/><path class="cls-10" d="M3036.53715,428.63439"/><path class="cls-1" d="M3019.21391,426.72628"/><path class="cls-1" d="M3036.53715,428.63439"/><path class="cls-1" d="M3084.40871,424.74852"/><path class="cls-1" d="M3036.53715,473.71607"/><text class="cls-7" transform="translate(2907.82813 462.27148)"><tspan xml:space="preserve">LED light  color</tspan></text><text class="cls-7" transform="translate(3120.23438 356.06836)"><tspan xml:space="preserve">LED light  color</tspan></text><rect class="cls-14" x="3104.87567" y="424.66945" width="190.77305" height="53.10178"/><path class="cls-5" d="M3288.90416,425.08671"/><path class="cls-12" d="M3194.01347,428.2334"/><text class="cls-7" transform="translate(3120.23438 462.27148)"><tspan xml:space="preserve">LED light  color</tspan></text><rect class="cls-15" x="2892.46856" y="532.83973" width="403.18015" height="59.00197"/><text class="cls-16" transform="translate(3037.25586 570.79297)">Subfuntion</text><path class="cls-1" d="M634.535,72.2967"/><text class="cls-17" transform="translate(773.10889 146.3418)"><tspan xml:space="preserve"> Input subfunction</tspan></text><path class="cls-1" d="M686.5906,142.59693"/><path class="cls-1" d="M685.79363,142.655"/><text class="cls-16" transform="translate(439.07959 481.78125)">Initialize variable<tspan x="-14.00635" y="28.3208">Close all LEDs light</tspan></text><text class="cls-16" transform="translate(1536.99561 101.26758)"><tspan xml:space="preserve">Input    : </tspan><tspan class="cls-9" x="89.84619" y="0">gpio 4b_1 ×2, 4b_2 ×4, 8b_2 ×8, 8b_3 ×8, </tspan><tspan class="cls-18" x="551.54102" y="0">22 pins in total</tspan><tspan class="cls-19" x="705.62793" y="0" xml:space="preserve">    </tspan><tspan x="0" y="28.3208">Output : guess or count_down</tspan><tspan x="0" y="56.64209">Global variable :</tspan><tspan class="cls-20" x="170.2998" y="56.64209" xml:space="preserve"> ifint, count_down, mode_state[2], chance</tspan><tspan class="cls-19" x="600.60547" y="56.64209"> </tspan></text><path class="cls-1" d="M665.79848,606.29665"/><polygon class="cls-8" points="621.254 914.67 368.843 914.67 418.388 832.318 670.799 832.318 621.254 914.67"/><text class="cls-7" transform="translate(485.146 882.22656)">Button 9</text><line class="cls-12" x1="529.21539" y1="533.92093" x2="528.84507" y2="606.33853"/><line class="cls-8" x1="529.21539" y1="533.92093" x2="528.87595" y2="600.30345"/><path class="cls-9" d="M528.84506,606.33853A30.22146,30.22146,0,0,0,524.133,597.767l4.747,1.7445,4.76362-1.69587A30.19665,30.19665,0,0,0,528.84506,606.33853Z"/><path class="cls-1" d="M665.79848,738.06773"/><polygon class="cls-8" points="621.254 688.496 368.843 688.496 418.388 606.144 670.799 606.144 621.254 688.496"/><text class="cls-7" transform="translate(441.87744 656.05176)">Button Control</text><line class="cls-12" x1="528.84507" y1="688.49568" x2="529.21539" y2="832.86426"/><line class="cls-8" x1="528.84506" y1="688.49568" x2="529.19992" y2="826.82913"/><path class="cls-9" d="M529.21539,832.86426a30.22134,30.22134,0,0,0-4.77777-8.53513l4.76026,1.708,4.75045-1.73242A30.19555,30.19555,0,0,0,529.21539,832.86426Z"/><rect class="cls-8" x="389.57739" y="428.70074" width="277.30928" height="104.23682"/><line class="cls-12" x1="646.02675" y1="647.31983" x2="811.4415" y2="648.97478"/><line class="cls-8" x1="646.02673" y1="647.31983" x2="805.40665" y2="648.9144"/><path class="cls-9" d="M811.4415,648.97478a30.2217,30.2217,0,0,0-8.59452,4.67011l1.76771-4.73842-1.67255-4.77185A30.19587,30.19587,0,0,0,811.4415,648.97478Z"/><rect class="cls-21" x="1949.19622" y="597.83973" width="285.17621" height="102.27009"/><text class="cls-16" transform="translate(1989.01172 656.23535)">Disable user to write </text><line class="cls-12" x1="2233.17983" y1="639.4529" x2="2388.0914" y2="639.4529"/><line class="cls-8" x1="2233.17981" y1="639.4529" x2="2382.05627" y2="639.4529"/><path class="cls-9" d="M2388.09143,639.4529a30.22159,30.22159,0,0,0-8.54736,4.75586l1.72021-4.75586-1.72021-4.75488A30.195,30.195,0,0,0,2388.09143,639.4529Z"/><text class="cls-16" transform="translate(2455.12695 648.36816)">Return : guess</text><ellipse class="cls-8" cx="2529.38229" cy="642.09121" rx="141.60474" ry="77.68593"/><text class="cls-16" transform="translate(703.77393 629.28711)">True</text><text class="cls-16" transform="translate(442.86768 766.58203)">False</text><polyline class="cls-8" points="714.572 1090.376 529.893 1013.505 354.176 1091.49 527.249 1162.292"/><polyline class="cls-8" points="527.249 1224.328 527.249 1162.292 714.572 1090.376 981.564 1091.49 981.564 1219.192"/><path class="cls-9" d="M981.56386,1225.22736a30.22092,30.22092,0,0,0-4.75586-8.54731l4.75586,1.72016,4.75488-1.72016A30.19463,30.19463,0,0,0,981.56386,1225.22736Z"/><text class="cls-7" transform="translate(430.68701 1094.43164)">LED 9 doesn&apos;t light</text><path class="cls-1" d="M529.89278,1013.50467"/><line class="cls-22" x1="529.21539" y1="915.46702" x2="528.87716" y2="1013.50467"/><line class="cls-8" x1="529.21539" y1="915.46701" x2="528.89798" y2="1007.46954"/><path class="cls-9" d="M528.87717,1013.50467a30.22212,30.22212,0,0,0-4.72635-8.56372l4.74991,1.7366,4.76077-1.7038A30.1957,30.1957,0,0,0,528.87717,1013.50467Z"/><line class="cls-22" x1="529.21539" y1="1306.84678" x2="529.21539" y2="1393.38301"/><line class="cls-8" x1="529.21539" y1="1306.8468" x2="529.21539" y2="1387.34784"/><path class="cls-9" d="M529.21539,1393.383a30.22208,30.22208,0,0,0-4.75586-8.54737l4.75586,1.72022,4.75489-1.72022A30.19581,30.19581,0,0,0,529.21539,1393.383Z"/><line class="cls-22" x1="527.24866" y1="1483.8527" x2="527.24866" y2="1570.38893"/><line class="cls-8" x1="527.24866" y1="1483.85272" x2="527.24866" y2="1564.35376"/><path class="cls-9" d="M527.24866,1570.38892a30.22151,30.22151,0,0,0-4.75586-8.54737l4.75586,1.72022,4.75488-1.72022A30.19472,30.19472,0,0,0,527.24866,1570.38892Z"/><rect class="cls-23" x="389.57739" y="1225.22738" width="281.24274" height="80.63603"/><text class="cls-7" transform="translate(430.33887 1261.15039)">LEDs light reflects<tspan x="-20.95703" y="28.32129">which button you press</tspan></text><rect class="cls-8" x="389.57739" y="1392.39964" width="281.24274" height="90.46969"/><rect class="cls-5" x="389.57739" y="1571.37229" width="281.24274" height="90.46969"/><text class="cls-16" transform="translate(428.9209 1444.35156)">guess = guess + 512</text><text/><text class="cls-16" transform="translate(488.78906 1621.06348)">%guess</text><text class="cls-7" transform="translate(328.8042 1697.07422)"><tspan xml:space="preserve">Position : in  next      row of LCD screen</tspan></text><line class="cls-22" x1="979.59712" y1="1306.84678" x2="979.59712" y2="1393.38301"/><line class="cls-8" x1="979.59712" y1="1306.8468" x2="979.59712" y2="1387.34784"/><path class="cls-9" d="M979.59712,1393.383a30.22184,30.22184,0,0,0-4.75586-8.54737l4.75586,1.72022,4.75489-1.72022A30.19557,30.19557,0,0,0,979.59712,1393.383Z"/><line class="cls-22" x1="977.63039" y1="1483.8527" x2="977.63039" y2="1570.38893"/><line class="cls-8" x1="977.63039" y1="1483.85272" x2="977.63039" y2="1564.35376"/><path class="cls-9" d="M977.63039,1570.38892a30.22126,30.22126,0,0,0-4.75586-8.54737l4.75586,1.72022,4.75488-1.72022A30.195,30.195,0,0,0,977.63039,1570.38892Z"/><rect class="cls-24" x="839.95912" y="1225.22738" width="281.24274" height="80.63603"/><text class="cls-7" transform="translate(878.75391 1263.11719)">LEDs light reflects<tspan x="-20.95703" y="28.32129">which button you press</tspan></text><rect class="cls-8" x="839.95912" y="1392.39964" width="281.24274" height="90.46969"/><rect class="cls-5" x="839.95912" y="1571.37229" width="281.24274" height="90.46969"/><text class="cls-16" transform="translate(882.21777 1444.35156)">guess = guess - 512</text><text/><text class="cls-16" transform="translate(939.1709 1621.06348)">%guess</text><text class="cls-7" transform="translate(779.18506 1697.07422)"><tspan xml:space="preserve">Position : in  next      row of LCD screen</tspan></text><text class="cls-16" transform="translate(445.78076 1200.60059)">True</text><text class="cls-16" transform="translate(806.59424 1080.21387)">False</text><polygon class="cls-8" points="2745.325 914.67 2492.914 914.67 2542.459 832.318 2794.87 832.318 2745.325 914.67"/><text class="cls-7" transform="translate(2609.2168 882.22656)">Button 0</text><polyline class="cls-8" points="2838.643 1090.376 2653.964 1013.505 2477.909 1092.607 2651.32 1162.292"/><polyline class="cls-8" points="2651.32 1224.328 2651.32 1162.292 2838.643 1090.376 3105.635 1091.49 3105.635 1219.192"/><path class="cls-9" d="M3105.635,1225.22736a30.22092,30.22092,0,0,0-4.75586-8.54731l4.75586,1.72016,4.75488-1.72016A30.19463,30.19463,0,0,0,3105.635,1225.22736Z"/><text class="cls-7" transform="translate(2562.625 1098.36523)">LED 0 doesn&apos;t light</text><path class="cls-1" d="M2653.96383,1013.50467"/><line class="cls-22" x1="2653.28644" y1="915.46702" x2="2652.94821" y2="1013.50467"/><line class="cls-8" x1="2653.2865" y1="915.46701" x2="2652.96899" y2="1007.46954"/><path class="cls-9" d="M2652.94824,1013.50467a30.22327,30.22327,0,0,0-4.72632-8.56372l4.74988,1.7366,4.76074-1.7038A30.1944,30.1944,0,0,0,2652.94824,1013.50467Z"/><line class="cls-22" x1="2653.28644" y1="1306.84678" x2="2653.28644" y2="1393.38301"/><line class="cls-8" x1="2653.2865" y1="1306.8468" x2="2653.2865" y2="1387.34784"/><path class="cls-9" d="M2653.2865,1393.383a30.22208,30.22208,0,0,0-4.75586-8.54737l4.75586,1.72022,4.75476-1.72022A30.19523,30.19523,0,0,0,2653.2865,1393.383Z"/><line class="cls-22" x1="2651.31971" y1="1483.8527" x2="2651.31971" y2="1570.38893"/><line class="cls-8" x1="2651.3197" y1="1483.85272" x2="2651.3197" y2="1564.35376"/><path class="cls-9" d="M2651.3197,1570.38892a30.22126,30.22126,0,0,0-4.75586-8.54737l4.75586,1.72022,4.75488-1.72022A30.19521,30.19521,0,0,0,2651.3197,1570.38892Z"/><rect class="cls-23" x="2513.64844" y="1225.22738" width="281.24274" height="80.63603"/><text class="cls-7" transform="translate(2554.41113 1261.15039)">LEDs light reflects<tspan x="-20.95703" y="28.32129">which button you press</tspan></text><rect class="cls-8" x="2513.64844" y="1392.39964" width="281.24274" height="90.46969"/><rect class="cls-5" x="2513.64844" y="1571.37229" width="281.24274" height="90.46969"/><text class="cls-16" transform="translate(2564.86426 1444.35156)">guess = guess + 1</text><text/><text class="cls-16" transform="translate(2612.85938 1621.06348)">%guess</text><text class="cls-7" transform="translate(2452.875 1697.07422)"><tspan xml:space="preserve">Position : in  next      row of LCD screen</tspan></text><line class="cls-22" x1="3103.66817" y1="1306.84678" x2="3103.66817" y2="1393.38301"/><line class="cls-8" x1="3103.66821" y1="1306.8468" x2="3103.66821" y2="1387.34784"/><path class="cls-9" d="M3103.66821,1393.383a30.22208,30.22208,0,0,0-4.75586-8.54737l4.75586,1.72022,4.75489-1.72022A30.19581,30.19581,0,0,0,3103.66821,1393.383Z"/><line class="cls-22" x1="3101.70144" y1="1483.8527" x2="3101.70144" y2="1570.38893"/><line class="cls-8" x1="3101.70142" y1="1483.85272" x2="3101.70142" y2="1564.35376"/><path class="cls-9" d="M3101.70142,1570.38892a30.22151,30.22151,0,0,0-4.75586-8.54737l4.75586,1.72022,4.75488-1.72022A30.19472,30.19472,0,0,0,3101.70142,1570.38892Z"/><rect class="cls-25" x="2964.03017" y="1225.22738" width="281.24274" height="80.63603"/><text class="cls-7" transform="translate(3002.8252 1263.11719)">LEDs light reflects<tspan x="-20.95703" y="28.32129">which button you press</tspan></text><rect class="cls-8" x="2964.03017" y="1392.39964" width="281.24274" height="90.46969"/><rect class="cls-5" x="2964.03017" y="1571.37229" width="281.24274" height="90.46969"/><text class="cls-16" transform="translate(3018.15918 1444.35156)">guess = guess - 1</text><text/><text class="cls-16" transform="translate(3063.24219 1621.06348)">%guess</text><text class="cls-7" transform="translate(2903.25586 1697.07422)"><tspan xml:space="preserve">Position : in  next      row of LCD screen</tspan></text><text class="cls-16" transform="translate(2569.85254 1200.60059)">True</text><text class="cls-16" transform="translate(2930.66406 1080.21387)">False</text><polygon class="cls-8" points="1499.784 914.116 1247.373 914.116 1296.918 831.764 1549.329 831.764 1499.784 914.116"/><text class="cls-7" transform="translate(1363.67529 881.67188)">Button 8</text><polyline class="cls-8" points="1593.102 1089.822 1408.422 1012.951 1232.368 1092.053 1405.778 1161.738"/><polyline class="cls-8" points="1405.778 1223.774 1405.778 1161.738 1593.102 1089.822 1860.094 1090.935 1860.094 1218.638"/><path class="cls-9" d="M1860.09357,1224.67328a30.22241,30.22241,0,0,0-4.75586-8.54736l4.75586,1.72021,4.75488-1.72021A30.19562,30.19562,0,0,0,1860.09357,1224.67328Z"/><text class="cls-7" transform="translate(1319.05029 1095.84473)">LED 8 doesn&apos;t light</text><path class="cls-1" d="M1408.42247,1012.95059"/><line class="cls-22" x1="1407.74508" y1="914.91294" x2="1407.40685" y2="1012.95059"/><line class="cls-8" x1="1407.74509" y1="914.91293" x2="1407.42767" y2="1006.91547"/><path class="cls-9" d="M1407.40686,1012.95059a30.222,30.222,0,0,0-4.72635-8.56372l4.74988,1.7366,4.7608-1.70379A30.195,30.195,0,0,0,1407.40686,1012.95059Z"/><line class="cls-22" x1="1407.74508" y1="1306.2927" x2="1407.74508" y2="1392.82893"/><line class="cls-8" x1="1407.74509" y1="1306.29272" x2="1407.74509" y2="1386.79376"/><path class="cls-9" d="M1407.74509,1392.82892a30.22241,30.22241,0,0,0-4.75586-8.54736l4.75586,1.72021,4.75488-1.72021A30.19562,30.19562,0,0,0,1407.74509,1392.82892Z"/><line class="cls-22" x1="1405.77835" y1="1483.29862" x2="1405.77835" y2="1569.83485"/><line class="cls-8" x1="1405.77835" y1="1483.29865" x2="1405.77835" y2="1563.79968"/><path class="cls-9" d="M1405.77835,1569.83484a30.22134,30.22134,0,0,0-4.75586-8.54736l4.75586,1.72021,4.75488-1.72021A30.19529,30.19529,0,0,0,1405.77835,1569.83484Z"/><rect class="cls-23" x="1268.10708" y="1224.6733" width="281.24274" height="80.63603"/><text class="cls-7" transform="translate(1308.86816 1260.59668)">LEDs light reflects<tspan x="-20.95703" y="28.32129">which button you press</tspan></text><rect class="cls-8" x="1268.10708" y="1391.84556" width="281.24274" height="90.46969"/><rect class="cls-5" x="1268.10708" y="1570.81822" width="281.24274" height="90.46969"/><text class="cls-16" transform="translate(1307.46289 1443.79785)">guess = guess + 256</text><text/><text class="cls-16" transform="translate(1367.31836 1620.50977)">%guess</text><text class="cls-7" transform="translate(1207.3335 1696.51953)"><tspan xml:space="preserve">Position : in  next      row of LCD screen</tspan></text><line class="cls-22" x1="1858.12681" y1="1306.2927" x2="1858.12681" y2="1392.82893"/><line class="cls-8" x1="1858.12683" y1="1306.29272" x2="1858.12683" y2="1386.79376"/><path class="cls-9" d="M1858.12683,1392.82892a30.22216,30.22216,0,0,0-4.75586-8.54736l4.75586,1.72021,4.75488-1.72021A30.19611,30.19611,0,0,0,1858.12683,1392.82892Z"/><line class="cls-22" x1="1856.16008" y1="1483.29862" x2="1856.16008" y2="1569.83485"/><line class="cls-8" x1="1856.1601" y1="1483.29865" x2="1856.1601" y2="1563.79968"/><path class="cls-9" d="M1856.1601,1569.83484a30.22183,30.22183,0,0,0-4.75586-8.54736l4.75586,1.72021,4.75488-1.72021A30.1948,30.1948,0,0,0,1856.1601,1569.83484Z"/><rect class="cls-26" x="1718.48881" y="1224.6733" width="281.24274" height="80.63603"/><text class="cls-7" transform="translate(1757.2832 1262.56348)">LEDs light reflects<tspan x="-20.95703" y="28.32129">which button you press</tspan></text><rect class="cls-8" x="1718.48881" y="1391.84556" width="281.24274" height="90.46969"/><rect class="cls-5" x="1718.48881" y="1570.81822" width="281.24274" height="90.46969"/><text class="cls-16" transform="translate(1760.75977 1443.79785)">guess = guess - 256</text><text/><text class="cls-16" transform="translate(1817.70117 1620.50977)">%guess</text><text class="cls-7" transform="translate(1657.71533 1696.51953)"><tspan xml:space="preserve">Position : in  next      row of LCD screen</tspan></text><text class="cls-16" transform="translate(1338.07764 1200.0459)">True</text><text class="cls-16" transform="translate(1685.12354 1079.65918)">False</text><polyline class="cls-27" points="528.845 771.435 1408.345 770.912 1408.415 825.729"/><path d="M1408.42245,831.76413a30.2216,30.2216,0,0,0-4.76675-8.54126l4.75806,1.71411,4.75268-1.72626A30.196,30.196,0,0,0,1408.42245,831.76413Z"/><text class="cls-28" transform="translate(1663.62939 827.17383)">.....(and so on)</text><polyline class="cls-27" points="2301.304 770.912 2653.286 770.912 2653.286 826.829"/><path d="M2653.2865,832.86426a30.22181,30.22181,0,0,0-4.75586-8.54737l4.75586,1.72022,4.75476-1.72022A30.195,30.195,0,0,0,2653.2865,832.86426Z"/><ellipse class="cls-27" cx="529.21539" cy="312.66353" rx="87.51959" ry="52.11841"/><line class="cls-29" x1="529.61297" y1="1661.84199" x2="530.19876" y2="1869.79256"/><line class="cls-29" x1="978.02796" y1="1661.84199" x2="978.61376" y2="1869.79256"/><line class="cls-29" x1="1408.74237" y1="1661.84199" x2="1409.32816" y2="1869.79256"/><line class="cls-29" x1="1859.1241" y1="1661.84199" x2="1859.7099" y2="1869.79256"/><path class="cls-27" d="M3102.09912,1663.80872l.58569,207.95056c.9834.52307-2908.62994-1.96668-2908.62994-1.96668V649.95815l189.48792-2.55689"/><path d="M389.57739,647.31983a30.22267,30.22267,0,0,0-8.48242,4.87075l1.65588-4.77863-1.78418-4.73124A30.19483,30.19483,0,0,0,389.57739,647.31983Z"/><line class="cls-29" x1="2653.68401" y1="1661.84199" x2="2654.26981" y2="1869.79256"/><rect class="cls-8" x="812.42487" y="607.67339" width="328.44432" height="82.60276"/><text class="cls-16" transform="translate(867.2666 656.6123)">chance = chance - 1</text><polygon class="cls-8" points="1343.443 578.172 1237.239 650.942 1343.443 717.81 1453.58 650.942 1343.443 578.172"/><text class="cls-7" transform="translate(1284.99561 656.54199)">chance == 3</text><path class="cls-1" d="M1344.86661,571.68174"/><path class="cls-9" d="M1529.54621,648.553"/><line class="cls-22" x1="1454.56301" y1="650.94151" x2="1550.9329" y2="650.94151"/><line class="cls-8" x1="1454.56302" y1="650.94151" x2="1544.89777" y2="650.94151"/><path class="cls-9" d="M1550.93292,650.94151a30.22156,30.22156,0,0,0-8.54736,4.75585l1.72021-4.75585-1.72021-4.75488A30.195,30.195,0,0,0,1550.93292,650.94151Z"/><line class="cls-22" x1="1853.8097" y1="650.94151" x2="1950.17959" y2="650.94151"/><line class="cls-8" x1="1853.80969" y1="650.94151" x2="1944.14441" y2="650.94151"/><path class="cls-9" d="M1950.17957,650.94151a30.2223,30.2223,0,0,0-8.54737,4.75585l1.72022-4.75585-1.72022-4.75488A30.19579,30.19579,0,0,0,1950.17957,650.94151Z"/><line class="cls-22" x1="1139.88582" y1="650.94151" x2="1236.25571" y2="650.94151"/><line class="cls-8" x1="1139.88582" y1="650.94151" x2="1230.22055" y2="650.94151"/><path class="cls-9" d="M1236.25571,650.94151a30.22244,30.22244,0,0,0-8.54737,4.75585l1.72022-4.75585-1.72022-4.75488A30.19592,30.19592,0,0,0,1236.25571,650.94151Z"/><polygon class="cls-30" points="1852.826 696.176 1551.916 698.143 1551.916 603.74 1852.826 601.773 1852.826 696.176"/><text class="cls-16" transform="translate(1618.41113 642.00684)">set_Color(RED)<tspan x="0.63672" y="28.3208">blink_LED(ON)</tspan></text><text class="cls-16" transform="translate(1460.46338 629.91406)">True</text><polyline class="cls-27" points="1343.443 578.172 1343.443 489.9 2106.535 487.703 2106.535 589.838"/><path d="M2106.53479,595.873a30.22189,30.22189,0,0,0-4.75586-8.54736l4.75586,1.72021,4.75488-1.72021A30.1956,30.1956,0,0,0,2106.53479,595.873Z"/><text class="cls-16" transform="translate(1261.73877 548.85938)">False</text><rect class="cls-31" x="2892.46856" y="212.26234" width="403.18015" height="53.10178"/><text class="cls-16" transform="translate(3052.50977 404.26074)">brighten</text><text class="cls-16" transform="translate(3064.31055 512.43066)">darken</text><polygon class="cls-32" points="3332.033 905.536 2858.051 905.536 2856.084 69.674 3334 69.674 3332.033 905.536"/><text class="cls-16" transform="translate(2925.59668 787.67871)">if (checkint() == 0)<tspan x="-64.46387" y="28.3208" xml:space="preserve">                    return count_down;</tspan></text><circle class="cls-2" cx="3051.77389" cy="684.27813" r="27.53425"/><text class="cls-16" transform="translate(3112.01367 696.43359)">stand for</text><circle class="cls-2" cx="528.23203" cy="561.45518" r="14.75049"/><circle class="cls-2" cx="530.19876" cy="730.59417" r="14.75049"/><circle class="cls-2" cx="530.19876" cy="960.70187" r="14.75049"/><circle class="cls-2" cx="2654.26981" cy="960.70187" r="14.75049"/><circle class="cls-2" cx="1405.3947" cy="960.70187" r="14.75049"/><circle class="cls-2" cx="1405.3947" cy="1527.12081" r="14.75049"/><circle class="cls-2" cx="1409.32816" cy="1765.09544" r="14.75049"/><circle class="cls-2" cx="1859.7099" cy="1765.09544" r="14.75049"/><circle class="cls-2" cx="1855.77643" cy="1527.12081" r="14.75049"/><circle class="cls-2" cx="2652.30307" cy="1527.12081" r="14.75049"/><circle class="cls-2" cx="3102.6848" cy="1527.12081" r="14.75049"/><circle class="cls-2" cx="3102.6848" cy="1765.09544" r="14.75049"/><circle class="cls-2" cx="2654.26981" cy="1765.09544" r="14.75049"/><circle class="cls-2" cx="526.26529" cy="1527.12081" r="14.75049"/><circle class="cls-2" cx="978.61376" cy="1527.12081" r="14.75049"/><circle class="cls-2" cx="530.19876" cy="1761.16198" r="14.75049"/><circle class="cls-2" cx="978.61376" cy="1765.09544" r="14.75049"/><text class="cls-7" transform="translate(2979.8125 247.89551)">the function of LCD</text></g></svg>